<?xml version="1.0" encoding="UTF-8"?>
<svg id="Lager_1" data-name="Lager 1" xmlns="http://www.w3.org/2000/svg" viewBox="0 0 24 24">
  <path d="M11.16.72c-2.74.22-5.23,1.36-7.15,3.28-1.79,1.79-2.91,4.09-3.23,6.59-.12.93-.12,1.88,0,2.81.31,2.5,1.44,4.8,3.23,6.59,1.75,1.75,3.98,2.86,6.41,3.2,2.72.38,5.48-.24,7.76-1.73,2.74-1.8,4.56-4.66,5.02-7.89.38-2.72-.24-5.48-1.73-7.76-1.84-2.8-4.76-4.63-8.06-5.04-.68-.08-1.61-.11-2.24-.06M11.42,2.46c-1.4.12-2.43.39-3.57.93-1.92.92-3.54,2.54-4.46,4.46-.48,1-.75,1.97-.89,3.11-.06.49-.06,1.58,0,2.06.14,1.15.42,2.11.89,3.11.92,1.92,2.54,3.54,4.46,4.46,1,.48,1.97.75,3.11.89.49.06,1.58.06,2.08,0,2.27-.27,4.24-1.23,5.8-2.84.9-.93,1.56-1.94,2.04-3.13.82-2.06.89-4.37.2-6.49-.67-2.07-2.06-3.87-3.9-5.06-1.24-.8-2.61-1.29-4.13-1.47-.31-.04-1.39-.07-1.63-.04M9.54,6.18c-.09.02-.26.08-.37.14-.27.13-.55.41-.68.66-.05.09-.51,1.22-1.02,2.5l-.93,2.33h-1.08c-.59,0-1.15.01-1.23.02-.29.04-.55.24-.67.5-.06.12-.06.17-.06.37s0,.25.06.36c.13.28.38.46.71.5.12.02.72.02,1.61.02,1.42,0,1.43,0,1.56-.06.15-.06.35-.22.43-.36.03-.05.49-1.17,1.02-2.5.83-2.08.97-2.41.99-2.36.01.03.66,1.87,1.44,4.09.78,2.22,1.46,4.11,1.5,4.2.25.52.83.88,1.42.87.49,0,1.02-.3,1.3-.72.05-.08.48-.82.95-1.65l.86-1.52h1.12c.61,0,1.19-.01,1.28-.03.3-.04.56-.23.69-.5.06-.12.06-.17.06-.36s0-.25-.06-.37c-.08-.16-.25-.34-.41-.42-.06-.03-.19-.07-.28-.08-.1-.01-.77-.02-1.61-.02h-1.45s-.14.07-.14.07c-.1.04-.19.1-.29.2-.13.13-.26.35-1.07,1.76l-.92,1.62-1.47-4.16c-.81-2.29-1.5-4.22-1.53-4.29-.19-.38-.57-.7-.98-.81-.19-.05-.55-.06-.74-.02" fill-rule="evenodd"/>
</svg>