<?xml version="1.0" encoding="UTF-8"?>
<svg id="Lager_1" data-name="Lager 1" xmlns="http://www.w3.org/2000/svg" viewBox="0 0 24 24">
  <path d="M11.55.73c-.34.06-.67.2-1,.41-.13.08-1.18,1.12-4.65,4.59-2.47,2.46-4.55,4.56-4.63,4.66-.17.21-.35.54-.44.79-.28.81-.11,1.74.43,2.41.09.11,2.17,2.21,4.64,4.67,4.67,4.66,4.58,4.57,4.98,4.77.7.35,1.55.35,2.26,0,.4-.2.31-.11,4.98-4.77,2.47-2.46,4.55-4.56,4.63-4.66.62-.77.74-1.85.3-2.73-.2-.4-.1-.3-4.86-5.05C13.43,1.06,13.53,1.16,13.13.96c-.47-.23-1.06-.32-1.58-.23M11.8,2.48c-.05.02-.13.05-.18.07-.11.05-8.98,8.92-9.06,9.05-.09.15-.13.36-.09.54.02.08.05.18.07.22.05.1,8.95,9,9.07,9.07.05.03.16.07.25.09.18.04.39,0,.54-.09.12-.07,8.99-8.94,9.06-9.06.03-.05.06-.15.08-.23.04-.18,0-.39-.09-.55-.03-.05-2.07-2.11-4.53-4.56-4.07-4.06-4.48-4.47-4.6-4.52-.16-.07-.38-.08-.52-.04M11.73,5.6c-.34.13-.55.38-.6.73-.01.1-.02,1.57-.02,3.7v3.54s.06.14.06.14c.07.18.25.37.42.46.46.23,1.03.02,1.22-.46l.06-.14v-3.54c.01-2.11,0-3.6,0-3.7-.04-.3-.2-.53-.46-.67-.13-.07-.18-.08-.37-.09-.14,0-.25,0-.3.03M11.72,15.32c-.2.04-.37.14-.56.32-.68.64-.41,1.77.48,2.05.33.1.74.05,1.03-.14.54-.35.72-1.05.41-1.62-.09-.17-.34-.41-.52-.51-.23-.13-.55-.16-.84-.1" fill-rule="evenodd"/>
</svg>