<?xml version="1.0" encoding="UTF-8"?>
<svg id="Lager_1" data-name="Lager 1" xmlns="http://www.w3.org/2000/svg" viewBox="0 0 24 24">
  <path d="M23.39,10.53L13.46.6c-.81-.8-2.11-.8-2.92,0L.61,10.54c-.81.8-.81,2.11,0,2.91,0,0,0,0,0,0l9.93,9.92c.38.4.91.62,1.46.62.55,0,1.08-.22,1.47-.61l9.92-9.92c.81-.81.81-2.13,0-2.94ZM11,6.42c0-.55.45-1,1-1s1,.45,1,1v6c0,.55-.45,1-1,1s-1-.45-1-1v-6ZM12.05,17.93c-.82,0-1.48-.65-1.52-1.47-.03-.81.6-1.5,1.41-1.53.02,0,.04,0,.06,0,.81.02,1.47.66,1.5,1.47.03.82-.61,1.5-1.43,1.53,0,0-.01,0-.02,0Z"/>
</svg>