<?xml version="1.0" encoding="UTF-8"?>
<svg id="Lager_1" data-name="Lager 1" xmlns="http://www.w3.org/2000/svg" viewBox="0 0 24 24">
  <path d="M23.77,20.57L13.77,1.57c-.35-.66-1.03-1.07-1.77-1.07-.74,0-1.42.41-1.77,1.07L.23,20.57c-.34.63-.32,1.39.06,2,.37.59,1.02.94,1.71.93h20c1.1,0,2-.9,2-2,0-.32-.08-.64-.23-.93ZM11,8.5c0-.55.45-1,1-1s1,.45,1,1v6c0,.55-.45,1-1,1s-1-.45-1-1v-6ZM12.05,20c-.82,0-1.49-.65-1.52-1.47-.03-.82.61-1.5,1.43-1.53.01,0,.03,0,.04,0,.82,0,1.49.65,1.52,1.47.03.82-.61,1.5-1.43,1.53-.01,0-.03,0-.04,0Z"/>
</svg>