<?xml version="1.0" encoding="UTF-8"?>
<svg id="Lager_1" data-name="Lager 1" xmlns="http://www.w3.org/2000/svg" viewBox="0 0 24 24">
  <path d="M12,0c-3.21.05-6.28,1.36-8.53,3.65C1.2,5.92-.05,9.01,0,12.21c0,6.51,5.26,11.78,11.77,11.79.01,0,.02,0,.03,0h.2c6.68-.06,12.06-5.53,12-12.21C24.01,5.29,18.75.01,12.25,0c-.08,0-.17,0-.25,0ZM10.5,16.54c-.03-.82.6-1.51,1.42-1.54.03,0,.05,0,.08,0,.82,0,1.49.65,1.52,1.47.03.81-.6,1.5-1.41,1.53-.02,0-.04,0-.06,0-.83.01-1.51-.63-1.55-1.46ZM11,12.54v-6c0-.55.45-1,1-1s1,.45,1,1v6c0,.55-.45,1-1,1s-1-.45-1-1Z"/>
</svg>