<?xml version="1.0" encoding="UTF-8"?>
<svg id="Lager_1" data-name="Lager 1" xmlns="http://www.w3.org/2000/svg" viewBox="0 0 24 24">
  <path d="M11.55.74c-.71.13-1.37.58-1.73,1.19-.11.18-8.86,18-8.96,18.24-.13.31-.16.48-.15.89,0,.33.01.4.07.59.24.8.85,1.39,1.65,1.6l.2.05h18.74l.2-.05c.5-.13.96-.44,1.26-.83.5-.66.61-1.51.3-2.26-.1-.23-8.85-18.06-8.95-18.23-.36-.61-1.03-1.06-1.74-1.19-.24-.04-.65-.04-.88,0M11.81,2.47c-.14.04-.31.14-.4.24-.07.08-1.12,2.2-4.52,9.12-2.43,4.96-4.43,9.05-4.44,9.09-.03.14.03.33.14.45.18.2-.77.18,9.4.18s9.22.02,9.4-.18c.11-.12.17-.31.14-.45,0-.04-2.01-4.14-4.44-9.09-3.41-6.95-4.45-9.04-4.52-9.12-.13-.15-.32-.24-.53-.25-.09,0-.19,0-.23,0M11.73,7.69c-.22.06-.48.31-.57.55-.04.1-.04.34-.05,3.65,0,2.13,0,3.6.02,3.7.01.09.05.21.08.28.07.15.26.34.42.41.11.05.15.06.37.06s.27,0,.37-.06c.15-.08.35-.27.42-.41.03-.06.06-.18.08-.26.03-.2.03-6.99,0-7.19-.03-.2-.11-.35-.25-.5-.18-.18-.32-.24-.58-.24-.12,0-.25,0-.3.02M11.71,17.41c-.16.04-.25.08-.4.18-.64.44-.73,1.33-.18,1.87.25.25.51.36.86.36s.61-.11.86-.36c.38-.38.47-.92.23-1.4-.14-.27-.44-.54-.72-.63-.18-.05-.48-.06-.65-.02" fill-rule="evenodd"/>
</svg>