<?xml version="1.0" encoding="UTF-8"?>
<svg id="Lager_1" data-name="Lager 1" xmlns="http://www.w3.org/2000/svg" viewBox="0 0 24 24">
  <path d="M11.16.72c-2.74.22-5.23,1.36-7.15,3.28-1.79,1.79-2.91,4.09-3.23,6.59-.12.93-.12,1.88,0,2.81.31,2.5,1.44,4.8,3.23,6.59,1.75,1.75,3.98,2.86,6.41,3.2,2.72.38,5.48-.24,7.76-1.73,2.74-1.8,4.56-4.66,5.02-7.89.38-2.72-.24-5.48-1.73-7.76-1.84-2.8-4.76-4.63-8.06-5.04-.68-.08-1.61-.11-2.24-.06M11.42,2.46c-1.4.12-2.43.39-3.57.93-1.92.92-3.54,2.54-4.46,4.46-.48,1-.75,1.97-.89,3.11-.06.49-.06,1.58,0,2.06.14,1.15.42,2.11.89,3.11.92,1.92,2.54,3.54,4.46,4.46,1,.48,1.97.75,3.11.89.49.06,1.58.06,2.08,0,2.27-.27,4.24-1.23,5.8-2.84.9-.93,1.56-1.94,2.04-3.13.82-2.06.89-4.37.2-6.49-.67-2.07-2.06-3.87-3.9-5.06-1.24-.8-2.61-1.29-4.13-1.47-.31-.04-1.39-.07-1.63-.04M11.68,4.93c-.18.08-.31.18-.41.33-.16.25-.15-.09-.16,4.18,0,2.35,0,3.95.02,4.05.03.21.1.36.25.51.19.19.31.24.61.24s.42-.05.61-.24c.15-.15.22-.3.25-.5.03-.2.03-7.69,0-7.88-.04-.29-.24-.55-.5-.67-.2-.09-.49-.1-.68-.02M11.76,15.31c-.44.07-.88.51-.96.95-.1.51.11,1,.54,1.28.2.13.4.19.66.19.79,0,1.35-.69,1.2-1.47-.04-.23-.15-.42-.34-.61-.31-.31-.66-.42-1.1-.35" fill-rule="evenodd"/>
</svg>