<?xml version="1.0" encoding="UTF-8"?>
<svg id="Lager_1" data-name="Lager 1" xmlns="http://www.w3.org/2000/svg" viewBox="0 0 24 24">
  <path d="M12.28,8.28c.35-.34.36-.89.02-1.24L7.18,1.73s0,0,0,0c-.16-.16-.38-.26-.62-.26s-.47.1-.62.26c0,0,0,0,0,0L.8,7.04c-.34.35-.33.9.02,1.24s.9.32,1.24-.02l3.62-3.76v17.16c0,.48.39.88.88.88s.88-.39.88-.88V4.5l3.62,3.76c.17.18.4.27.63.27s.44-.08.61-.24Z"/>
  <path d="M23.18,15.72c-.35-.33-.9-.32-1.24.02l-3.62,3.75V2.33c0-.48-.39-.88-.88-.88s-.88.39-.88.88v17.16l-3.62-3.75c-.33-.35-.89-.36-1.24-.02-.35.34-.36.89-.02,1.24l5.12,5.32s0,0,0,0c.07.07.16.13.26.18,0,0,.02.01.03.02.11.04.22.07.34.07.25,0,.47-.1.62-.26,0,0,0,0,0,0l5.12-5.32c.34-.35.33-.9-.02-1.24Z"/>
</svg>