<?xml version="1.0" encoding="UTF-8"?>
<svg id="Lager_1" data-name="Lager 1" xmlns="http://www.w3.org/2000/svg" viewBox="0 0 24 24">
  <path d="M6.41.74c-.22.07-.42.25-.53.48l-.07.14v9.48s-.01,9.48-.01,9.48l-1.41-1.41c-1.2-1.2-1.43-1.41-1.53-1.45-.4-.17-.84-.04-1.08.32-.18.26-.2.62-.04.9.04.08.78.83,2.25,2.3,1.81,1.81,2.2,2.19,2.32,2.25.12.06.16.07.37.07s.25,0,.37-.07c.11-.06.51-.44,2.32-2.25,2.37-2.37,2.31-2.31,2.35-2.61.02-.16-.02-.38-.09-.51-.06-.11-.26-.32-.38-.38-.13-.07-.35-.11-.51-.09-.3.04-.26,0-1.78,1.52l-1.41,1.41v-9.43c0-6.44,0-9.46-.03-9.53-.07-.29-.31-.54-.6-.63-.14-.04-.39-.04-.52,0M10.26,1.64c-.31.04-.6.28-.71.58-.06.16-.05.43.02.61.07.2.29.41.49.49l.14.06h5.63c3.37.01,5.69,0,5.79,0,.09-.01.21-.05.27-.08.15-.08.34-.27.41-.43.05-.11.06-.17.06-.36s0-.25-.06-.36c-.08-.16-.25-.34-.41-.42-.06-.03-.19-.07-.28-.08-.19-.03-11.15-.03-11.36,0M10.14,5.37c-.22.06-.44.24-.54.45-.11.22-.11.56,0,.78.08.16.26.33.42.41l.13.06h5.04c3.81.01,5.07,0,5.15-.01.28-.07.53-.32.61-.59.13-.42-.08-.86-.49-1.06l-.14-.06h-5.04c-3.97,0-5.06,0-5.15.02M10.08,9.1c-.24.1-.45.31-.52.54-.06.17-.05.43.02.61.07.19.29.41.49.49l.14.06h7.78l.14-.06c.2-.08.42-.3.49-.49.07-.2.07-.45,0-.65-.07-.17-.26-.38-.44-.47l-.12-.06h-3.94c-3.66,0-3.94,0-4.04.03M10.15,12.78c-.43.12-.69.52-.63.98.04.27.24.54.5.66l.13.06h6.02l.13-.07c.17-.08.35-.26.43-.43.09-.19.1-.48.03-.68-.07-.19-.27-.4-.46-.49l-.15-.07h-2.94c-2.47,0-2.96,0-3.07.02" fill-rule="evenodd"/>
</svg>