<?xml version="1.0" encoding="UTF-8"?>
<svg id="Lager_1" data-name="Lager 1" xmlns="http://www.w3.org/2000/svg" viewBox="0 0 24 24">
  <path d="M6.4.73c-.06.02-.14.06-.18.08-.04.03-1.07,1.04-2.28,2.25-2.4,2.4-2.28,2.27-2.31,2.59-.02.19.04.42.15.58.25.36.73.49,1.12.29.06-.03.6-.55,1.49-1.44l1.4-1.4v9.48s.01,9.48.01,9.48l.08.16c.09.19.24.34.43.42.12.05.17.06.35.06s.24,0,.35-.06c.19-.09.34-.24.43-.42l.08-.16v-9.48s.01-9.48.01-9.48l1.4,1.4c.9.9,1.43,1.41,1.5,1.44.29.15.66.11.92-.08.25-.18.39-.51.35-.81-.04-.3.07-.18-2.34-2.59-1.88-1.88-2.24-2.23-2.34-2.28-.15-.07-.48-.08-.63-.04M10.12,9.54c-.15.05-.24.1-.35.21-.49.47-.27,1.3.39,1.47.12.03.87.03,5.85.03h5.71s.14-.07.14-.07c.47-.22.66-.79.42-1.22-.11-.19-.31-.36-.52-.42-.16-.05-11.48-.05-11.63,0M10.22,13.23c-.28.05-.56.28-.66.54-.06.17-.07.43-.01.6.05.15.18.32.32.43.23.17-.19.16,5.42.15h5.06s.13-.07.13-.07c.17-.08.35-.26.43-.43.05-.11.06-.17.06-.36s0-.25-.06-.37c-.12-.26-.38-.45-.66-.5-.17-.03-9.86-.03-10.02,0M10.12,16.96c-.15.05-.24.1-.36.22-.2.2-.29.46-.25.76.04.33.31.62.63.71.19.05,7.7.05,7.88,0,.42-.11.69-.53.63-.98-.04-.27-.24-.54-.5-.66l-.13-.06h-3.9c-3.1,0-3.92,0-4,.02M10.22,20.64c-.28.05-.56.28-.66.54-.06.17-.07.43-.01.6.08.23.3.46.54.55.1.04.3.04,2.93.05,1.87,0,2.88,0,3.01-.02.1-.01.24-.05.3-.08.16-.08.33-.26.41-.42.06-.12.06-.17.06-.38s0-.26-.06-.36c-.08-.15-.27-.35-.41-.42-.06-.03-.17-.06-.25-.08-.17-.03-5.68-.03-5.85,0" fill-rule="evenodd"/>
</svg>