<?xml version="1.0" encoding="UTF-8"?>
<svg id="Lager_1" data-name="Lager 1" xmlns="http://www.w3.org/2000/svg" viewBox="0 0 24 24">
  <path d="M13.87,22.33c1.04-.99,1.07-2.63.09-3.66,0,0-.01-.01-.02-.02l-3.87-3.72c-.08-.07-.1-.18-.06-.27.04-.1.13-.16.23-.16h11.62c1.25-.13,2.17-1.24,2.04-2.5,0,0,0,0,0,0,0-.82-.45-2.52-2-2.5h-11.68c-.14,0-.25-.13-.24-.28,0-.06.03-.11.06-.15l3.73-3.74c.97-1.04.93-2.67-.1-3.66-.98-1.04-2.62-1.08-3.66-.1,0,0,0,0,0,0L.37,11.29c-.18.19-.29.44-.29.7,0,.27.11.52.3.71l9.79,9.7c1.04,1,2.69.98,3.69-.06,0,0,0,0,0,0Z"/>
</svg>