<?xml version="1.0" encoding="UTF-8"?>
<svg id="Lager_1" data-name="Lager 1" xmlns="http://www.w3.org/2000/svg" viewBox="0 0 24 24">
  <path d="M22.33,10.13c-.99-1.04-2.63-1.07-3.66-.09,0,0-.01.01-.02.02l-3.72,3.87c-.07.08-.18.1-.27.06-.1-.04-.16-.13-.16-.23V2.14C14.38.88,13.26-.03,12.01.1c0,0,0,0,0,0-.82,0-2.52.45-2.5,2v11.68c0,.14-.13.25-.28.24-.06,0-.11-.03-.15-.06l-3.74-3.73c-1.04-.97-2.67-.93-3.66.1-1.04.98-1.08,2.62-.1,3.66,0,0,0,0,0,0l9.71,9.63c.19.18.44.29.7.29.27,0,.52-.11.71-.3l9.7-9.79c1-1.04.98-2.69-.06-3.69,0,0,0,0,0,0Z"/>
</svg>