<?xml version="1.0" encoding="UTF-8"?>
<svg id="Lager_1" data-name="Lager 1" xmlns="http://www.w3.org/2000/svg" viewBox="0 0 24 24">
  <path d="M11.46.71c-.87.09-1.59.27-2.33.58-.88.38-1.75,1-2.39,1.72-.88.97-1.47,2.12-1.72,3.35-.14.68-.13.22-.14,6.48,0,5.2,0,5.78.03,6.06.24,1.92,1.58,3.54,3.43,4.15,1.24.41,2.62.31,3.79-.26,1-.49,1.8-1.28,2.3-2.28.22-.44.35-.85.47-1.4.04-.2.04-.56.05-5.9,0-5.06,0-5.71-.03-5.9-.17-.99-.87-1.85-1.81-2.23-.39-.16-.6-.2-1.1-.2-.39,0-.47,0-.67.06-.68.17-1.25.53-1.64,1.05-.26.34-.37.54-.49.89-.16.46-.15.16-.14,5.45v4.8s.07.13.07.13c.09.17.25.33.42.41.12.06.17.06.38.06s.26,0,.36-.06c.15-.08.35-.27.42-.41.03-.06.06-.17.08-.25.01-.09.02-1.92.02-4.75,0-2.9,0-4.65.02-4.71.07-.29.33-.63.59-.77.5-.26,1.07-.17,1.45.23.16.17.24.31.3.52.05.19.05,10.92,0,11.23-.12.74-.45,1.37-.99,1.89-.92.87-2.24,1.14-3.44.69-.98-.37-1.76-1.24-2.01-2.27-.1-.4-.1-.38-.09-6.23,0-5.57,0-5.62.06-5.88.23-1.19.7-2.1,1.52-2.92.37-.36.72-.64,1.1-.86,2.1-1.2,4.69-.88,6.42.79.84.81,1.36,1.79,1.58,2.98l.06.3v4.22s.03,4.22.03,4.22l.06.14c.08.18.25.35.42.44.13.06.16.07.38.07s.26,0,.37-.06c.17-.08.35-.26.43-.43l.06-.13v-4.26c0-4.56,0-4.4-.12-5.03-.37-1.86-1.47-3.49-3.06-4.54-.87-.58-1.85-.95-2.92-1.11-.3-.05-1.3-.08-1.56-.05" fill-rule="evenodd"/>
</svg>