<?xml version="1.0" encoding="UTF-8"?>
<svg id="Lager_1" data-name="Lager 1" xmlns="http://www.w3.org/2000/svg" viewBox="0 0 24 24">
  <path d="M6,1.48c-1.11.36-1.97.88-2.77,1.67-.8.79-1.32,1.61-1.7,2.68-.12.34-.13.37-.13.6,0,.22,0,.25.07.37.1.19.24.33.42.42.14.07.18.08.37.08.19,0,.23,0,.35-.06.17-.08.32-.21.39-.34.03-.06.1-.23.16-.4.27-.82.66-1.46,1.26-2.06.6-.6,1.24-.99,2.06-1.26.47-.15.65-.31.76-.64.06-.18.06-.28.01-.47-.1-.39-.41-.64-.82-.66-.16,0-.23,0-.44.08M17.28,1.46c-.21.09-.34.2-.45.38-.06.1-.12.34-.12.46,0,.14.09.38.19.51.13.17.26.24.61.36.95.32,1.7.81,2.31,1.51.49.57.78,1.09,1.03,1.82.05.16.12.33.16.39.08.13.22.25.39.34.11.06.16.07.35.06.19,0,.23,0,.37-.08.18-.09.32-.23.42-.42.06-.12.07-.15.07-.37,0-.23,0-.26-.13-.6-.34-.95-.78-1.7-1.44-2.41-.82-.89-1.75-1.5-2.89-1.88-.46-.16-.63-.17-.86-.08M11.68,2.85c-.18.08-.31.18-.41.33-.13.19-.14.27-.16.89v.57s-.28.05-.28.05c-2.28.46-4.21,2.4-4.94,4.96-.23.82-.29,1.26-.34,2.56-.04,1.23-.08,1.71-.2,2.36-.18.97-.51,1.87-.84,2.26-.3.36-.34.46-.33.78.02.37.23.64.59.77.09.03.88.04,7.23.04,7.02,0,7.13,0,7.25-.05.23-.09.38-.22.5-.46.05-.09.06-.14.06-.36,0-.29-.04-.4-.22-.61-.45-.51-.81-1.49-1-2.75-.07-.48-.11-1.01-.15-1.99-.02-.56-.05-1.14-.07-1.3-.34-2.56-1.78-4.72-3.8-5.74-.48-.24-.92-.39-1.4-.49l-.27-.05v-.57c-.02-.32-.04-.61-.05-.65-.08-.25-.26-.46-.48-.56-.2-.09-.49-.1-.68-.02M6.94,3.99s-.19.09-.31.16c-1,.59-1.85,1.44-2.42,2.44-.15.27-.18.36-.16.59.05.79,1.05,1.11,1.54.49.04-.06.14-.19.2-.31.2-.34.41-.6.74-.93.34-.34.53-.49.95-.75.34-.21.41-.28.51-.48.07-.14.08-.18.08-.38,0-.2,0-.24-.07-.37-.09-.18-.23-.32-.41-.41-.12-.06-.18-.07-.35-.08-.11,0-.24,0-.29.02M16.52,4.01c-.5.17-.73.74-.5,1.21.09.19.18.27.48.46.7.43,1.32,1.05,1.72,1.71.15.25.26.38.38.46.16.11.33.15.54.14.32-.01.59-.19.74-.49.06-.13.07-.17.07-.38,0-.23,0-.24-.1-.42-.35-.67-1.01-1.45-1.62-1.94-.42-.34-.98-.7-1.18-.76-.15-.04-.4-.04-.54.01M11.39,6.38c-1.61.25-3.01,1.53-3.67,3.36-.3.83-.37,1.3-.42,2.87-.04,1.22-.13,2.01-.35,2.92-.07.29-.22.78-.31,1.01l-.06.15h10.84l-.06-.16c-.15-.38-.33-1.06-.42-1.52-.16-.88-.22-1.51-.26-2.93-.02-.82-.07-1.19-.2-1.71-.56-2.16-2.07-3.72-3.88-3.99-.31-.05-.91-.05-1.2,0M10.41,19.5c-.34.08-.62.39-.66.72-.02.18,0,.51.07.73.18.64.67,1.22,1.28,1.47.34.14.5.18.91.18s.56-.03.9-.17c.8-.33,1.36-1.16,1.36-2.03,0-.29-.05-.45-.23-.64-.35-.38-.91-.38-1.27,0-.13.14-.2.29-.24.54-.04.25-.07.33-.17.43-.24.23-.64.16-.79-.13-.02-.04-.05-.17-.07-.3-.02-.13-.06-.27-.09-.34-.18-.35-.6-.55-.98-.46" fill-rule="evenodd"/>
</svg>