<?xml version="1.0" encoding="UTF-8"?>
<svg id="Lager_1" data-name="Lager 1" xmlns="http://www.w3.org/2000/svg" viewBox="0 0 24 24">
  <path d="M9.76,21.06c-.07.04-.15.08-.24.1-.56.17-1.15-.16-1.32-.72-.14-.46-.62-.72-1.09-.59-.46.14-.73.62-.59,1.09.36,1.22,1.48,2.02,2.7,2.02.26,0,.53-.04.79-.11.23-.07.45-.16.65-.29.41-.25.55-.79.3-1.2-.25-.41-.79-.55-1.2-.3Z"/>
  <path d="M9.66,17.91c0-.48-.39-.88-.88-.88H2.25c.43-1.22.89-3.34.89-6.77s2.73-6.08,6.08-6.08c2.45,0,4.65,1.46,5.6,3.71.19.45.7.65,1.15.46.45-.19.65-.7.46-1.15-1.11-2.63-3.55-4.4-6.34-4.72v-1.28c0-.48-.39-.88-.88-.88s-.88.39-.88.88v1.26c-3.91.44-6.95,3.76-6.95,7.78,0,5.37-1.2,7.11-1.21,7.11-.21.26-.24.62-.1.92.15.3.45.49.79.49h7.91c.48,0,.88-.39.88-.88Z"/>
  <path d="M16.62,13.92c-.89.1-1.66.73-1.92,1.59-.33,1.07.17,2.21,1.17,2.7.31.15.52.2.88.22.35.02.56-.01.85-.11.64-.22,1.18-.74,1.39-1.36.11-.31.14-.54.13-.88-.02-.37-.07-.57-.22-.89-.41-.85-1.34-1.37-2.28-1.26ZM16.81,16.67c-.14-.01-.26-.08-.34-.19-.2-.25-.11-.62.18-.77.05-.03.12-.04.24-.03.22,0,.34.08.43.27.18.37-.1.77-.51.73Z"/>
  <path d="M22.29,16.76c-.29-.31-.52-.57-.52-.58s.24-.28.53-.59c.68-.73.79-.9.92-1.34.37-1.29-.54-2.59-1.89-2.69-.27-.02-.45,0-1.29.2-.39.09-.72.16-.72.15,0,0-.12-.36-.25-.77-.13-.42-.26-.81-.29-.88-.16-.35-.47-.69-.83-.91-.37-.23-.83-.33-1.29-.29-.73.07-1.4.55-1.7,1.21-.04.08-.17.48-.29.88s-.23.74-.24.75c-.01.01-.31-.05-.78-.15-.61-.14-.81-.18-1.02-.19-1.17-.05-2.18.91-2.18,2.08,0,.49.11.85.36,1.23.05.07.33.4.63.72.33.36.54.6.52.61,0,.02-.25.28-.53.58s-.57.64-.64.74c-.23.33-.34.73-.34,1.18,0,.43.11.79.34,1.15.43.65,1.17,1.01,1.95.94.11,0,.53-.09.93-.19s.75-.17.75-.16c0,0,.11.35.24.75.29.95.38,1.14.68,1.45.27.28.65.51,1.01.6.22.05.62.07.84.04.43-.07.84-.27,1.15-.58.35-.34.43-.51.73-1.49.13-.42.24-.76.25-.77,0,0,.33.06.72.15.77.18,1.08.23,1.31.2.92-.1,1.61-.66,1.88-1.54.06-.19.06-.25.06-.56,0-.4-.05-.62-.19-.92-.12-.25-.23-.39-.81-1.02ZM20.29,17.14c.06.09.31.38.55.65s.5.55.57.62c.15.17.17.27.09.43-.07.13-.17.2-.3.2-.05,0-.43-.08-.84-.17-.84-.19-1.04-.22-1.35-.16-.38.07-.82.32-1.05.61-.21.25-.28.42-.53,1.23-.13.42-.25.79-.27.83-.07.11-.16.17-.29.17-.13,0-.21-.04-.3-.16-.02-.03-.15-.4-.27-.81-.13-.41-.26-.82-.3-.9-.16-.33-.42-.59-.76-.78-.31-.17-.47-.21-.85-.2-.32,0-.34,0-1.05.17-.4.09-.77.17-.82.17-.25,0-.42-.3-.3-.52.02-.04.27-.32.55-.62.59-.63.65-.72.76-.95.13-.27.17-.45.16-.77,0-.34-.06-.58-.19-.83-.11-.21-.25-.37-.8-.96-.25-.27-.48-.53-.49-.57-.08-.18,0-.38.17-.46.05-.03.12-.05.14-.05s.36.08.76.17c.86.2,1.02.22,1.3.19.64-.07,1.25-.53,1.46-1.1.03-.07.15-.45.27-.84.12-.39.23-.74.25-.77.02-.03.07-.08.11-.1.05-.03.12-.05.19-.05.1,0,.13.01.21.09.09.09.1.11.34.89.26.85.32,1,.53,1.26.36.44,1.04.7,1.59.62.1-.02.5-.1.9-.19.64-.15.73-.16.81-.14.12.03.22.13.26.26.05.17,0,.25-.57.86-.56.6-.67.74-.78.96-.1.21-.15.39-.16.66-.02.41.06.75.27,1.08Z"/>
</svg>