<?xml version="1.0" encoding="UTF-8"?>
<svg id="Lager_1" data-name="Lager 1" xmlns="http://www.w3.org/2000/svg" viewBox="0 0 24 24">
  <path d="M11.75.73c-.23.08-.42.24-.53.44-.09.18-.11.36-.11,1.04v.62s-.14.02-.14.02c-.27.03-.86.16-1.18.25-.95.29-1.7.66-2.49,1.25-1.62,1.21-2.71,3-3.04,5-.06.39-.09.85-.12,2.04-.03,1.32-.09,2.11-.23,3.05-.19,1.3-.49,2.4-.84,3.06-.31.59-.28.51-.28.77,0,.2,0,.25.06.36.08.17.26.35.43.43l.13.06h17.16l.14-.07c.18-.09.33-.24.42-.42.06-.12.07-.16.07-.38,0-.21,0-.25-.07-.36-.04-.07-.11-.18-.17-.24-.28-.32-.61-1.29-.8-2.32-.19-1.06-.28-2.12-.32-3.7-.01-.51-.03-1.12-.04-1.34-.03-1.1-.31-2.19-.83-3.21-.88-1.74-2.42-3.12-4.23-3.8-.51-.19-1.28-.38-1.73-.44l-.14-.02v-.62c0-.34-.01-.68-.03-.77-.05-.3-.24-.55-.5-.67-.16-.07-.46-.09-.61-.04M11.42,4.56c-1.13.12-2.19.53-3.08,1.2-.3.23-.96.88-1.18,1.18-.57.76-.93,1.57-1.11,2.47-.09.45-.12.8-.13,1.78-.03,2.06-.21,3.64-.56,5.1-.08.32-.24.9-.3,1.05-.01.04.37.04,6.91.04,3.81,0,6.93,0,6.93,0s-.02-.05-.03-.09c-.12-.28-.35-1.26-.46-1.92-.2-1.2-.28-2.35-.33-4.39-.02-1.02-.04-1.22-.15-1.73-.18-.79-.57-1.63-1.07-2.29-.36-.48-.99-1.07-1.47-1.39-.77-.51-1.58-.82-2.51-.96-.3-.05-1.14-.07-1.44-.04M9.95,20.18c-.34.09-.59.36-.66.72-.07.35.24,1.06.67,1.51.34.36.82.65,1.27.78.55.16,1.17.14,1.71-.04.65-.22,1.27-.76,1.57-1.36.17-.35.22-.52.23-.76,0-.19,0-.23-.06-.35-.1-.2-.24-.34-.42-.43-.14-.07-.18-.08-.38-.08-.19,0-.24,0-.35.06-.21.1-.38.28-.47.51-.12.29-.15.34-.28.48-.33.33-.81.41-1.22.21-.25-.13-.42-.32-.53-.61-.08-.22-.15-.32-.27-.44-.15-.14-.34-.21-.54-.22-.09,0-.2,0-.24.01" fill-rule="evenodd"/>
</svg>