<?xml version="1.0" encoding="UTF-8"?>
<svg id="Lager_1" data-name="Lager 1" xmlns="http://www.w3.org/2000/svg" viewBox="0 0 24 24">
  <path d="M11.71.74c-.24.08-.44.29-.54.53-.05.13-.05.18-.06.85v.71s-.28.04-.28.04c-2.39.37-4.47,1.8-5.65,3.89-.57,1.01-.89,2.03-.99,3.18-.02.21-.02,1.13-.02,3.04v2.74s.07.13.07.13c.08.17.26.35.43.43.11.05.16.06.37.06s.26,0,.35-.06c.15-.07.32-.23.4-.36.13-.22.13-.17.13-3.02,0-2.86,0-2.95.13-3.57.32-1.52,1.29-2.94,2.6-3.8.31-.2.98-.54,1.32-.66.82-.29,1.76-.4,2.59-.31,1.02.11,1.81.38,2.66.91.36.22.5.27.72.25.37-.03.69-.29.79-.65.07-.26-.02-.62-.2-.81-.12-.13-.59-.42-1.02-.64-.76-.39-1.48-.62-2.33-.76-.16-.03-.3-.05-.31-.05s-.01-.28-.01-.62c0-.68-.02-.86-.11-1.04-.08-.15-.25-.32-.41-.4-.18-.09-.46-.1-.65-.04M21.42,2.15c-.07.03-.17.08-.2.11-.04.03-4.49,4.47-9.89,9.87C2.47,21,1.51,21.96,1.46,22.08c-.05.11-.06.17-.06.35,0,.2,0,.23.08.37.09.19.24.34.43.42.12.05.17.06.35.06.2,0,.23,0,.37-.08.14-.07.94-.86,10-9.92C21.57,4.35,22.48,3.44,22.53,3.32c.07-.16.09-.41.05-.57-.14-.5-.69-.79-1.15-.6M18.64,8.92c-.24.07-.46.25-.57.48-.05.1-.06.15-.06.36,0,.13.01.39.03.58s.04.78.05,1.33c.05,2.08.21,3.54.54,4.85.07.27.19.69.25.83,0,.02-.82.03-4.16.03-4.5,0-4.33,0-4.55.13-.15.09-.32.28-.38.44-.07.19-.06.49.03.68.08.17.26.35.43.43l.13.06h10.2l.11-.05c.14-.06.33-.24.41-.38.19-.33.14-.73-.13-1.04-.33-.39-.67-1.44-.87-2.74-.15-.97-.22-1.89-.27-3.59-.05-1.69-.08-1.9-.35-2.17-.21-.22-.57-.31-.84-.23M9.87,20.21c-.27.1-.41.23-.53.49-.1.21-.09.45.02.76.33.89,1.06,1.54,2.01,1.78.18.04.27.05.64.05.39,0,.46,0,.66-.06.79-.21,1.46-.73,1.81-1.42.18-.34.23-.52.23-.77,0-.19,0-.23-.06-.35-.1-.2-.23-.34-.42-.43-.15-.07-.18-.08-.38-.08-.18,0-.24,0-.35.06-.22.1-.38.28-.47.52-.1.24-.21.43-.33.53-.41.34-.96.35-1.36.02-.16-.13-.22-.22-.35-.51-.14-.31-.24-.44-.47-.55-.2-.1-.43-.11-.64-.04" fill-rule="evenodd"/>
</svg>