<?xml version="1.0" encoding="UTF-8"?>
<svg id="Lager_1" data-name="Lager 1" xmlns="http://www.w3.org/2000/svg" viewBox="0 0 24 24">
  <path d="M9.46.97c-.24.05-.38.1-.6.22-.55.29-.94.76-1.13,1.37l-.07.21v.93s-.02.93-.02.93h-2.97c-3.22,0-3.12,0-3.33.13-.14.09-.26.23-.34.38-.06.12-.07.16-.07.37s0,.26.06.37c.08.17.26.35.43.43l.13.06h.99s.99.01.99.01v.05c0,.22,1.23,14.73,1.26,14.87.19.87.92,1.57,1.8,1.73.1.02,1.83.03,5.39.03,4.46,0,5.28,0,5.43-.03.69-.13,1.27-.58,1.59-1.24.19-.38.15.03.82-7.98.34-4.03.61-7.34.61-7.37v-.05h.99s.99-.01.99-.01l.13-.06c.17-.08.35-.26.43-.43.05-.11.06-.16.06-.37s0-.26-.07-.37c-.07-.15-.2-.29-.34-.38-.21-.13-.12-.13-3.33-.13h-2.97v-.93c-.02-.88-.02-.94-.07-1.11-.24-.78-.79-1.34-1.55-1.58l-.22-.07h-2.45c-2.02,0-2.47,0-2.6.02M9.71,2.72c-.11.06-.21.16-.25.26-.04.09-.04.17-.04.87v.77s2.59,0,2.59,0h2.59v-.77c0-.7,0-.78-.04-.87-.05-.1-.19-.24-.28-.28-.03-.01-.96-.02-2.27-.02-1.96,0-2.22,0-2.28.04M5.32,6.52c0,.08.28,3.35.61,7.28.65,7.74.6,7.24.75,7.38.15.14-.21.13,5.32.13s5.18,0,5.32-.13c.15-.14.1.36.75-7.38.33-3.93.6-7.21.61-7.28v-.14s-6.68,0-6.68,0h-6.7v.14M9.66,9.53c-.24.08-.44.25-.54.47l-.06.13v3.69q-.01,3.68.04,3.82c.06.17.25.38.42.46.36.17.77.1,1.03-.17.14-.15.2-.27.23-.46.03-.2.03-7.03,0-7.23-.05-.28-.24-.54-.5-.66-.16-.08-.46-.1-.62-.04M13.77,9.56c-.18.08-.31.18-.41.33-.16.25-.15-.05-.16,3.85,0,2.4,0,3.61.02,3.72.03.2.09.33.24.48.14.14.29.22.48.25.38.06.75-.13.93-.47l.07-.14v-7.44l-.06-.13c-.08-.17-.26-.35-.43-.43-.2-.09-.49-.1-.68-.02" fill-rule="evenodd"/>
</svg>