<?xml version="1.0" encoding="UTF-8"?>
<svg id="Lager_1" data-name="Lager 1" xmlns="http://www.w3.org/2000/svg" viewBox="0 0 24 24">
  <path d="M6.52,2.05c-.4.07-.76.26-1.06.54-.31.29-.48.57-.61.98l-.07.21v8.42c-.01,7.49,0,8.44.02,8.58.08.33.29.67.55.86.49.37,1.15.45,1.69.19.11-.05,1.13-.75,2.59-1.78l2.41-1.69,2.38,1.67c1.31.92,2.43,1.7,2.5,1.74.31.18.75.25,1.1.18.52-.11.96-.5,1.13-1.02l.05-.16v-8.4c.01-9.27.02-8.62-.14-9.01-.26-.62-.79-1.09-1.45-1.28l-.19-.05h-5.36c-4.48,0-5.39,0-5.55.03M6.78,3.8c-.12.04-.18.1-.22.21-.03.09-.04.91-.03,8.08v7.98s2.51-1.76,2.51-1.76c1.38-.97,2.57-1.79,2.64-1.83.12-.06.16-.07.36-.07s.24,0,.36.07c.07.04,1.24.84,2.59,1.79l2.46,1.73v-7.96s.01-7.96.01-7.96l-.05-.11c-.04-.08-.08-.12-.16-.16l-.11-.05h-5.14c-4.27,0-5.15,0-5.23.03" fill-rule="evenodd"/>
</svg>