<?xml version="1.0" encoding="UTF-8"?>
<svg id="Lager_1" data-name="Lager 1" xmlns="http://www.w3.org/2000/svg" viewBox="0 0 24 24">
  <path d="M2.74,1.64c-.92.09-1.67.72-1.96,1.64l-.07.22v1.7s0,1.7,0,1.7l.06.13c.08.16.25.34.42.43l.12.06h21.38l.12-.06c.17-.09.34-.27.42-.43l.06-.13v-1.7s0-1.7,0-1.7l-.07-.22c-.15-.48-.41-.87-.76-1.15-.37-.29-.76-.45-1.24-.49-.31-.03-18.18-.03-18.48,0M2.75,3.43c-.12.05-.24.19-.27.31-.02.06-.03.46-.03,1.07v.98s9.55,0,9.55,0h9.55v-.98c0-.61,0-1.01-.03-1.07-.03-.12-.15-.25-.27-.31-.09-.04-.45-.04-9.25-.04s-9.16,0-9.25.04M2.71,9.07c-.23.07-.45.27-.55.48l-.06.13v4.63c-.01,3.31,0,4.69.01,4.85.06.44.18.84.4,1.26.18.34.37.6.65.88.57.57,1.27.93,2.09,1.05.32.05,13.19.05,13.51,0,.73-.11,1.37-.4,1.92-.89.66-.57,1.1-1.41,1.21-2.3.02-.15.02-1.53.02-4.85v-4.63s-.07-.13-.07-.13c-.08-.17-.24-.34-.41-.42-.12-.06-.15-.07-.39-.07s-.27,0-.38.06c-.2.11-.36.3-.46.52-.02.04-.03,1.74-.04,4.74-.01,4.42-.02,4.69-.06,4.82-.2.65-.68,1.14-1.31,1.34l-.18.06H5.39l-.18-.06c-.64-.2-1.11-.69-1.31-1.34-.04-.14-.04-.4-.06-4.82,0-3-.02-4.7-.04-4.74-.09-.24-.26-.43-.47-.52-.11-.05-.17-.06-.35-.07-.12,0-.24,0-.28.01M9.67,9.54c-.36.06-.69.22-.98.45-.41.33-.7.89-.79,1.52-.03.24-.03,1.24,0,1.5.07.59.33,1.08.77,1.43.2.16.62.37.89.44l.2.05h4.58l.21-.07c.61-.19,1.03-.55,1.31-1.12.21-.42.26-.75.26-1.54,0-.84-.04-1.08-.24-1.5-.31-.62-.89-1.04-1.64-1.18-.29-.05-4.29-.05-4.57,0M9.94,11.29c-.24.07-.31.29-.31.96,0,.67.03.77.25.89.1.05.1.05,2.09.06,1.1,0,2.03,0,2.07,0,.11-.02.23-.14.28-.27.03-.09.04-.22.05-.62.02-.73-.02-.85-.25-.97l-.12-.06h-1.99c-1.28,0-2.02,0-2.08.02" style="fill-rule: evenodd;"/>
</svg>