<?xml version="1.0" encoding="UTF-8"?>
<svg id="Lager_1" data-name="Lager 1" xmlns="http://www.w3.org/2000/svg" viewBox="0 0 24 24">
  <path d="M10.24,1.87c-.86.09-1.64.47-2.27,1.12-.62.64-.98,1.51-1.01,2.4v.17s-2.11.01-2.11.01c-2.08.01-2.1.01-2.3.07-1.14.3-1.94,1.22-2.06,2.36-.04.37-.03,6.41,0,6.64.08.47.37.9.77,1.17.1.06.19.12.2.13.01,0,.17.92.34,2.04.17,1.12.34,2.11.36,2.21.22.82.96,1.57,1.78,1.84.44.14.02.13,8.06.13,7.96,0,7.6,0,8.02-.12.51-.15,1.05-.54,1.39-.99.17-.22.35-.6.42-.85.03-.1.19-1.09.36-2.21.17-1.12.32-2.03.34-2.04.01,0,.1-.06.2-.13.4-.27.69-.7.77-1.17.04-.24.05-6.27,0-6.64-.13-1.14-.93-2.06-2.06-2.36-.2-.05-.22-.05-2.3-.07h-2.1s0-.18,0-.18c-.03-.89-.4-1.76-1.01-2.4-.64-.66-1.4-1.03-2.3-1.12-.28-.03-3.22-.03-3.49,0M10.36,3.62c-.23.03-.41.09-.62.19-.59.3-.98.89-1.02,1.53v.2s3.28,0,3.28,0h3.3v-.2c-.07-.78-.64-1.46-1.42-1.68-.18-.05-.23-.05-1.77-.06-.87,0-1.66,0-1.74.01M2.93,7.35c-.16.05-.26.1-.41.25-.16.15-.25.34-.29.57-.01.08-.02,1.5-.02,3.16v3.01s.06.02.06.02c.04.02,1.33.02,3.58.02h3.52s.1-.31.1-.31c.26-.78.77-1.4,1.43-1.73,1.44-.74,3.1.07,3.66,1.78l.08.25h3.52c2.25,0,3.54,0,3.58-.01l.06-.02v-3.01c0-1.65-.01-3.07-.02-3.16-.03-.23-.13-.42-.29-.57-.15-.15-.25-.2-.42-.25-.17-.05-17.97-.04-18.13,0M11.82,13.83c-.15.05-.26.12-.39.27-.55.61-.52,1.78.06,2.35.16.16.3.22.52.22s.35-.06.52-.22c.49-.47.6-1.4.26-2.06-.23-.44-.62-.67-.96-.56M3.3,16.19s.13.84.28,1.78c.29,1.91.28,1.87.51,2.11.15.16.34.26.55.3.21.03,14.52.03,14.73,0,.21-.03.4-.14.55-.3.23-.24.22-.2.51-2.11.14-.94.27-1.74.28-1.78v-.07s-3.03,0-3.03,0h-3.04s-.07.23-.07.23c-.38,1.24-1.41,2.08-2.56,2.08-1,0-1.91-.62-2.39-1.63-.1-.21-.23-.57-.23-.64,0-.02-.59-.03-3.05-.03h-3.05v.07" fill-rule="evenodd"/>
</svg>