<?xml version="1.0" encoding="UTF-8"?>
<svg id="Lager_1" data-name="Lager 1" xmlns="http://www.w3.org/2000/svg" viewBox="0 0 24 24">
  <path d="M23.24,5.13c-.16-.61-.51-1.06-1.06-1.36-.19-.1-.29-.14-.57-.22-.18-.05-.22-.05-2.02-.06h-1.84s-.01-1.08-.01-1.08v-1.07s-.07-.13-.07-.13c-.08-.17-.26-.34-.43-.43-.12-.06-.16-.07-.36-.07s-.25,0-.37.06c-.26.12-.45.36-.5.64-.01.07-.02.54-.02,1.1v.97h-7.97v-.97c0-.55-.01-1.02-.02-1.1-.05-.28-.24-.52-.5-.64-.18-.08-.46-.1-.65-.03-.22.08-.41.25-.51.46l-.06.13v1.07s-.02,1.07-.02,1.07h-1.87c-1.84.03-1.88.03-2.06.08-.77.21-1.32.78-1.54,1.61l-.06.23v8.02c0,7.59,0,8.03.04,8.2.19.82.76,1.39,1.61,1.63l.24.07h9.41c8.92,0,9.42,0,9.59-.04.82-.19,1.39-.76,1.63-1.61l.07-.24V5.34l-.06-.22ZM21.54,21.18l-.05.12c-.03.07-.09.14-.14.18l-.09.06H2.82l-.12-.05c-.07-.03-.14-.09-.18-.14l-.06-.09V5.61l.06-.14c.06-.13.11-.18.23-.21.03-.01.84-.02,1.78-.02h1.72s0,.72,0,.72v.73s.08.14.08.14c.08.15.24.32.39.4.05.03.17.06.25.08.39.07.76-.13.94-.5l.07-.16v-.7s.02-.7.02-.7h7.96v.7s.02.7.02.7l.07.16c.18.37.55.57.94.5.09-.01.2-.05.25-.08.15-.07.31-.24.39-.4l.07-.14v-.73s.01-.73.01-.73h1.73s1.73.01,1.73.01l.12.06c.07.04.14.09.17.14.05.08.05.1.05,7.91v7.82Z"/>
  <path d="M17.22,10.15h1.08c.26,0,.47.21.47.47v1.08c0,.26-.21.47-.47.47h-1.08c-.26,0-.47-.21-.47-.47v-1.08c0-.26.21-.47.47-.47Z"/>
  <path d="M14.33,10.15h1.08c.26,0,.47.21.47.47v1.08c0,.26-.21.47-.47.47h-1.08c-.26,0-.47-.21-.47-.47v-1.08c0-.26.21-.47.47-.47Z"/>
  <path d="M11.44,10.15h1.08c.26,0,.47.21.47.47v1.08c0,.26-.21.47-.47.47h-1.08c-.26,0-.47-.21-.47-.47v-1.08c0-.26.21-.47.47-.47Z"/>
  <path d="M8.56,10.15h1.08c.26,0,.47.21.47.47v1.08c0,.26-.21.47-.47.47h-1.08c-.26,0-.47-.21-.47-.47v-1.08c0-.26.21-.47.47-.47Z"/>
  <path d="M17.21,13.4h1.08c.26,0,.47.21.47.47v1.08c0,.26-.21.47-.47.47h-1.08c-.26,0-.47-.21-.47-.47v-1.08c0-.26.21-.47.47-.47Z"/>
  <path d="M14.33,13.4h1.08c.26,0,.47.21.47.47v1.08c0,.26-.21.47-.47.47h-1.08c-.26,0-.47-.21-.47-.47v-1.08c0-.26.21-.47.47-.47Z"/>
  <path d="M11.44,13.4h1.08c.26,0,.47.21.47.47v1.08c0,.26-.21.47-.47.47h-1.08c-.26,0-.47-.21-.47-.47v-1.08c0-.26.21-.47.47-.47Z"/>
  <path d="M8.56,13.4h1.08c.26,0,.47.21.47.47v1.08c0,.26-.21.47-.47.47h-1.08c-.26,0-.47-.21-.47-.47v-1.08c0-.26.21-.47.47-.47Z"/>
  <path d="M5.68,13.4h1.08c.26,0,.47.21.47.47v1.08c0,.26-.21.47-.47.47h-1.08c-.26,0-.47-.21-.47-.47v-1.08c0-.26.21-.47.47-.47Z"/>
  <path d="M14.33,16.77h1.08c.26,0,.47.21.47.47v1.08c0,.26-.21.47-.47.47h-1.08c-.26,0-.47-.21-.47-.47v-1.08c0-.26.21-.47.47-.47Z"/>
  <path d="M11.44,16.77h1.08c.26,0,.47.21.47.47v1.08c0,.26-.21.47-.47.47h-1.08c-.26,0-.47-.21-.47-.47v-1.08c0-.26.21-.47.47-.47Z"/>
  <path d="M8.56,16.77h1.08c.26,0,.47.21.47.47v1.08c0,.26-.21.47-.47.47h-1.08c-.26,0-.47-.21-.47-.47v-1.08c0-.26.21-.47.47-.47Z"/>
  <path d="M5.68,16.77h1.08c.26,0,.47.21.47.47v1.08c0,.26-.21.47-.47.47h-1.08c-.26,0-.47-.21-.47-.47v-1.08c0-.26.21-.47.47-.47Z"/>
</svg>