<?xml version="1.0" encoding="UTF-8"?>
<svg id="Lager_1" data-name="Lager 1" xmlns="http://www.w3.org/2000/svg" viewBox="0 0 24 24">
  <path d="M6.85.74c-.22.08-.41.25-.51.46l-.06.13v1.07s-.02,1.07-.02,1.07h-1.85s-1.85.02-1.85.02l-.21.07c-.79.25-1.36.83-1.58,1.61l-.05.19v7.94c-.01,7.17,0,7.96.03,8.15.14.77.69,1.42,1.43,1.7.4.15-.32.14,9.84.14,8.15,0,9.26,0,9.44-.04.77-.13,1.43-.69,1.72-1.43.15-.4.14.19.14-8.54v-7.93s-.06-.19-.06-.19c-.23-.79-.79-1.37-1.58-1.62l-.21-.07h-1.85s-1.85-.02-1.85-.02v-1.07s-.02-1.07-.02-1.07l-.06-.13c-.08-.17-.26-.34-.43-.43-.12-.06-.16-.07-.36-.07s-.25,0-.37.06c-.26.12-.45.36-.5.64-.01.07-.02.54-.02,1.1v.97h-7.97v-.97c0-.55-.01-1.02-.02-1.1-.05-.28-.24-.52-.5-.64-.18-.08-.46-.1-.65-.03M2.75,5.28c-.12.05-.24.2-.27.31-.01.05-.02.75-.02,1.77v1.69s9.55,0,9.55,0h9.55v-1.69c0-1.11,0-1.72-.03-1.78-.03-.12-.2-.29-.32-.33-.07-.02-.63-.03-1.78-.03h-1.68s0,.73,0,.73v.73s-.08.14-.08.14c-.08.15-.24.32-.39.4-.05.03-.17.06-.25.08-.39.07-.76-.13-.94-.5l-.07-.16v-.7s-.02-.7-.02-.7h-7.96v.7s-.02.7-.02.7l-.07.16c-.18.37-.55.57-.94.5-.09-.01-.2-.05-.25-.08-.15-.07-.31-.24-.39-.4l-.07-.14v-.73s-.01-.73-.01-.73h-1.71c-1.61,0-1.71,0-1.81.05M2.45,15.96v5.17s.06.12.06.12c.07.14.11.18.26.25q.11.05,9.24.05h9.13s.12-.06.12-.06c.14-.07.18-.11.25-.26.05-.11.05-.13.05-5.27v-5.17s-9.55,0-9.55,0H2.45v5.17M5.89,12.53c-.41.07-.79.38-.95.76-.07.17-.09.54-.05.72.07.29.29.6.55.76.27.17.69.22,1.02.12.58-.18.94-.79.83-1.38-.05-.27-.15-.45-.33-.64-.19-.2-.43-.32-.68-.35-.19-.03-.22-.03-.39,0M11.81,12.53c-.6.09-1.04.62-1.03,1.23,0,.47.28.89.72,1.1.18.09.18.09.5.09s.32,0,.5-.09c.55-.26.82-.82.68-1.41-.09-.38-.43-.75-.8-.86-.18-.05-.41-.07-.58-.05M17.7,12.53c-.23.04-.48.17-.66.35-.19.19-.28.37-.33.64-.12.59.25,1.21.83,1.38.22.07.55.07.76,0,.39-.13.72-.49.81-.88.04-.19.02-.56-.05-.72-.22-.54-.78-.86-1.36-.77M5.81,17.41c-.42.09-.8.45-.91.86-.05.18-.05.5,0,.66.12.4.43.72.82.84.19.06.49.06.69.01.43-.11.8-.52.88-.97.07-.42-.06-.81-.39-1.11-.3-.28-.69-.38-1.1-.29M11.72,17.41c-.16.04-.25.08-.4.18-.64.44-.73,1.33-.18,1.87.25.25.51.36.86.36s.61-.11.86-.36c.38-.38.47-.92.23-1.4-.14-.27-.44-.54-.72-.63-.18-.05-.48-.06-.65-.02M17.65,17.4c-.38.07-.77.41-.9.8-.23.66.16,1.41.83,1.58.79.2,1.55-.37,1.55-1.17,0-.36-.11-.64-.36-.88-.29-.29-.7-.41-1.12-.33" fill-rule="evenodd"/>
</svg>