<?xml version="1.0" encoding="UTF-8"?>
<svg id="Lager_1" data-name="Lager 1" xmlns="http://www.w3.org/2000/svg" viewBox="0 0 24 24">
  <path d="M15.84,7.73l-5.83,7.28-2.5-1.88c-.39-.29-.94-.21-1.23.17-.29.39-.21.94.17,1.23l3.18,2.38c.16.12.34.17.52.17.26,0,.51-.11.68-.33l6.36-7.95c.3-.38.24-.93-.14-1.23s-.93-.24-1.23.14Z"/>
  <path d="M19.91,1.25H3.6c-1.57,0-2.84,1.27-2.84,2.84v16.31c0,1.57,1.27,2.84,2.84,2.84h16.31c1.57,0,2.84-1.27,2.84-2.84V4.09c0-1.57-1.27-2.84-2.84-2.84ZM21,20.4c0,.6-.49,1.09-1.09,1.09H3.6c-.6,0-1.09-.49-1.09-1.09V4.09c0-.6.49-1.09,1.09-1.09h16.31c.6,0,1.09.49,1.09,1.09v16.31Z"/>
</svg>