<?xml version="1.0" encoding="UTF-8"?>
<svg id="Lager_1" data-name="Lager 1" xmlns="http://www.w3.org/2000/svg" viewBox="0 0 24 24">
  <path d="M12,.79C5.82.79.79,5.82.79,12s5.03,11.21,11.21,11.21,11.21-5.03,11.21-11.21S18.18.79,12,.79ZM12,21.46c-5.21,0-9.46-4.24-9.46-9.46S6.79,2.54,12,2.54s9.46,4.24,9.46,9.46-4.24,9.46-9.46,9.46Z" fill="#1d1d1b"/>
  <path d="M15.93,9.16l-5.33,5.33-2.54-2.51c-.34-.34-.9-.34-1.24,0-.34.34-.34.9,0,1.24l3.16,3.12c.17.17.39.25.61.25s.45-.09.62-.26l5.94-5.94c.34-.34.34-.9,0-1.24s-.9-.34-1.24,0Z" fill="#1d1d1b"/>
</svg>