<?xml version="1.0" encoding="UTF-8"?>
<svg id="Lager_1" data-name="Lager 1" xmlns="http://www.w3.org/2000/svg" viewBox="0 0 24 24">
  <path d="M12,.79C5.82.79.79,5.82.79,12s5.03,11.21,11.21,11.21,11.21-5.03,11.21-11.21S18.18.79,12,.79ZM12,21.46c-5.21,0-9.46-4.24-9.46-9.46S6.79,2.54,12,2.54s9.46,4.24,9.46,9.46-4.24,9.46-9.46,9.46Z"/>
  <path d="M15.95,7.88l-5.83,7.28-2.5-1.88c-.39-.29-.94-.21-1.23.17-.29.39-.21.94.17,1.23l3.18,2.38c.16.12.34.17.52.17.26,0,.51-.11.68-.33l6.36-7.95c.3-.38.24-.93-.14-1.23-.38-.3-.93-.24-1.23.14Z"/>
</svg>