<?xml version="1.0" encoding="UTF-8"?>
<svg id="Lager_1" data-name="Lager 1" xmlns="http://www.w3.org/2000/svg" viewBox="0 0 24 24">
  <path d="M11.64.87c-.24.05-.47.18-.7.38-.11.1-2.43,2.41-5.15,5.13C.31,11.87.72,11.43.7,11.79c-.02.3.1.57.34.76.22.17.57.22.84.12.14-.05.31-.22,5.12-5.02,2.74-2.73,4.99-4.96,5-4.96.01,0,2.26,2.24,5,4.97,4.81,4.79,4.98,4.96,5.12,5.01.28.1.63.05.84-.12.39-.31.46-.84.16-1.23-.05-.07-2.36-2.39-5.13-5.16C12.57.76,12.85,1.02,12.48.91c-.21-.07-.62-.08-.84-.03M11.8,11.28c-.2.02-.37.08-.57.18-.14.07-.78.71-5.26,5.19C.2,22.42.71,21.87.71,22.28c0,.2,0,.23.08.38.09.19.24.34.43.42.12.05.17.06.35.06.4,0-.14.5,5.45-5.09l4.97-4.97,4.97,4.97c5.59,5.59,5.05,5.08,5.45,5.09.2,0,.23,0,.37-.08.19-.09.34-.24.42-.43.05-.12.06-.17.06-.35,0-.41.51.14-5.27-5.64-5-4.99-5.12-5.12-5.3-5.2-.29-.14-.6-.19-.92-.16" fill-rule="evenodd"/>
</svg>