<?xml version="1.0" encoding="UTF-8"?>
<svg id="Lager_1" data-name="Lager 1" xmlns="http://www.w3.org/2000/svg" viewBox="0 0 24 24">
  <path d="M12,10.45c.7,0,1.38.27,1.88.77l9.54,9.54c.66.73.6,1.84-.13,2.5-.67.61-1.7.61-2.37,0l-8.74-8.74c-.1-.09-.26-.09-.36,0L3.08,23.26c-.73.66-1.84.6-2.5-.13-.61-.67-.61-1.7,0-2.37l9.54-9.54c.5-.5,1.18-.77,1.88-.77Z"/>
  <path d="M12,.28c.7,0,1.38.26,1.88.75l9.54,9.54c.66.73.6,1.84-.13,2.5-.67.61-1.7.61-2.37,0L12.18,4.36c-.1-.1-.25-.1-.35,0,0,0,0,0,0,0L3.08,13.1c-.73.66-1.84.6-2.5-.13C-.03,12.3-.03,11.28.58,10.6L10.12,1.03c.5-.49,1.18-.76,1.88-.75Z"/>
</svg>