<?xml version="1.0" encoding="UTF-8"?>
<svg id="Lager_1" data-name="Lager 1" xmlns="http://www.w3.org/2000/svg" viewBox="0 0 24 24">
  <path d="M4.45,11.54h0c.25.01.51-.09.7-.28.38-.38.39-1.02,0-1.41l-2.75-2.79,2.75-2.73c.39-.39.39-1.03,0-1.42s-1.02-.39-1.41,0L.29,6.34c-.38.39-.39,1.02,0,1.41l3.45,3.49c.19.2.45.3.71.3Z"/>
  <path d="M12.26,11.25c.2.19.45.29.71.29h0c.25-.01.51-.11.7-.3l3.45-3.43c.38-.39.39-1.02,0-1.41l-3.45-3.5c-.38-.38-1.02-.39-1.41,0-.38.38-.39,1.02,0,1.41l2.75,2.79-2.75,2.73c-.39.39-.39,1.03,0,1.42Z"/>
  <path d="M6.82,13.71c.09.02.17.03.25.03.45,0,.85-.29.97-.74l2.93-10.96c.14-.53-.18-1.08-.71-1.22-.53-.14-1.08.18-1.22.71l-2.93,10.96c-.14.53.18,1.08.71,1.22Z"/>
  <polygon points="7.08 13.74 7.07 13.74 7.07 13.74 7.08 13.74"/>
  <path d="M21.77,3.75h-2.14c-.48,0-.88.39-.88.88s.39.88.88.88h2.14c.21,0,.37.17.37.37v15.2c0,.21-.17.37-.37.37H4.27c-.21,0-.37-.17-.37-.37v-5.27c0-.48-.39-.88-.88-.88s-.88.39-.88.88v5.27c0,1.17.95,2.12,2.12,2.12h17.5c1.17,0,2.12-.95,2.12-2.12V5.87c0-1.17-.95-2.12-2.12-2.12Z"/>
</svg>