<?xml version="1.0" encoding="UTF-8"?>
<svg id="Lager_1" data-name="Lager 1" xmlns="http://www.w3.org/2000/svg" viewBox="0 0 24 24">
  <path d="M20.82,15.35c-.15-.22-.39-.36-.66-.36-.27,0-.52.13-.66.36-.85,1.33-2.2,3.63-2.2,4.72,0,1.58,1.28,2.86,2.86,2.86,1.58,0,2.86-1.28,2.86-2.86,0-1.09-1.36-3.4-2.2-4.72Z"/>
  <path d="M20.04,12.32c-.04-.32-.18-.62-.41-.85l-6.33-6.36s0-.01-.01-.02l-1.29-1.29-.42-.43s0,0-.01-.01l-2.05-2.05c-.34-.34-.9-.34-1.24,0s-.34.9,0,1.24l.65.65c-.07.05-.14.1-.21.17l-6.49,6.49c-1.67,1.68-1.67,4.41,0,6.08l3.23,3.23c.84.84,1.94,1.26,3.05,1.26s2.21-.42,3.05-1.26l5.04-5.04,2.17-.22c.79-.09,1.36-.82,1.27-1.61ZM16.11,12.44c-.2.02-.39.11-.53.25l-.94.94H2.84c-.25-.87-.05-1.85.63-2.53l6.51-6.51c.06-.06.12-.07.17-.07.05,0,.11.01.17.07l.44.44,7.19,7.22-1.83.19Z"/>
</svg>