<?xml version="1.0" encoding="UTF-8"?>
<svg id="Lager_1" data-name="Lager 1" xmlns="http://www.w3.org/2000/svg" viewBox="0 0 24 24">
  <path d="M21.16,16.62c-.28-.14-.44-.15-1.11-.14-.33,0-.78.03-1,.04-1.3.09-2.06-.12-2.3-.63-.13-.28-.18-.67-.09-.82.07-.12.26-.32.46-.47.35-.26.56-.38,1.99-1.13,1.36-.71,2.1-1.24,2.64-1.88.61-.73.89-1.47.89-2.37,0-1.23-.57-2.57-1.78-4.18-.92-1.23-1.72-2.03-2.69-2.67-1.33-.88-2.7-1.39-4.37-1.6-.34-.04-1.2-.08-1.57-.07-2.14.07-4.15.71-5.94,1.89C3.58,4.38,1.84,7.21,1.44,10.44c-.11.92-.09,2.08.06,3.02.5,3.15,2.34,5.91,5.12,7.67,1.68,1.06,3.63,1.79,5.56,2.06.62.09.95.11,1.69.11.91,0,1.5-.06,2.21-.22,2.5-.56,4.39-2.1,5.36-4.37.2-.46.32-.83.34-1.01.05-.44-.21-.89-.62-1.09ZM19.61,18.48c-.95,1.78-2.6,2.81-4.84,3.04-.36.04-1.45.04-1.81,0-1.53-.16-2.79-.52-4.19-1.2-1.25-.61-2.13-1.23-3.01-2.13-.7-.72-1.19-1.4-1.63-2.26-.51-1.01-.81-2.01-.95-3.17-.05-.43-.06-1.48-.01-1.92.37-3.52,2.59-6.42,5.92-7.73.8-.31,1.66-.52,2.54-.61.42-.04,1.65-.03,2.01.02,1.23.18,2.23.51,3.18,1.08.88.52,1.55,1.13,2.37,2.15,1.15,1.44,1.74,2.69,1.68,3.57-.03.54-.22.91-.71,1.37-.28.27-.53.45-.99.73-.36.21-.62.35-1.73.94-1.4.74-2.03,1.26-2.37,1.96-.17.35-.21.53-.21.96,0,1.33.7,2.36,1.92,2.78.28.1.72.18,1.12.22.32.03,1.13.02,1.62-.02l.21-.02-.13.24Z"/>
  <path d="M16.49,6.38c0-1.15-.93-2.08-2.08-2.08s-2.08.93-2.08,2.08.93,2.08,2.08,2.08,2.08-.93,2.08-2.08Z"/>
  <path d="M8.45,9.94c1.15,0,2.08-.93,2.08-2.08s-.93-2.08-2.08-2.08-2.08.93-2.08,2.08.93,2.08,2.08,2.08Z"/>
  <path d="M9.66,13.23c0-1.15-.93-2.08-2.08-2.08s-2.08.93-2.08,2.08.93,2.08,2.08,2.08,2.08-.93,2.08-2.08Z"/>
  <path d="M11.05,15.65c-1.15,0-2.08.93-2.08,2.08s.93,2.08,2.08,2.08,2.08-.93,2.08-2.08-.93-2.08-2.08-2.08Z"/>
</svg>