<?xml version="1.0" encoding="UTF-8"?>
<svg id="Lager_1" data-name="Lager 1" xmlns="http://www.w3.org/2000/svg" viewBox="0 0 24 24">
  <path d="M17.44.72c-.93.11-1.84.47-2.63,1.06-.16.12-.58.52-1.31,1.25l-1.08,1.07-.98-.98c-1.12-1.12-1.11-1.11-1.48-1.12-.26-.01-.43.05-.61.21-.22.21-.32.44-.29.73.03.31.04.33,1.13,1.42l.99.99-3.24,3.25c-2.05,2.05-3.31,3.33-3.42,3.47-.46.58-.8,1.19-1.02,1.85-.18.52-.24.8-.45,2.32l-.16,1.15-.91.91c-.5.5-.94.96-.98,1.03-.39.57-.39,1.38,0,1.95.11.16,1.51,1.57,1.69,1.7.58.42,1.4.43,1.99.03.06-.04.53-.48,1.03-.98l.91-.91,1.16-.16c1.22-.17,1.6-.23,1.96-.33.77-.22,1.51-.6,2.2-1.14.14-.11,1.41-1.36,3.47-3.42l3.25-3.24.99.99c1.09,1.09,1.1,1.1,1.42,1.13.29.03.53-.07.73-.29.17-.18.23-.35.21-.61-.02-.37,0-.35-1.12-1.48l-.98-.99.98-.98c1.02-1.02,1.27-1.29,1.54-1.7.21-.31.49-.88.61-1.26.75-2.25-.11-4.75-2.09-6.06-.88-.58-1.91-.89-2.97-.88-.2,0-.44.01-.55.02M17.57,2.48c-.58.08-1.18.32-1.63.65-.1.07-.65.6-1.22,1.17l-1.04,1.04,2.49,2.49,2.49,2.49,1-1c.55-.55,1.06-1.08,1.14-1.18.24-.3.42-.63.55-.99.45-1.26.15-2.67-.78-3.64-.17-.18-.47-.42-.66-.54-.68-.42-1.54-.61-2.33-.5M9.18,9.84c-1.78,1.79-3.29,3.31-3.35,3.39-.37.5-.62,1-.78,1.6-.07.24-.12.56-.32,1.99-.15,1.09-.18,1.23-.24,1.37-.07.14-.15.24-1.05,1.13l-.98.97.63.63.63.63,1.01-1c.93-.93,1.02-1.01,1.14-1.05.09-.03.61-.12,1.57-.25.94-.13,1.53-.23,1.72-.28.63-.16,1.21-.46,1.71-.87.09-.08,1.6-1.57,3.35-3.33l3.19-3.19-2.49-2.49-2.49-2.49-3.24,3.25" fill-rule="evenodd"/>
</svg>