<?xml version="1.0" encoding="UTF-8"?>
<svg id="Lager_1" data-name="Lager 1" xmlns="http://www.w3.org/2000/svg" viewBox="0 0 24 24">
  <path d="M2.5.74c-.44.09-.8.29-1.13.62-.25.25-.4.48-.52.79-.16.41-.15-.15-.14,7.84v7.25s.06.19.06.19c.22.79.79,1.37,1.58,1.61l.21.07h1.15s1.15.03,1.15.03v1.76s.02,1.76.02,1.76l.07.13c.17.34.49.52.86.5.09,0,.21-.03.28-.06.07-.03,1.33-.96,2.82-2.08l2.7-2.03h4.92s4.92-.01,4.92-.01l.21-.07c.79-.25,1.36-.83,1.58-1.61l.05-.19v-7.24c.01-6.38,0-7.26-.02-7.45-.13-.76-.69-1.43-1.43-1.72-.41-.16.37-.15-9.86-.14-8.84,0-9.29,0-9.48.04M2.75,2.51c-.14.07-.18.11-.25.26-.05.11-.05.12-.05,7.14,0,4.49,0,7.06.02,7.12.03.12.16.26.27.31.09.04.19.04,1.56.04.88,0,1.52.01,1.59.02.3.06.55.27.67.58.03.07.04.35.05,1.38v1.3s2.08-1.55,2.08-1.55c1.14-.85,2.11-1.58,2.17-1.61.22-.13-.01-.13,5.33-.13,4.77,0,4.96,0,5.05-.05.12-.05.24-.2.27-.31.01-.05.02-2.63.02-7.12,0-7.02,0-7.03-.05-7.14-.07-.15-.11-.19-.25-.26l-.12-.06H2.87l-.12.06M5.42,7.02c-.34.14-.55.45-.55.8,0,.09.01.2.03.26.07.25.31.5.55.58.12.04.38.04,6.55.04s6.42,0,6.55-.04c.25-.09.49-.34.56-.6.05-.17.02-.44-.05-.6-.08-.17-.26-.35-.43-.43l-.13-.06h-6.47s-6.47-.01-6.47-.01l-.14.06M5.6,11.14c-.26.04-.53.24-.65.5-.06.12-.06.17-.06.37s0,.25.06.37c.12.26.39.46.67.5.2.03,9.77.03,9.97,0,.08-.01.2-.05.26-.08.14-.07.34-.26.41-.42.05-.11.06-.15.06-.37s0-.27-.06-.37c-.08-.15-.27-.35-.41-.42-.06-.03-.18-.06-.26-.08-.18-.03-9.81-.03-9.99,0" fill-rule="evenodd"/>
</svg>