<?xml version="1.0" encoding="UTF-8"?>
<svg id="Lager_1" data-name="Lager 1" xmlns="http://www.w3.org/2000/svg" viewBox="0 0 24 24">
  <path d="M23.23,2.36c-.25-.78-.81-1.35-1.59-1.59l-.21-.07h-9.35c-5.14,0-9.4,0-9.46.01-.85.14-1.56.78-1.83,1.65l-.07.21v14.66l.07.21c.22.69.74,1.28,1.34,1.51.4.15.34.15,1.59.16h1.15s.01,1.78.01,1.78v1.76s.08.13.08.13c.17.34.49.52.86.5.09,0,.21-.03.28-.06.07-.03,1.33-.96,2.82-2.08l2.7-2.03h4.92s4.92-.01,4.92-.01l.16-.05c.27-.09.41-.15.56-.24.51-.31.88-.79,1.06-1.37l.07-.21V2.57l-.07-.21ZM21.53,16.99c-.03.12-.18.28-.3.33-.09.04-.31.04-5.04.04-5.33,0-5.1,0-5.32.13-.06.03-1.03.76-2.17,1.61l-2.06,1.55v-1.3c-.02-1.03-.03-1.32-.06-1.38-.12-.3-.37-.52-.67-.58-.08-.01-.71-.02-1.58-.02-1.6,0-1.54,0-1.71-.15-.04-.04-.1-.12-.13-.17-.04-.09-.04-.33-.05-7.13,0-5.92,0-7.05.03-7.12.05-.12.17-.24.29-.3l.1-.05h9.16s9.16.01,9.16.01l.1.07c.06.04.14.12.18.18l.07.1v7.05c.01,5.08,0,7.07-.01,7.14Z"/>
  <path d="M6.92,9.31c-.48,0-.88.39-.88.88v3.69c0,.48.39.88.88.88s.88-.39.88-.88v-3.69c0-.48-.39-.88-.88-.88Z"/>
  <path d="M10.31,5.63c-.48,0-.88.39-.88.88v7.38c0,.48.39.88.88.88s.88-.39.88-.88v-7.38c0-.48-.39-.88-.88-.88Z"/>
  <path d="M13.69,7.14c-.48,0-.88.39-.88.88v5.86c0,.48.39.88.88.88s.88-.39.88-.88v-5.86c0-.48-.39-.88-.88-.88Z"/>
  <path d="M17.07,4.66c-.48,0-.88.39-.88.88v8.35c0,.48.39.88.88.88s.88-.39.88-.88V5.53c0-.48-.39-.88-.88-.88Z"/>
</svg>