<?xml version="1.0" encoding="UTF-8"?>
<svg id="Lager_1" data-name="Lager 1" xmlns="http://www.w3.org/2000/svg" viewBox="0 0 24 24">
  <path d="M1.79,12.46c.48,0,.88-.39.88-.88v-3.1c0-.48-.39-.88-.88-.88s-.88.39-.88.88v3.1c0,.48.39.88.88.88Z"/>
  <path d="M8.55,2.61h3.1c.48,0,.88-.39.88-.88s-.39-.88-.88-.88h-3.1c-.48,0-.88.39-.88.88s.39.88.88.88Z"/>
  <path d="M15.83,2.61l1.53.05v1.59c0,.48.39.88.88.88s.88-.39.88-.88v-1.59c0-.99-.81-1.8-1.8-1.8h-1.48c-.48,0-.88.39-.88.88s.39.88.88.88Z"/>
  <path d="M4.31,17.3l-1.64-.05v-1.48c0-.48-.39-.88-.88-.88s-.88.39-.88.88v1.48c0,.99.81,1.8,1.8,1.8h1.59c.48,0,.88-.39.88-.88s-.39-.88-.88-.88Z"/>
  <path d="M4.31.86h-1.59c-.99,0-1.8.81-1.8,1.8v1.59c0,.48.39.88.88.88s.88-.39.88-.88l.05-1.64h1.59c.48,0,.88-.39.88-.88s-.39-.88-.88-.88Z"/>
  <path d="M16.55,12.05l-4.51,4.52c-.34.34-.34.9,0,1.24.17.17.4.26.62.26s.45-.09.62-.26l4.51-4.52c.34-.34.34-.9,0-1.24-.34-.34-.9-.34-1.24,0Z"/>
  <path d="M15.46,18.78l-1.69,1.69c-1.22,1.21-3.19,1.21-4.41,0-1.21-1.21-1.21-3.19,0-4.41l1.69-1.69c.34-.34.34-.9,0-1.24s-.9-.34-1.24,0l-1.69,1.69c-1.9,1.9-1.9,4.98,0,6.88.95.95,2.19,1.42,3.44,1.42s2.49-.47,3.44-1.42l1.69-1.69c.34-.34.34-.9,0-1.24-.34-.34-.9-.34-1.24,0Z"/>
  <path d="M21.7,8.14c-1.9-1.9-4.98-1.9-6.88,0l-1.69,1.69c-.34.34-.34.9,0,1.24.34.34.9.34,1.24,0l1.69-1.69c1.21-1.21,3.19-1.22,4.41,0s1.21,3.19,0,4.41l-1.69,1.69c-.34.34-.34.9,0,1.24.17.17.39.26.62.26s.45-.09.62-.26l1.69-1.69c1.9-1.9,1.9-4.98,0-6.88Z"/>
</svg>