<?xml version="1.0" encoding="UTF-8"?>
<svg id="Lager_1" data-name="Lager 1" xmlns="http://www.w3.org/2000/svg" viewBox="0 0 24 24">
  <path d="M2.38.9c-.34.06-.63.22-.92.5-.32.31-.47.61-.52,1.02-.03.23-.03,1.8,0,1.99.07.45.5.77.95.72.3-.03.59-.24.71-.51.05-.11.05-.15.06-1,0-.49.01-.91.02-.94v-.05s.93,0,.93,0h.92s.15-.08.15-.08c.17-.08.35-.26.44-.44.05-.1.06-.15.06-.36s0-.26-.07-.37c-.07-.15-.2-.29-.34-.38-.19-.12-.24-.13-1.29-.12-.53,0-1.03.01-1.1.02M8.28.91c-.06.02-.17.08-.23.13-.27.2-.37.42-.36.75,0,.16.02.23.07.34.11.23.31.39.55.47.11.03.34.04,1.79.04,1.73,0,1.78,0,1.97-.1.11-.06.3-.25.36-.38.11-.23.12-.54,0-.78-.07-.15-.26-.34-.42-.41l-.14-.06h-1.74c-1.46,0-1.76,0-1.85.03M15.53.93c-.24.1-.39.24-.5.47-.05.11-.06.17-.06.35,0,.2,0,.23.08.37.09.19.24.34.43.42l.14.06h.87s.87.01.87.01v.92s.02.92.02.92l.07.16c.22.46.73.65,1.18.43.18-.09.37-.29.44-.47.05-.13.05-.17.04-1.21v-1.07s-.07-.19-.07-.19c-.17-.49-.57-.93-1.03-1.11-.28-.11-.43-.13-1.42-.13-.9,0-.92,0-1.05.06M7.18,5.93c-.56.14-1.07.6-1.26,1.14-.04.11-.08.3-.09.41-.01.13-.02,2.78-.02,7.17v6.96s.06.19.06.19c.17.58.63,1.06,1.2,1.26l.19.06h14.38l.18-.06c.27-.09.47-.21.68-.41.21-.19.38-.43.46-.65.14-.35.13.05.13-7.49,0-4.48,0-7-.02-7.1-.08-.57-.46-1.08-1-1.35-.39-.19.27-.18-7.64-.18-6.75,0-7.08,0-7.25.05M1.62,7.64c-.26.05-.5.25-.62.5l-.07.16v1.64c-.01,1.14,0,1.69.01,1.8.05.28.22.51.49.65.1.05.15.06.36.06s.26,0,.37-.06c.17-.08.35-.26.43-.43l.06-.13v-3.58l-.07-.14c-.08-.15-.24-.32-.39-.4-.09-.05-.33-.1-.43-.1-.03,0-.09.01-.15.02M7.58,14.51v6.88h6.86c6.23,0,6.86,0,6.88-.04.02-.05.02-13.63,0-13.68-.01-.03-.64-.04-6.88-.04h-6.86v6.88M1.52,14.94c-.2.07-.41.25-.51.44-.09.18-.1.36-.09,1.29.01.93.02.98.14,1.28.19.46.67.9,1.16,1.04.19.06.22.06,1.25.06h1.06l.15-.07c.17-.08.35-.26.44-.44.05-.1.06-.15.06-.36,0-.2,0-.26-.05-.35-.06-.13-.22-.32-.35-.4-.19-.12-.25-.13-1.2-.13-.49,0-.88,0-.89,0,0,0-.01-.4-.02-.88v-.88s-.08-.14-.08-.14c-.08-.17-.25-.34-.42-.42-.11-.05-.18-.06-.34-.07-.12,0-.24,0-.3.03" fill-rule="evenodd"/>
</svg>