<?xml version="1.0" encoding="UTF-8"?>
<svg id="Lager_1" data-name="Lager 1" xmlns="http://www.w3.org/2000/svg" viewBox="0 0 24 24">
  <path d="M12.21,23.28c.08-.01,2.06-.49,4.39-1.07,4.84-1.19,4.51-1.1,4.85-1.44.15-.15.22-.24.29-.39.19-.38.18.45.17-8.92V3.09s-.07-.18-.07-.18c-.17-.46-.55-.84-.99-.98-.14-.04-1.21-.2-4.46-.65-2.35-.32-4.34-.59-4.43-.59-.67,0-1.3.5-1.49,1.18-.04.14-.04.71-.05,9.95,0,6.65,0,9.87.02,10.03.01.13.05.3.08.38.14.43.51.8.94.96.13.05.5.12.58.11.01,0,.09-.01.17-.02M16.2,20.51l3.95-.98v-7.97s.01-7.97.01-7.97h-.08s-1.81-.27-3.93-.56c-2.12-.29-3.88-.53-3.91-.54h-.05s0,9.49,0,9.49c0,7.59,0,9.5.03,9.5.02,0,1.81-.44,3.98-.98M8.84,21.16c.17-.07.31-.18.41-.32.11-.16.15-.29.15-.5,0-.17,0-.22-.07-.35-.12-.25-.32-.42-.58-.49-.12-.03-.46-.04-2.3-.04-1.51,0-2.19,0-2.26-.03-.13-.03-.29-.2-.32-.32-.04-.14-.04-14.1,0-14.23.03-.13.2-.29.32-.32.07-.02.75-.03,2.26-.03,2.39,0,2.33,0,2.56-.16.15-.1.24-.21.32-.39.05-.11.06-.17.06-.33,0-.11-.02-.24-.04-.3-.09-.24-.29-.44-.54-.53-.13-.05-.16-.05-2.5-.04h-2.37s-.21.07-.21.07c-.78.24-1.33.79-1.57,1.57l-.07.21v14.71l.07.21c.25.78.79,1.33,1.57,1.57l.21.07h2.38s2.38.01,2.38.01l.14-.06M15.41,13.19c.42-.09.77-.43.9-.83.04-.14.05-.21.04-.43,0-.25-.01-.27-.11-.46-.16-.33-.43-.55-.79-.66-.19-.06-.57-.04-.75.03-.95.38-1.06,1.65-.19,2.2.24.15.61.21.9.14" fill-rule="evenodd"/>
</svg>