<?xml version="1.0" encoding="UTF-8"?>
<svg id="Lager_1" data-name="Lager 1" xmlns="http://www.w3.org/2000/svg" viewBox="0 0 24 24">
  <path d="M9.04,21.21H3.84l.05-19.11,12.1.05v5.96c0,.48.39.88.88.88s.88-.39.88-.88V2.15c0-.47-.19-.94-.53-1.27-.34-.33-.8-.53-1.27-.53H3.89c-.47,0-.94.19-1.27.53-.33.34-.53.8-.53,1.27v19.93c0,.48.39.88.88.88h6.08c.48,0,.88-.39.88-.88s-.39-.88-.88-.88Z"/>
  <path d="M6.44,10.43c-.12,0-.24.02-.34.07-.5.15-.88.6-.88,1.15s.38,1,.88,1.15c.1.04.22.07.34.07s.24-.02.34-.07c.5-.15.88-.6.88-1.15s-.38-1-.88-1.15c-.1-.04-.22-.07-.34-.07Z"/>
  <path d="M18.04,17.88c1.44-.49,2.49-1.84,2.49-3.45,0-2.02-1.64-3.66-3.66-3.66s-3.66,1.64-3.66,3.66c0,1.6,1.05,2.96,2.49,3.45-2.22.53-3.88,2.52-3.88,4.9,0,.48.39.88.88.88s.88-.39.88-.88c0-1.85,1.45-3.3,3.3-3.3s3.3,1.45,3.3,3.3c0,.48.39.88.88.88s.88-.39.88-.88c0-2.38-1.66-4.37-3.88-4.9ZM14.96,14.43c0-1.05.86-1.91,1.91-1.91s1.91.86,1.91,1.91-.86,1.91-1.91,1.91-1.91-.86-1.91-1.91Z"/>
</svg>