<?xml version="1.0" encoding="UTF-8"?>
<svg id="Lager_1" data-name="Lager 1" xmlns="http://www.w3.org/2000/svg" viewBox="0 0 24 24">
  <path d="M20.49,14.95v-.69c0-.98-.38-1.9-1.07-2.59-1.38-1.38-3.79-1.38-5.17,0-.69.69-1.07,1.61-1.07,2.59v.69c-.82.34-1.39,1.15-1.39,2.09v4.17c0,1.25,1.02,2.27,2.27,2.27h5.56c1.25,0,2.27-1.02,2.27-2.27v-4.17c0-.94-.57-1.75-1.39-2.09ZM14.93,14.26c0-.51.2-.99.56-1.35.72-.72,1.98-.72,2.69,0,.36.36.56.84.56,1.35v.52h-3.81v-.52ZM20.13,21.21c0,.28-.23.52-.52.52h-5.56c-.28,0-.52-.23-.52-.52v-4.17c0-.28.23-.52.52-.52h5.56c.28,0,.52.23.52.52v4.17Z"/>
  <circle cx="16.83" cy="19.13" r="1.22"/>
  <path d="M9.07,21.38H3.87l.05-19.11,12.1.05v5.96c0,.48.39.88.88.88s.88-.39.88-.88V2.32c0-.47-.19-.94-.53-1.27-.34-.33-.8-.53-1.27-.53H3.92c-.47,0-.94.19-1.27.53-.33.34-.53.8-.53,1.27v19.93c0,.48.39.88.88.88h6.08c.48,0,.88-.39.88-.88s-.39-.88-.88-.88Z"/>
  <path d="M6.47,10.6c-.12,0-.24.02-.34.07-.5.15-.88.6-.88,1.15s.38,1,.88,1.15c.1.04.22.07.34.07s.24-.02.34-.07c.5-.15.88-.6.88-1.15s-.38-1-.88-1.15c-.1-.04-.22-.07-.34-.07Z"/>
</svg>