<?xml version="1.0" encoding="UTF-8"?>
<svg id="Lager_1" data-name="Lager 1" xmlns="http://www.w3.org/2000/svg" viewBox="0 0 24 24">
  <path d="M11.68,3.53c-.32.13-.5.37-.55.71-.01.1-.02,1.84-.02,4.64v4.48s-1.41-1.41-1.41-1.41c-1.35-1.34-1.42-1.41-1.55-1.46-.16-.06-.44-.07-.58-.02-.14.05-.34.19-.43.3-.13.17-.19.34-.18.57.02.38-.12.22,2.35,2.69,1.69,1.68,2.22,2.2,2.3,2.24.23.11.51.11.76,0,.17-.07,4.5-4.42,4.59-4.6.07-.14.09-.43.05-.6-.06-.25-.31-.52-.56-.6-.17-.06-.43-.05-.61.02-.14.05-.21.11-1.55,1.46l-1.41,1.41v-4.49c0-2.54-.01-4.55-.02-4.64-.04-.29-.24-.55-.5-.67-.2-.09-.49-.1-.68-.02M1.4,14.61c-.26.05-.52.25-.64.5l-.06.14v1.02c0,1.15,0,1.24.18,1.76.12.34.22.55.42.86.57.86,1.47,1.44,2.52,1.6.32.05,16.02.05,16.34,0,1.35-.21,2.46-1.11,2.91-2.37.19-.53.22-.78.22-1.9,0-.91,0-.92-.06-1.05-.1-.24-.29-.43-.52-.51-.13-.05-.4-.05-.55-.01-.16.04-.35.19-.46.34-.15.22-.16.29-.16,1.22,0,.46-.01.9-.03.98-.12.71-.65,1.3-1.38,1.53-.14.04-.48.04-8.04.05-5.51,0-7.95,0-8.06-.02-.39-.06-.74-.24-1.02-.53-.28-.28-.41-.51-.52-.88-.03-.12-.04-.3-.05-1.11-.01-.93-.02-.98-.07-1.09-.1-.23-.33-.43-.54-.49-.13-.04-.31-.05-.44-.03" fill-rule="evenodd"/>
</svg>