<?xml version="1.0" encoding="UTF-8"?>
<svg id="Lager_1" data-name="Lager 1" xmlns="http://www.w3.org/2000/svg" viewBox="0 0 24 24">
  <path d="M14.17,18.08c0-1.2-.97-2.17-2.17-2.17s-2.17.97-2.17,2.17.97,2.17,2.17,2.17,2.17-.97,2.17-2.17Z" fill-rule="evenodd"/>
  <path d="M14.17,12c0-1.2-.97-2.17-2.17-2.17s-2.17.97-2.17,2.17.97,2.17,2.17,2.17,2.17-.97,2.17-2.17Z" fill-rule="evenodd"/>
  <path d="M14.17,5.92c0-1.2-.97-2.17-2.17-2.17s-2.17.97-2.17,2.17.97,2.17,2.17,2.17,2.17-.97,2.17-2.17Z" fill-rule="evenodd"/>
</svg>