<?xml version="1.0" encoding="UTF-8"?>
<svg id="Lager_1" data-name="Lager 1" xmlns="http://www.w3.org/2000/svg" viewBox="0 0 24 24">
  <path d="M7.95,19.26s0,0,0-.01h-.06s0,0-.01,0h-1.41s0,0-.01,0h-3.47c-.69,0-1.25-.56-1.25-1.25V3c0-.69.56-1.25,1.25-1.25h9.53c.34,0,.66.14.9.38l4.74,4.91c.23.23.35.54.35.87v.35s0,.01,0,.02v.71c0,.48.39.88.88.88s.88-.39.88-.88v-.41s0,0,0,0v-.67c0-.78-.3-1.53-.84-2.08L14.69.92c-.57-.58-1.34-.92-2.16-.92H3C1.34,0,0,1.34,0,3v15c0,1.66,1.34,3,3,3h4.75s0,0,0,0h.13c.48,0,.88-.39.88-.88s-.36-.83-.81-.86Z"/>
  <path d="M22.94,14.03c-.29-.43-.47-.65-.82-1.01-1.3-1.31-3.05-1.98-4.92-1.88-1.27.07-2.47.51-3.51,1.28-.37.27-.99.89-1.26,1.26-.7.94-1.11,1.96-1.25,3.11-.05.37-.05,1.09-.01,1.46.15,1.46.81,2.83,1.86,3.86.36.36.58.53,1.01.82,1.1.74,2.4,1.1,3.76,1.05.68-.02,1.19-.11,1.82-.33,1.92-.64,3.42-2.14,4.06-4.06.21-.63.3-1.15.33-1.82.04-1.36-.32-2.66-1.05-3.76ZM21.77,19.63c-1.14,2.33-3.96,3.29-6.28,2.13-.51-.25-.87-.52-1.29-.95-.72-.74-1.15-1.65-1.28-2.68-.04-.29-.03-.91.01-1.2.14-1.02.6-1.93,1.33-2.66s1.64-1.18,2.64-1.33c.28-.04.95-.05,1.22-.01,1.03.13,1.95.56,2.68,1.28.43.42.7.78.95,1.29.65,1.31.66,2.82.01,4.14Z"/>
  <path d="M20.74,16.78c-.16-.08-.34-.1-1.33-.1h-.97v-1.07s-.01-1.07-.01-1.07l-.06-.12c-.09-.17-.3-.38-.46-.44-.16-.06-.33-.08-.49-.05-.27.04-.52.25-.65.51l-.07.14v1.05s-.02,1.05-.02,1.05h-1.05s-1.05.02-1.05.02l-.14.07c-.17.08-.35.25-.43.4-.12.23-.12.53-.01.78.06.14.27.34.42.42l.12.06h1.07s1.07.01,1.07.01v.97c0,.99.01,1.17.1,1.33.08.16.24.31.4.39.15.07.18.08.39.08.2,0,.25,0,.36-.06.17-.08.35-.26.43-.43l.06-.13v-1.07s.02-1.07.02-1.07h1.07s1.07-.02,1.07-.02l.13-.06c.17-.08.35-.26.43-.43.05-.11.06-.16.06-.36,0-.21,0-.24-.08-.39-.08-.17-.23-.32-.39-.4Z"/>
</svg>