<?xml version="1.0" encoding="UTF-8"?>
<svg id="Lager_1" data-name="Lager 1" xmlns="http://www.w3.org/2000/svg" viewBox="0 0 24 24">
  <path d="M22.43,3.98H1.57c-.48,0-.88.39-.88.88s.39.88.88.88h20.86c.48,0,.88-.39.88-.88s-.39-.88-.88-.88Z"/>
  <path d="M20.21,8.74H3.79c-.48,0-.88.39-.88.88s.39.88.88.88h16.42c.48,0,.88-.39.88-.88s-.39-.88-.88-.88Z"/>
  <path d="M15.04,18.27h-6.08c-.48,0-.88.39-.88.88s.39.88.88.88h6.08c.48,0,.88-.39.88-.88s-.39-.88-.88-.88Z"/>
  <path d="M17.99,13.51H6.01c-.48,0-.88.39-.88.88s.39.88.88.88h11.97c.48,0,.88-.39.88-.88s-.39-.88-.88-.88Z"/>
</svg>