<?xml version="1.0" encoding="UTF-8"?>
<svg id="Lager_1" data-name="Lager 1" xmlns="http://www.w3.org/2000/svg" viewBox="0 0 24 24">
  <path d="M2.96.74C1.8.93.92,1.82.73,2.99c-.06.4-.04.85.06,1.26.06.23.25.62.41.83.07.09,1.72,1.77,3.68,3.73l3.56,3.56v5.14s.01,5.14.01,5.14l.08.16c.09.19.24.34.43.42.12.05.17.06.35.06.41,0,.16.21,3.28-2.83,1.54-1.5,2.78-2.73,2.82-2.79.14-.22.14-.14.14-2.83v-2.47s3.58-3.59,3.58-3.59c3.86-3.86,3.73-3.72,3.94-4.19.15-.32.23-.72.23-1.15,0-1.38-.94-2.5-2.29-2.72-.19-.03-1.34-.04-9.04-.03-7.3,0-8.85,0-9.01.03M3.22,2.48c-.49.1-.8.55-.76,1.1.03.36-.28.03,3.86,4.17,3.34,3.34,3.74,3.76,3.81,3.89l.07.14v4.28s.02,4.28.02,4.28l1.79-1.75,1.79-1.75v-2.53s.01-2.53.01-2.53l.07-.14c.06-.13.47-.55,3.81-3.89,4.25-4.25,3.85-3.82,3.85-4.27,0-.22-.01-.29-.06-.4-.1-.26-.29-.44-.55-.55l-.14-.06h-8.74c-4.97,0-8.78,0-8.84.01" fill-rule="evenodd"/>
</svg>