<?xml version="1.0" encoding="UTF-8"?>
<svg id="Lager_1" data-name="Lager 1" xmlns="http://www.w3.org/2000/svg" viewBox="0 0 24 24">
  <path d="M21.42,1.16H2.58C1.16,1.16,0,2.32,0,3.74v16.53c0,1.42,1.16,2.58,2.58,2.58h18.85c1.42,0,2.58-1.16,2.58-2.58V3.74c0-1.42-1.16-2.58-2.58-2.58ZM22.25,20.26c0,.45-.37.82-.82.82H2.58c-.45,0-.82-.37-.82-.82V3.74c0-.45.37-.82.82-.82h18.85c.45,0,.82.37.82.82v16.53Z"/>
  <path d="M9.61,13.55c-.14-.09-.32-.14-.53-.14h-1.45c-.14,0-.27.01-.37.04-.1.02-.18.1-.23.23-.05.13-.08.35-.08.66s.02.53.06.66.11.21.2.23c.1.03.22.04.37.04h.24v1.1c-.08.02-.15.03-.22.05-.06.02-.13.03-.2.03-.07,0-.15,0-.25,0-.24,0-.44-.09-.59-.28-.16-.19-.27-.45-.35-.77-.08-.33-.12-.71-.12-1.14s.04-.77.11-1.07c.07-.3.19-.54.35-.71.16-.18.36-.26.59-.26.13,0,.24.02.34.05.1.03.2.07.29.12s.19.1.28.17c.15.08.28.15.4.2s.2.08.26.08c.14,0,.28-.06.44-.17s.31-.27.44-.47c.08-.12.15-.24.2-.37.05-.12.08-.23.08-.31,0-.13-.06-.27-.19-.41-.12-.15-.29-.29-.49-.43-.2-.14-.43-.25-.68-.35s-.5-.17-.74-.23c-.24-.06-.43-.08-.58-.08-.51,0-.97.1-1.38.31s-.76.49-1.04.87-.51.82-.65,1.34c-.15.52-.22,1.09-.22,1.71,0,.66.07,1.26.22,1.8.14.54.36,1.01.64,1.4.28.39.62.7,1.02.91.4.22.84.32,1.34.32.21,0,.42-.02.63-.06s.42-.1.63-.17c.21-.07.4-.15.58-.24.32-.16.58-.36.77-.6s.29-.47.29-.7v-2.46c0-.19-.03-.37-.1-.53-.07-.16-.17-.28-.31-.37Z"/>
  <path d="M13.32,10.31c-.15-.11-.41-.16-.78-.16s-.63.05-.78.16c-.15.11-.24.25-.28.41s-.05.34-.05.52v6.2c0,.18.02.35.05.52s.12.31.28.42c.15.11.41.16.77.16s.63-.05.78-.16c.15-.11.24-.25.28-.41.03-.17.05-.34.05-.52v-6.2c0-.18-.01-.36-.04-.53-.03-.17-.12-.31-.27-.41Z"/>
  <path d="M19.54,10.2c-.16-.03-.34-.05-.52-.05h-2.78c-.42,0-.72.08-.88.23-.16.16-.25.44-.25.86v6.2c0,.18.02.35.05.52s.12.31.28.42c.15.11.41.16.77.16s.63-.05.78-.16c.15-.11.24-.25.28-.41.03-.17.05-.34.05-.52v-2.17h.78c.18,0,.35-.01.5-.04.15-.02.27-.1.35-.23s.13-.34.13-.65-.04-.55-.13-.68-.2-.21-.35-.24c-.15-.03-.31-.04-.5-.04h-.79v-1.07h1.69c.18,0,.36-.02.53-.05.17-.03.31-.12.41-.28.11-.15.16-.41.16-.77s-.05-.63-.16-.78c-.1-.15-.24-.24-.4-.28Z"/>
</svg>