<?xml version="1.0" encoding="UTF-8"?>
<svg id="Lager_1" data-name="Lager 1" xmlns="http://www.w3.org/2000/svg" viewBox="0 0 24 24">
  <path d="M15.32,8.85l-.13.38s0,0,0,0v.03c-.16.46.08.95.54,1.11.09.03.18.04.28.04.37,0,.71-.23.83-.6l.32-.97h5.16c.48,0,.88-.39.88-.88s-.39-.88-.88-.88h-4.58l.69-2.07h0s1.24-3.73,1.24-3.73c.15-.46-.09-.95-.55-1.11-.46-.15-.95.09-1.11.55l-2.12,6.35h-5.11l1.93-5.8c.15-.46-.09-.95-.55-1.11-.46-.15-.95.09-1.11.55l-2.12,6.35h-4.7c-.48,0-.88.39-.88.88s.39.88.88.88h4.12l-2.2,6.59H1.47c-.48,0-.88.39-.88.88s.39.88.88.88h4.12l-1.47,4.41c-.15.46.09.95.55,1.11.09.03.18.04.28.04.37,0,.71-.23.83-.6l1.65-4.96h1.74c.48,0,.88-.39.88-.88s-.39-.88-.88-.88h-1.16l2.2-6.59h5.11Z"/>
  <path d="M22.94,14.03c-.29-.43-.47-.65-.82-1.01-1.3-1.31-3.05-1.98-4.92-1.88-1.27.07-2.47.51-3.51,1.28-.37.27-.99.89-1.26,1.26-.7.94-1.11,1.96-1.25,3.11-.05.37-.05,1.09-.01,1.46.15,1.46.81,2.83,1.86,3.86.36.36.58.53,1.01.82,1.1.74,2.4,1.1,3.76,1.05.68-.02,1.19-.11,1.82-.33,1.92-.64,3.42-2.14,4.06-4.06.21-.63.3-1.15.33-1.82.04-1.36-.32-2.66-1.05-3.76ZM21.77,19.63c-1.14,2.33-3.96,3.29-6.28,2.13-.51-.25-.87-.52-1.29-.95-.72-.74-1.15-1.65-1.28-2.68-.04-.29-.03-.91.01-1.2.14-1.02.6-1.93,1.33-2.66s1.64-1.18,2.64-1.33c.28-.04.95-.05,1.22-.01,1.03.13,1.95.56,2.68,1.28.43.42.7.78.95,1.29.65,1.31.66,2.82.01,4.14Z"/>
  <path d="M20.74,16.78c-.16-.08-.34-.1-1.33-.1h-.97v-1.07s-.01-1.07-.01-1.07l-.06-.12c-.09-.17-.3-.38-.46-.44-.16-.06-.33-.08-.49-.05-.27.04-.52.25-.65.51l-.07.14v1.05s-.02,1.05-.02,1.05h-1.05s-1.05.02-1.05.02l-.14.07c-.17.08-.35.25-.43.4-.12.23-.12.53-.01.78.06.14.27.34.42.42l.12.06h1.07s1.07.01,1.07.01v.97c0,.99.01,1.17.1,1.33.08.16.24.31.4.39.15.07.18.08.39.08.2,0,.25,0,.36-.06.17-.08.35-.26.43-.43l.06-.13v-1.07s.02-1.07.02-1.07h1.07s1.07-.02,1.07-.02l.13-.06c.17-.08.35-.26.43-.43.05-.11.06-.16.06-.36,0-.21,0-.24-.08-.39-.08-.17-.23-.32-.39-.4Z"/>
</svg>