<?xml version="1.0" encoding="UTF-8"?>
<svg id="Lager_1" data-name="Lager 1" xmlns="http://www.w3.org/2000/svg" viewBox="0 0 24 24">
  <path d="M11.71.74c-.24.1-.38.22-.48.42-.03.05-.53,1.53-1.11,3.28l-1.06,3.18h-2.45s-2.45.02-2.45.02l-.16.08c-.2.09-.36.25-.45.44-.06.12-.06.17-.06.36s0,.25.06.37c.12.26.37.45.66.5.08.01.99.02,2.19.02,1.13,0,2.05,0,2.05.02s-.49,1.49-1.09,3.28l-1.09,3.26h-2.46s-2.46.02-2.46.02l-.13.06c-.2.09-.35.24-.44.42-.07.15-.08.18-.08.39s0,.24.07.36c.08.17.26.34.43.43l.13.07h2.17c1.68.01,2.17.02,2.17.04,0,.02-.34,1.04-.75,2.27l-.75,2.24v.19c.03.38.25.66.61.78.42.14.89-.07,1.07-.47.03-.07.42-1.23.87-2.59l.82-2.47h2.54c1.4,0,2.54,0,2.54.02s-.34,1.03-.75,2.26c-.72,2.15-.75,2.25-.75,2.43,0,.17,0,.2.09.37.1.2.21.32.42.42.12.06.16.07.36.07.2,0,.24,0,.36-.07.18-.09.31-.21.39-.35.04-.07.44-1.25.9-2.62l.83-2.5h2.7s2.7-.02,2.7-.02l.13-.06c.17-.08.35-.26.43-.43.05-.11.06-.16.06-.37s0-.26-.06-.36c-.09-.19-.25-.34-.43-.43l-.16-.08h-2.39s-2.39-.01-2.39-.01l1.1-3.29,1.1-3.29h2.58c1.52,0,2.64,0,2.72-.02.28-.05.54-.24.66-.5.06-.12.06-.17.06-.37s0-.25-.06-.36c-.08-.16-.25-.34-.41-.42-.06-.03-.19-.07-.28-.08-.1-.01-1.07-.02-2.42-.02h-2.26s.98-2.95.98-2.95l.98-2.95v-.21c-.02-.16-.03-.23-.08-.34-.09-.18-.24-.33-.41-.41-.13-.06-.17-.07-.38-.07-.22,0-.25,0-.37.07-.16.09-.29.2-.37.33-.04.07-.46,1.28-1.14,3.32l-1.07,3.21h-2.54c-1.4,0-2.54,0-2.54-.02s.44-1.33.97-2.94c.94-2.81.97-2.93.98-3.11,0-.16,0-.21-.07-.34-.1-.21-.22-.34-.41-.43-.13-.07-.19-.08-.36-.08-.16,0-.23,0-.32.04M10.31,9.44c-.04.11-2.17,6.51-2.17,6.53,0,0,1.14.02,2.54.02h2.54l1.09-3.26c.6-1.79,1.09-3.27,1.1-3.29,0-.02-.51-.03-2.54-.03s-2.55,0-2.56.03" fill-rule="evenodd"/>
</svg>