<?xml version="1.0" encoding="UTF-8"?>
<svg id="Lager_1" data-name="Lager 1" xmlns="http://www.w3.org/2000/svg" viewBox="0 0 24 24">
  <path d="M22.43,7.02h-3.71l1.66-4.98c.26-.79-.16-1.64-.95-1.9-.79-.27-1.64.16-1.9.95l-1.98,5.93h-3.79l1.66-4.98c.26-.79-.16-1.64-.95-1.9-.79-.27-1.64.16-1.9.95l-1.98,5.93h-4.25c-.83,0-1.5.67-1.5,1.5s.67,1.5,1.5,1.5h3.25l-1.78,5.34H1.57c-.83,0-1.5.67-1.5,1.5s.67,1.5,1.5,1.5h3.25l-1.2,3.59c-.26.79.16,1.64.95,1.9.16.05.32.08.47.08.63,0,1.21-.4,1.42-1.03l1.51-4.54h3.79l-1.2,3.59c-.26.79.16,1.64.95,1.9.16.05.32.08.47.08.63,0,1.21-.4,1.42-1.03l1.51-4.54h4.71c.83,0,1.5-.67,1.5-1.5s-.67-1.5-1.5-1.5h-3.71l1.78-5.34h4.71c.83,0,1.5-.67,1.5-1.5s-.67-1.5-1.5-1.5ZM12.77,15.37h-3.79l1.78-5.34h3.79l-1.78,5.34Z"/>
</svg>