<?xml version="1.0" encoding="UTF-8"?>
<svg id="Lager_1" data-name="Lager 1" xmlns="http://www.w3.org/2000/svg" viewBox="0 0 24 24">
  <path d="M23.15,22.36l-2.78-2.78c.23-.32.43-.67.58-1.05.52-1.28.5-2.69-.04-3.97-1.12-2.63-4.17-3.86-6.8-2.74-1.28.54-2.26,1.55-2.78,2.83-.52,1.29-.51,2.69.04,3.97.84,1.97,2.76,3.16,4.78,3.16.67,0,1.36-.13,2.02-.41.34-.15.66-.33.96-.54l2.78,2.78c.17.17.4.26.62.26s.45-.08.62-.26c.34-.34.34-.9,0-1.24ZM17.48,19.75c-1.75.74-3.76-.08-4.5-1.82-.36-.84-.37-1.78-.02-2.63.34-.85,1-1.52,1.84-1.88.43-.18.89-.28,1.34-.28s.87.08,1.29.25c.85.34,1.52,1,1.88,1.84.74,1.74-.07,3.76-1.82,4.5Z"/>
  <path d="M9.18,15.44h-1.16l2.2-6.59h5.11l-.13.38s0,0,0,0v.03c-.16.46.08.95.54,1.11.09.03.18.04.28.04.37,0,.71-.23.83-.6l.32-.97h5.16c.48,0,.88-.39.88-.88s-.39-.88-.88-.88h-4.58l.69-2.07h0s1.24-3.73,1.24-3.73c.15-.46-.09-.95-.55-1.11-.46-.15-.95.09-1.11.55l-2.12,6.35h-5.11l1.93-5.8c.15-.46-.09-.95-.55-1.11-.46-.15-.95.09-1.11.55l-2.12,6.35h-4.7c-.48,0-.88.39-.88.88s.39.88.88.88h4.12l-2.2,6.59H1.47c-.48,0-.88.39-.88.88s.39.88.88.88h4.12l-1.47,4.41c-.15.46.09.95.55,1.11.09.03.18.04.28.04.37,0,.71-.23.83-.6l1.65-4.96h1.74c.48,0,.88-.39.88-.88s-.39-.88-.88-.88Z"/>
</svg>