<?xml version="1.0" encoding="UTF-8"?>
<svg id="Lager_1" data-name="Lager 1" xmlns="http://www.w3.org/2000/svg" viewBox="0 0 24 24">
  <path d="M6.85,2.61c-.81.1-1.67.37-2.36.76-1.07.59-1.95,1.46-2.56,2.52-.43.75-.74,1.71-.82,2.59-.04.39-.02,1.26.04,1.6.1.67.3,1.3.6,1.91.32.66.71,1.21,1.21,1.72.33.33,7.83,7.27,7.99,7.39.3.22.65.33,1.06.33s.75-.11,1.06-.34c.15-.11,7.62-7.02,7.97-7.37.81-.81,1.43-1.9,1.7-3,.16-.65.21-1.09.19-1.8-.02-.7-.1-1.2-.29-1.79-.34-1.04-.85-1.88-1.62-2.65-.78-.78-1.57-1.26-2.61-1.61-.97-.32-2.09-.4-3.12-.22-1.13.19-2.26.72-3.13,1.46l-.14.12-.14-.12c-.39-.33-.84-.62-1.34-.87-.74-.36-1.43-.56-2.24-.65-.32-.03-1.11-.03-1.43.01M6.98,4.36c-2.19.3-3.88,2.04-4.13,4.26-.04.32-.02.99.04,1.3.16.91.59,1.79,1.18,2.42.19.21,7.9,7.35,7.93,7.35.03,0,7.75-7.15,7.94-7.36.31-.34.54-.69.77-1.16.34-.71.48-1.41.45-2.22-.02-.61-.12-1.06-.34-1.61-.35-.87-.91-1.58-1.69-2.13-1.38-.99-3.26-1.15-4.81-.41-.6.29-.91.51-1.43,1.04-.49.5-.54.53-.9.53-.36,0-.41-.03-.83-.46-.18-.19-.42-.41-.52-.49-.71-.57-1.62-.95-2.5-1.05-.31-.03-.86-.03-1.17.01" fill-rule="evenodd"/>
</svg>