<?xml version="1.0" encoding="UTF-8"?>
<svg id="Lager_1" data-name="Lager 1" xmlns="http://www.w3.org/2000/svg" viewBox="0 0 24 24">
  <path d="M23.32,12.29c-.02-.08-.04-.19-.2-.37-.02-.03-.04-.06-.07-.08-.42-.49-1.57-1.62-4.66-4.71-2.63-2.63-4.86-4.85-4.97-4.94-.23-.19-.59-.37-.88-.44-.29-.07-.71-.08-.99-.02-.44.1-.77.27-1.12.59-.38.34-8.47,8.45-9.5,9.52-.03.03-.06.06-.09.1,0,0-.02.02-.02.02,0,0,0,.02-.01.02-.11.15-.18.32-.18.51,0,.48.39.87.86.87h1.48c.28,0,.5.22.5.5v7.59c0,.48.39.88.88.88h5.07c.48,0,.88-.39.88-.88v-5.18c0-.48.39-.88.88-.88h1.65c.48,0,.88.39.88.88v5.18c0,.48.39.88.88.88h5.07c.48,0,.88-.39.88-.88v-7.33h0v-.27c0-.28.22-.5.5-.5h1.52c.45-.04.8-.4.8-.86,0-.07,0-.08-.02-.19Z"/>
</svg>