<?xml version="1.0" encoding="UTF-8"?>
<svg id="Lager_1" data-name="Lager 1" xmlns="http://www.w3.org/2000/svg" viewBox="0 0 24 24">
  <path d="M18.4,7.13c-2.63-2.63-4.86-4.85-4.97-4.94-.23-.19-.59-.37-.88-.44-.29-.07-.71-.08-.99-.02-.44.1-.77.27-1.12.59-.41.36-9.54,9.53-9.61,9.64-.16.26-.17.61-.03.88.06.11.25.3.38.36.23.11.54.12.78,0,.09-.04,1.16-1.1,4.92-4.86,2.65-2.64,4.84-4.82,4.88-4.84.12-.06.24-.07.37-.04.11.03.4.31,4.95,4.86,4.62,4.62,4.84,4.83,4.99,4.9.37.16.83.04,1.06-.28.12-.17.17-.34.16-.56-.02-.38.43.1-4.9-5.24Z" fill-rule="evenodd"/>
  <path d="M19.64,12.93c-.48,0-.88.39-.88.88v6.76h-3.82v-4.9s0-.03,0-.05c0-.03,0-.06,0-.09,0-1.1-.9-2-2-2h-1.89c-1.1,0-2,.9-2,2,0,.02,0,.04,0,.05,0,.03-.02.05-.02.08v4.9h-3.82v-6.76c0-.48-.39-.88-.88-.88s-.88.39-.88.88v7.63c0,.48.39.88.88.88h5.57c.48,0,.88-.39.88-.88v-5.18c0-.48.39-.88.88-.88h.65c.48,0,.88.39.88.88v5.18c0,.48.39.88.88.88h5.57c.48,0,.88-.39.88-.88v-7.63c0-.48-.39-.88-.88-.88Z" fill-rule="evenodd"/>
</svg>