<?xml version="1.0" encoding="UTF-8"?>
<svg id="Lager_1" data-name="Lager 1" xmlns="http://www.w3.org/2000/svg" viewBox="0 0 24 24">
  <path d="M11.13.75c-2.7.21-5.19,1.36-7.1,3.28-1.38,1.38-2.36,3.04-2.88,4.9-.45,1.58-.54,3.3-.27,4.93.42,2.56,1.73,4.91,3.7,6.63,1.76,1.54,3.84,2.46,6.22,2.74.51.06,1.91.06,2.42,0,2.64-.31,4.94-1.42,6.77-3.25,1.83-1.84,2.93-4.13,3.24-6.76.06-.51.06-1.91,0-2.42-.31-2.64-1.41-4.93-3.25-6.77-1.93-1.93-4.41-3.07-7.15-3.28-.35-.03-1.35-.03-1.71,0M11.4,2.49c-.05,0-.22.02-.37.04-.15.01-.43.05-.62.09-2.13.36-4.08,1.45-5.52,3.07-1.33,1.5-2.13,3.33-2.36,5.35-.04.38-.04,1.56,0,1.94.22,2.03,1.03,3.85,2.36,5.35,1.56,1.76,3.66,2.85,6.06,3.15.47.06,1.66.06,2.14,0,2.4-.3,4.49-1.38,6.05-3.14,1.32-1.49,2.11-3.24,2.36-5.27.06-.47.06-1.66,0-2.14-.33-2.63-1.6-4.88-3.65-6.48-1.33-1.03-2.98-1.71-4.72-1.92-.28-.04-1.49-.07-1.72-.05M11.37,6.37c-.2.03-.35.08-.51.19-.55.35-.75,1.05-.47,1.63.11.23.36.49.59.6.73.37,1.64-.06,1.83-.86.04-.19.02-.56-.05-.74-.21-.56-.79-.91-1.38-.82M10.19,9.58c-.26.04-.53.24-.66.49-.05.1-.06.15-.06.37,0,.3.05.42.24.61.23.23.4.27,1,.27h.35v4.73h-.43c-.46,0-.6.02-.77.13-.27.17-.4.4-.41.71-.01.33.09.55.36.75.22.17.17.16,2.18.16s1.96,0,2.18-.16c.26-.2.37-.42.36-.75-.01-.32-.15-.55-.41-.71-.17-.1-.3-.12-.82-.12h-.49v-2.51c0-2.72,0-2.68-.13-2.98-.18-.41-.6-.79-1.02-.93-.09-.03-.25-.06-.36-.07-.24-.03-.94-.02-1.12,0" fill-rule="evenodd"/>
</svg>