<?xml version="1.0" encoding="UTF-8"?>
<svg id="Lager_1" data-name="Lager 1" xmlns="http://www.w3.org/2000/svg" viewBox="0 0 24 24">
  <path d="M.7,4.58v14.83c0,1.04.76,1.8,1.8,1.8h19.01c1.04,0,1.8-.76,1.8-1.8V4.58c0-1.04-.76-1.8-1.8-1.8H2.5c-1.04,0-1.8.76-1.8,1.8ZM10.33,19.45V4.56s11.18-.03,11.18-.03l.05,14.89-11.23.03ZM2.45,4.58l6.13-.02v14.89s-6.08.02-6.08.02l-.05-.05V4.58Z"/>
  <path d="M6.95,7.96h-2.78c-.48,0-.87-.39-.87-.88s.39-.87.88-.87h2.78c.48,0,.87.39.87.88s-.39.87-.88.87Z"/>
  <path d="M6.95,11.02h-2.78c-.48,0-.87-.39-.87-.88s.39-.87.88-.87h2.78c.48,0,.87.39.87.88s-.39.87-.88.87Z"/>
  <path d="M4.17,12.24h2.78c.48,0,.87.39.87.88s-.39.87-.88.87h-2.78c-.48,0-.87-.39-.87-.88s.39-.87.88-.87Z"/>
</svg>