<?xml version="1.0" encoding="UTF-8"?>
<svg id="Lager_1" data-name="Lager 1" xmlns="http://www.w3.org/2000/svg" viewBox="0 0 24 24">
  <path d="M14.81,7.95l-6.86,6.86c-.34.34-.34.9,0,1.24.34.34.9.34,1.24,0l6.86-6.86c.34-.34.34-.9,0-1.24-.34-.34-.9-.34-1.24,0Z" fill-rule="evenodd"/>
  <path d="M13.16,18.18l-2.57,2.57c-2.03,2.03-5.31,2.03-7.33,0-2.03-2.03-2.03-5.31,0-7.33l2.57-2.57c.34-.34.34-.9,0-1.24-.34-.34-.9-.34-1.24,0l-2.57,2.57c-2.71,2.71-2.71,7.1,0,9.81,2.71,2.71,7.1,2.71,9.81,0l2.57-2.57c.34-.34.34-.9,0-1.24s-.9-.34-1.24,0Z" fill-rule="evenodd"/>
  <path d="M21.99,2.01h0c-2.71-2.71-7.1-2.71-9.81,0h0s-2.57,2.57-2.57,2.57c-.34.34-.34.9,0,1.24s.9.34,1.24,0l2.57-2.57c2.03-2.03,5.31-2.03,7.33,0,2.03,2.03,2.03,5.31,0,7.33l-2.57,2.57c-.34.34-.34.9,0,1.24.34.34.9.34,1.24,0l2.57-2.57c2.71-2.71,2.71-7.1,0-9.81Z" fill-rule="evenodd"/>
</svg>