<?xml version="1.0" encoding="UTF-8"?>
<svg id="Lager_1" data-name="Lager 1" xmlns="http://www.w3.org/2000/svg" viewBox="0 0 24 24">
  <path d="M9.91,2.09h-4.17c-.61,0-1.17.24-1.6.66-.42.42-.66,1.01-.66,1.6v1.39c0,.48.39.88.88.88s.88-.39.88-.88v-1.39c0-.14.05-.27.15-.36.1-.1.23-.15.36-.15h4.17c.48,0,.88-.39.88-.88s-.39-.88-.88-.88Z"/>
  <path d="M9.91,18.78h-4.17c-.14,0-.27-.05-.36-.15-.1-.1-.15-.23-.15-.36v-1.39c0-.48-.39-.88-.88-.88s-.88.39-.88.88v1.39c0,.61.24,1.17.66,1.6.43.43,1,.66,1.6.66h4.17c.48,0,.88-.39.88-.88s-.39-.88-.88-.88Z"/>
  <path d="M22.93,2.4c-.25-.29-.59-.48-.97-.53L13.62.72c-.22-.03-.45-.02-.66.04-.22.06-.42.17-.59.31-.17.15-.31.33-.41.53-.1.21-.15.43-.15.66v19.48c0,.23.06.46.16.67.1.21.25.4.43.54.18.15.4.26.63.31.11.03.23.04.35.04s.24-.01.37-.04l8.32-2.05c.34-.08.66-.27.88-.54.22-.27.35-.62.36-.98V3.44c0-.38-.13-.75-.38-1.04ZM21.55,19.53l-7.98,1.97-.02-19.02,8,1.1v15.95Z"/>
  <path d="M5.82,13.47c-.34.34-.34.9,0,1.24.17.17.4.26.62.26s.45-.08.62-.26l2.78-2.78c.08-.08.13-.17.17-.26.01-.03.02-.06.03-.08.02-.07.04-.14.04-.22,0-.03,0-.06,0-.09,0-.1-.02-.19-.05-.28,0,0,0-.01,0-.02,0,0,0,0,0,0-.04-.1-.1-.18-.17-.26,0,0-.01-.02-.02-.03l-2.78-2.78c-.34-.34-.9-.34-1.24,0-.34.34-.34.9,0,1.24l1.29,1.29H1.57c-.48,0-.88.39-.88.88s.39.88.88.88h5.54l-1.29,1.29Z"/>
  <circle cx="16.29" cy="12" r="1.22"/>
</svg>