<?xml version="1.0" encoding="UTF-8"?>
<svg id="Lager_1" data-name="Lager 1" xmlns="http://www.w3.org/2000/svg" viewBox="0 0 24 24">
  <path d="M19.65,17.38c-.48,0-.88.39-.88.88v1.39c0,.14-.05.27-.15.36-.1.1-.23.15-.36.15h-4.17c-.48,0-.88.39-.88.88s.39.88.88.88h4.17c.61,0,1.17-.24,1.6-.66.43-.43.66-1,.66-1.6v-1.39c0-.48-.39-.88-.88-.88Z"/>
  <path d="M14.09,5.22h4.17c.14,0,.27.05.36.15.1.1.15.23.15.36v1.39c0,.48.39.88.88.88s.88-.39.88-.88v-1.39c0-.6-.24-1.17-.66-1.6-.43-.43-1-.66-1.6-.66h-4.17c-.48,0-.88.39-.88.88s.39.88.88.88Z"/>
  <path d="M11.6,1.05c-.18-.15-.4-.25-.63-.3-.23-.05-.46-.05-.71,0L1.93,2.8c-.34.08-.65.27-.88.54-.22.27-.35.61-.35.98v16.24c0,.38.13.75.37,1.03.25.29.59.48.98.54l8.34,1.15c.08.01.16.02.24.02.14,0,.28-.02.41-.06.22-.06.43-.17.6-.31.17-.15.31-.33.41-.54.1-.21.14-.43.14-.66V2.27c0-.23-.05-.47-.16-.69-.1-.21-.25-.39-.43-.54ZM2.45,20.42V4.47l7.98-1.97.02,19.02-8-1.1Z"/>
  <path d="M23.25,12.96c.02-.07.04-.14.04-.22,0-.03,0-.06,0-.09,0-.1-.02-.19-.05-.28,0,0,0-.01,0-.02,0,0,0,0,0,0-.04-.1-.1-.18-.17-.26,0,0-.01-.02-.02-.03l-2.78-2.78c-.34-.34-.9-.34-1.24,0-.34.34-.34.9,0,1.24l1.29,1.29h-5.54c-.48,0-.88.39-.88.88s.39.88.88.88h5.54l-1.29,1.29c-.34.34-.34.9,0,1.24.17.17.4.26.62.26s.45-.08.62-.26l2.78-2.78c.08-.08.13-.17.17-.26.01-.03.02-.06.03-.09Z"/>
  <circle cx="7.72" cy="12" r="1.22"/>
</svg>