<?xml version="1.0" encoding="UTF-8"?>
<svg id="Lager_1" data-name="Lager 1" xmlns="http://www.w3.org/2000/svg" viewBox="0 0 24 24">
  <path d="M14.73,16.3c-.48,0-.88.39-.88.88v3.21c.01.25-.18.46-.39.48H3.13c-.25-.01-.45-.23-.43-.52V3.62c-.01-.25.18-.46.39-.48h10.33c.25.01.45.23.43.52v3.17c0,.48.39.88.88.88s.88-.39.88-.88v-3.13c.05-1.21-.89-2.25-2.14-2.31H3.05c-1.21.06-2.15,1.09-2.1,2.27v16.65c-.05,1.21.88,2.24,2.14,2.31h10.42c1.21-.06,2.15-1.09,2.1-2.27v-3.17c0-.48-.39-.88-.88-.88Z"/>
  <path d="M22.98,12.33c.04-.1.06-.2.06-.3,0-.01,0-.02,0-.03s0-.02,0-.03c0-.1-.02-.21-.06-.3-.04-.09-.09-.16-.16-.23-.01-.02-.02-.04-.03-.05l-4.26-4.26c-.34-.34-.9-.34-1.24,0-.34.34-.34.9,0,1.24l2.77,2.77H7.21c-.48,0-.88.39-.88.88s.39.88.88.88h12.86l-2.77,2.77c-.34.34-.34.9,0,1.24.17.17.4.26.62.26s.45-.08.62-.26l4.26-4.26s.02-.03.03-.05c.06-.07.12-.15.16-.23Z"/>
</svg>