<?xml version="1.0" encoding="UTF-8"?>
<svg id="Lager_1" data-name="Lager 1" xmlns="http://www.w3.org/2000/svg" viewBox="0 0 24 24">
<metadata>keywords: map,location,mark,marker,pin</metadata>
  <path d="M11.46.71c-.87.09-1.59.27-2.33.58-.88.38-1.75,1-2.39,1.72-.89.98-1.48,2.14-1.73,3.4-.1.52-.12.73-.12,1.34,0,.65.02.84.19,1.48.44,1.67,1.61,4.02,3.44,6.9.96,1.51,2.41,3.6,2.65,3.83.46.43,1.22.43,1.67-.01.18-.18,1-1.33,1.84-2.59,2.3-3.45,3.76-6.26,4.25-8.16.16-.61.18-.8.18-1.44,0-.61-.02-.82-.12-1.33-.37-1.85-1.47-3.49-3.06-4.54-.87-.58-1.85-.95-2.92-1.11-.3-.05-1.3-.08-1.56-.05M11.46,2.47c-.93.09-1.91.47-2.67,1.04-.33.25-.86.77-1.09,1.09-.54.73-.87,1.52-1.02,2.42-.06.37-.06,1.1,0,1.39.35,1.7,1.84,4.59,4.16,8.06.47.7,1.14,1.67,1.16,1.67.02,0,.8-1.12,1.24-1.8,2.24-3.37,3.7-6.18,4.05-7.83.2-.91.02-2.06-.47-3.06-.99-2.02-3.11-3.2-5.36-2.99M11.44,4.21c-1.59.27-2.79,1.47-3.05,3.06-.04.24-.04.82,0,1.06.18,1.19.89,2.19,1.95,2.74.59.31,1.27.45,1.95.39.34-.03.58-.07.9-.18,1.17-.39,2.08-1.38,2.37-2.59.14-.56.14-1.22,0-1.79-.32-1.25-1.32-2.26-2.58-2.61-.45-.12-1.09-.16-1.52-.09M11.62,5.96c-.4.08-.64.22-.95.53-.22.22-.25.27-.36.49-.16.33-.21.56-.19.93,0,.18.03.34.06.46.17.58.68,1.09,1.27,1.28.16.05.23.06.55.06s.4,0,.55-.06c.61-.19,1.12-.71,1.28-1.31.02-.08.05-.27.05-.42.02-.37-.03-.6-.19-.93-.11-.23-.15-.28-.36-.49-.21-.21-.27-.26-.47-.35-.13-.06-.29-.13-.37-.15-.2-.05-.68-.07-.88-.02M5.94,16.57c-2.67.6-4.12,1.43-4.48,2.57-.08.26-.09.64-.03.91.05.22.16.46.29.66.14.2.52.56.82.76,1.69,1.13,5.32,1.84,9.45,1.84,3.73,0,7.06-.57,8.95-1.54.52-.27,1.1-.73,1.32-1.06.4-.59.45-1.29.13-1.89-.49-.95-1.95-1.71-4.26-2.22-.4-.09-.52-.11-.66-.1-.74.05-1.08.96-.55,1.49.14.14.27.2.61.27,1.18.26,2.1.56,2.71.9.25.14.5.33.57.44l.04.07-.15.15c-.35.34-1.08.68-2.09.96-3.64,1.03-9.6,1.03-13.24,0-1.01-.29-1.74-.62-2.09-.96-.15-.15-.15-.15-.12-.21.07-.1.35-.32.59-.45.61-.34,1.44-.62,2.61-.87.5-.11.65-.19.81-.44.28-.44.11-1.03-.37-1.26-.21-.1-.41-.1-.87,0" fill-rule="evenodd"/>
</svg>