<?xml version="1.0" encoding="UTF-8"?>
<svg id="Lager_1" data-name="Lager 1" xmlns="http://www.w3.org/2000/svg" viewBox="0 0 24 24">
  <path d="M15.12.72c-.24.04-.5.14-3.46,1.33-2.83,1.13-3.08,1.22-3.17,1.21-.06,0-1.39-.53-2.96-1.15C2.35.83,2.48.87,2.07.93c-.53.08-.97.39-1.21.86-.18.36-.17-.25-.16,7.48v6.94s.06.19.06.19c.18.62.57,1.12,1.11,1.41.2.11,5.87,2.38,6.09,2.44.12.03.24.04.56.04.37,0,.43,0,.61-.06.42-.13.62-.3.73-.64.06-.18.04-.43-.04-.61-.12-.25-.32-.42-.58-.49-.17-.05-.29-.04-.5.02-.11.03-.22.05-.29.04-.1,0-5.49-2.15-5.74-2.27-.12-.06-.23-.19-.26-.31-.02-.06-.02-2.15-.02-6.65V2.76s2.6,1.04,2.6,1.04l2.59,1.04v3.36s.02,3.36.02,3.36l.06.11c.17.33.44.5.79.5.24,0,.42-.07.58-.22.15-.14.24-.3.28-.49.02-.1.03-1.16.03-3.38v-3.24s2.59-1.04,2.59-1.04l2.59-1.04v2.54c0,2.63,0,2.72.1,2.92.07.14.25.32.39.39.23.12.56.12.79,0,.15-.07.31-.24.39-.4l.07-.14v-2.66c.01-2.1.02-2.66.04-2.65.02,0,1.13.45,2.48.99,2.27.91,2.46.99,2.55,1.08.06.06.11.14.13.19.02.07.03,1.01.03,3.24,0,3.4,0,3.29.13,3.49.2.31.54.46.89.4.28-.04.54-.24.66-.5l.06-.13v-3.26c.01-2.22,0-3.32-.01-3.43-.1-.67-.54-1.3-1.14-1.63-.18-.1-5.85-2.37-6.09-2.44-.2-.06-.74-.08-.93-.05M15.82,10.44c-2.05.12-3.91,1.36-4.81,3.23-.39.8-.57,1.59-.57,2.5,0,.68.09,1.23.29,1.83.72,2.15,2.65,3.68,4.91,3.89.37.04,1.05.02,1.41-.04.32-.05.82-.18,1.13-.29.34-.13.82-.37,1.13-.57l.28-.18,1.19,1.18c1.32,1.31,1.28,1.29,1.62,1.31.27.02.5-.07.68-.26.19-.2.26-.4.25-.66-.02-.33,0-.3-1.31-1.62l-1.18-1.19.18-.28c.33-.49.58-1.08.74-1.68.11-.44.16-.75.17-1.25.03-.95-.15-1.84-.55-2.67-1.02-2.12-3.17-3.39-5.54-3.25M15.56,12.23c-.75.12-1.48.46-2.02.94-.73.65-1.18,1.48-1.32,2.44-.05.36-.04,1,.04,1.34.26,1.23,1.04,2.23,2.13,2.78,1.26.63,2.78.54,3.96-.23,1.93-1.28,2.39-3.88,1-5.74-.16-.21-.51-.57-.73-.74-.5-.38-1.03-.63-1.67-.77-.31-.07-1.06-.09-1.39-.03" fill-rule="evenodd"/>
</svg>