<?xml version="1.0" encoding="UTF-8"?>
<svg id="Lager_1" data-name="Lager 1" xmlns="http://www.w3.org/2000/svg" viewBox="0 0 24 24">
  <path d="M11.32.72c-2.41.23-4.5,1.47-5.83,3.45-.68,1.02-1.09,2.12-1.27,3.44-.02.14-.03.47-.03.84,0,.56,0,.64.07.98.32,1.8,1.4,4.41,3.26,7.84.97,1.79,2.29,4.02,3.07,5.18.32.47.53.65.94.79.14.05.21.06.48.06.29,0,.33,0,.5-.07.4-.15.58-.31.89-.77.78-1.16,2.08-3.36,3.07-5.18,1.87-3.44,2.97-6.08,3.27-7.88.05-.28.06-.41.06-.94,0-.73-.05-1.13-.2-1.78-.55-2.25-2.05-4.12-4.13-5.15-.8-.4-1.58-.64-2.48-.76-.33-.05-1.35-.07-1.67-.04M11.56,2.46c-1.27.13-2.25.5-3.2,1.21-.36.27-.94.85-1.2,1.2-.79,1.06-1.22,2.34-1.22,3.61,0,1.74,1.67,5.56,4.6,10.54.46.78.86,1.44,1.43,2.32.01.02.03.04.04.04.03,0,.9-1.4,1.48-2.38,2.64-4.48,4.27-8.08,4.56-10.01.1-.71-.02-1.73-.33-2.55-.62-1.68-1.93-3-3.61-3.62-.65-.24-1.25-.35-1.98-.36-.26,0-.51,0-.56,0M11.52,4.19c-.99.12-1.89.56-2.59,1.26-.61.61-1.02,1.37-1.2,2.22-.06.3-.09,1.07-.05,1.39.17,1.33.94,2.51,2.1,3.2,1.2.72,2.71.81,3.98.24.51-.23.91-.51,1.32-.91.62-.62,1.01-1.33,1.2-2.24.05-.22.05-.32.06-.83,0-.51,0-.61-.05-.84-.18-.87-.59-1.63-1.2-2.24-.49-.49-1.05-.84-1.7-1.05-.47-.16-.74-.2-1.29-.21-.26,0-.52,0-.56,0M11.57,5.96c-1.11.21-1.94,1.03-2.13,2.12-.24,1.4.7,2.75,2.1,3,.23.04.68.04.91,0,1.23-.22,2.14-1.3,2.14-2.54,0-.74-.28-1.4-.82-1.9-.33-.31-.69-.51-1.15-.63-.29-.08-.79-.1-1.05-.05" fill-rule="evenodd"/>
</svg>