<?xml version="1.0" encoding="UTF-8"?>
<svg id="Lager_1" data-name="Lager 1" xmlns="http://www.w3.org/2000/svg" viewBox="0 0 24 24">
  <path d="M15.23,2.21c-.09.01-.24.04-.32.06-.09.02-1.52.59-3.18,1.25-2.31.92-3.06,1.21-3.16,1.23-.13.01-.16,0-2.98-1.12-1.56-.62-2.9-1.15-2.97-1.17-.17-.04-.5-.04-.7,0-.32.07-.7.31-.91.59-.09.12-.19.32-.26.51-.04.13-.05.34-.05,7.15v7.02l.07.21c.2.65.6,1.13,1.18,1.41.27.14,5.81,2.34,6.02,2.4.28.07.78.08,1.07,0,.11-.03,1.58-.6,3.26-1.28,2.85-1.14,3.07-1.23,3.18-1.22.09,0,.87.31,2.95,1.14,1.56.62,2.89,1.14,2.96,1.16.18.04.52.03.7-.01.45-.11.84-.42,1.05-.85.15-.32.14.26.14-7.38v-6.98l-.05-.2c-.18-.66-.65-1.22-1.26-1.5-.1-.04-1.45-.59-3.01-1.21-1.95-.78-2.89-1.14-3.01-1.17-.24-.05-.53-.06-.73-.04M2.45,10.84v6.57l.07.13c.04.07.1.15.14.18.08.05,4.93,2,4.97,2,.02,0,.02-2.25.02-6.69v-6.69l-2.56-1.02c-1.41-.56-2.58-1.03-2.6-1.04-.04-.01-.04.31-.04,6.56M11.98,5.31l-2.57,1.03v6.69c0,3.68,0,6.69.02,6.69s1.17-.46,2.59-1.03l2.57-1.03v-6.7c0-3.69,0-6.7,0-6.7,0,0-1.18.47-2.59,1.03M16.34,10.96v6.7l2.59,1.03c1.42.57,2.6,1.03,2.6,1.03s.01-2.97,0-6.59v-6.59s-.07-.11-.07-.11c-.04-.06-.1-.13-.14-.16-.07-.04-4.83-1.96-4.94-1.99-.04-.01-.04.32-.04,6.69" fill-rule="evenodd"/>
</svg>