<?xml version="1.0" encoding="UTF-8"?>
<svg id="Lager_1" data-name="Lager 1" xmlns="http://www.w3.org/2000/svg" viewBox="0 0 24 24">
  <path d="M4.14.71c-.19.02-.46.09-.66.17-.66.28-1.14.83-1.33,1.55-.04.16-.05.27-.05,1.51v1.34l.07.13c.08.17.26.34.42.42.16.08.43.1.6.05.24-.07.47-.26.58-.5l.06-.13v-1.22c.02-1.08.03-1.23.06-1.3.06-.1.16-.2.26-.25.08-.04.82-.04,8.47-.04,6.05,0,8.42,0,8.52.02.15.03.3.15.37.3.04.09.04.33.04,5.76s0,5.67-.04,5.76c-.05.12-.16.22-.27.27-.08.03-.43.04-3.68.04-2.72,0-3.63.01-3.71.03-.42.11-.69.54-.62.98.05.29.23.52.5.65l.16.07h1.05s1.05.01,1.05.01v1.03h-.38c-.36.01-.38.02-.52.09-.15.08-.32.24-.4.39-.07.14-.1.38-.07.55.03.19.11.34.25.47.14.14.26.2.45.23.18.03,3.56.04,3.77,0,.29-.05.52-.22.64-.48.07-.15.08-.18.08-.39,0-.2,0-.25-.06-.36-.08-.17-.26-.35-.43-.43-.13-.06-.14-.06-.85-.07h-.72s0-.52,0-.52v-.51s1.81,0,1.81,0c1.76,0,1.82-.01,2.01-.06.85-.23,1.47-.84,1.68-1.69.04-.17.05-.36.05-6.1s0-5.92-.04-6.07c-.1-.36-.2-.56-.4-.84-.29-.4-.75-.7-1.27-.84l-.2-.05h-8.57c-4.71,0-8.61,0-8.66,0M14.41,3.5c-.11.01-.31.05-.44.09-1.19.34-2.03,1.36-2.13,2.59-.11,1.33.67,2.56,1.93,3.04.14.05.14.06.16.16.04.25.25.52.5.63.1.05.19.06.43.08.64.05,1.11.22,1.55.57.58.46.92,1.12.98,1.92.03.34.06.46.18.63.24.33.7.44,1.06.27.17-.08.34-.25.43-.41.06-.12.07-.17.08-.39.03-.89-.3-1.87-.9-2.66-.35-.46-.96-.96-1.47-1.22-.05-.02-.09-.05-.09-.05,0,0,.07-.09.18-.19.59-.58.9-1.31.9-2.13,0-.61-.16-1.13-.5-1.66-.15-.23-.57-.65-.83-.82-.58-.38-1.28-.54-2-.47M14.53,5.26c-.37.08-.68.33-.84.67-.08.17-.09.21-.1.43-.01.27,0,.39.11.6.09.19.36.46.56.56.47.22,1.01.13,1.37-.24.25-.25.36-.51.36-.85s-.11-.6-.35-.84c-.17-.17-.38-.29-.61-.34-.19-.04-.31-.04-.5,0M7.32,6.28c-1.59.17-3.02,1.18-3.72,2.62-.59,1.22-.63,2.63-.1,3.89.5,1.18,1.5,2.14,2.7,2.57l.19.07-.14.03c-2.14.47-4.02,2.01-4.93,4.03-.26.59-.49,1.4-.58,2.07-.02.13-.03.42-.03.66,0,.42,0,.44.06.56.3.63,1.17.69,1.55.09.08-.13.13-.31.13-.51,0-.47.11-1.13.26-1.6.28-.84.69-1.51,1.32-2.14.48-.48.86-.75,1.43-1.03.84-.41,1.62-.58,2.56-.54.83.03,1.51.2,2.26.58,1.46.74,2.52,2.14,2.82,3.73.07.36.08.42.1.85.03.49.07.61.27.82.18.18.35.25.61.25.1,0,.23-.02.29-.04.24-.08.5-.35.55-.58.04-.14.03-.69-.01-1.05-.1-.85-.31-1.56-.7-2.35-.23-.47-.38-.71-.71-1.15-.97-1.29-2.45-2.26-4.01-2.63l-.23-.05.23-.09c.93-.35,1.75-1.02,2.3-1.87.17-.26.4-.76.5-1.06.78-2.39-.45-4.96-2.81-5.87-.63-.24-1.45-.35-2.16-.27M7.49,8.04c-1.09.12-2.06.89-2.43,1.94-.21.6-.22,1.33-.01,1.94.35,1.02,1.25,1.78,2.32,1.96.21.03.71.03.93,0,.27-.04.63-.16.88-.3,1.23-.63,1.85-2.04,1.49-3.37-.14-.51-.38-.93-.77-1.32-.49-.49-1.08-.77-1.77-.85-.26-.03-.38-.03-.64,0" fill-rule="evenodd"/>
</svg>