<?xml version="1.0" encoding="UTF-8"?>
<svg id="Lager_1" data-name="Lager 1" xmlns="http://www.w3.org/2000/svg" viewBox="0 0 24 24">
  <path d="M10.91.7c-2.8.11-5.34,1.4-7.03,3.57-2.21,2.83-2.6,6.66-1.01,9.87l.18.36-1.15,2.42c-.63,1.33-1.16,2.46-1.18,2.51-.08.3.04.68.28.88.23.19.58.26.85.17.07-.03,1.2-.56,2.5-1.18l2.37-1.13.41.2c.82.4,1.53.63,2.42.8.39.07.52.06.74-.04.66-.32.67-1.24.02-1.57-.07-.03-.24-.08-.39-.11-.77-.14-1.4-.35-2.06-.68-.17-.09-.38-.2-.47-.26-.09-.05-.21-.12-.27-.15-.16-.07-.39-.08-.55-.03-.07.02-.77.34-1.55.71-.78.37-1.45.69-1.49.71l-.08.03.1-.22c.06-.12.38-.79.71-1.49.33-.7.62-1.32.64-1.38.04-.14.04-.35,0-.49-.02-.06-.1-.23-.19-.38-.57-.99-.88-1.92-1-3.04-.04-.33-.04-1.24,0-1.56.19-1.72.91-3.25,2.09-4.48.61-.63,1.21-1.07,2.02-1.48.95-.49,1.97-.76,2.99-.8,1.82-.08,3.49.42,4.89,1.46,1.18.88,2.02,1.96,2.56,3.31.05.14.12.29.15.34.16.31.58.5.93.43.18-.04.3-.1.44-.23.17-.16.25-.34.26-.58.01-.24-.05-.44-.31-1.01-.47-1.05-1.18-2.07-2.01-2.86-1.46-1.41-3.34-2.31-5.32-2.56-.27-.03-1.18-.09-1.27-.08-.02,0-.11,0-.2.01M6.81,6.34c-.37.15-.56.46-.54.86.02.41.31.74.72.81.11.02,1.12.02,3.49.02h3.34s.14-.06.14-.06c.18-.07.38-.27.47-.45.06-.12.07-.17.07-.37s0-.24-.07-.36c-.08-.17-.26-.35-.43-.43l-.13-.06h-3.46s-3.46-.01-3.46-.01l-.14.06M16.51,8.78c-2.11.19-3.96,1.4-4.98,3.25-.74,1.35-.96,2.99-.58,4.51.42,1.71,1.52,3.13,3.09,4,1.12.62,2.54.89,3.79.71l.25-.04,1.6.99c.88.54,1.66,1.02,1.73,1.05.11.05.17.06.35.06.18,0,.24,0,.35-.06.19-.09.34-.24.43-.41.13-.27.13-.24-.2-2.19-.17-.97-.3-1.77-.3-1.8s.1-.19.22-.37c1.09-1.64,1.35-3.75.68-5.59-.13-.34-.46-1.01-.66-1.32-.94-1.45-2.51-2.46-4.21-2.73-.49-.08-1.09-.1-1.55-.06M6.99,10.46c-.27.04-.53.24-.65.5-.06.12-.06.17-.06.38s0,.26.06.36c.08.15.27.35.41.42.06.03.18.06.26.08.2.03,2.36.03,2.56,0,.08-.01.2-.05.26-.08.15-.07.33-.26.41-.42.06-.12.06-.17.06-.37s0-.25-.06-.37c-.08-.16-.25-.34-.41-.42-.06-.03-.18-.06-.27-.08-.19-.03-2.38-.03-2.57,0M16.62,10.53c-.81.07-1.64.39-2.31.89-.25.19-.71.64-.89.89-.4.54-.68,1.16-.83,1.86-.07.35-.08,1.27-.01,1.64.23,1.23.93,2.29,1.99,3,.23.16.75.4,1.02.5.73.24,1.54.29,2.26.14.32-.06.52-.06.69,0,.07.03.55.31,1.05.62.51.31.93.56.93.56,0,0-.07-.47-.16-1.03-.19-1.1-.19-1.18-.1-1.4.03-.06.13-.21.23-.33.43-.53.69-1.02.86-1.61.16-.55.22-1.14.17-1.64-.1-1.11-.57-2.1-1.34-2.85-.77-.75-1.74-1.19-2.82-1.27-.36-.03-.41-.03-.75,0M15,14.19c-.24.07-.49.3-.57.53-.07.17-.07.44,0,.61.09.24.31.45.55.53.13.04.25.04,2.13.04,2.15,0,2.11,0,2.31-.13.14-.09.27-.23.34-.38.06-.12.07-.16.07-.37s0-.26-.06-.36c-.09-.18-.27-.35-.44-.44l-.15-.07h-2.03c-1.57,0-2.05,0-2.14.02" fill-rule="evenodd"/>
</svg>