<?xml version="1.0" encoding="UTF-8"?>
<svg id="Lager_1" data-name="Lager 1" xmlns="http://www.w3.org/2000/svg" viewBox="0 0 24 24">
  <path d="M11.89.72c-2.23.19-4.2.98-5.89,2.35-2.1,1.7-3.49,4.19-3.83,6.86-.1.78-.11,1.83-.03,2.51.16,1.3.53,2.51,1.1,3.62l.2.38-1.34,2.81c-.74,1.54-1.36,2.87-1.38,2.94-.12.39.1.85.48,1.02.19.09.42.1.6.05.07-.02,1.39-.64,2.94-1.38l2.81-1.34.38.2c1.12.58,2.33.94,3.62,1.1.43.05,1.42.07,1.87.04.71-.06,1.23-.14,1.84-.29,3.7-.92,6.61-3.76,7.65-7.44.24-.86.36-1.66.38-2.62.04-1.71-.3-3.28-1.04-4.84-.49-1.04-1.21-2.04-2.06-2.9-1.71-1.71-3.85-2.75-6.26-3.04-.46-.06-1.62-.08-2.04-.04M12.13,2.46c-1.59.13-2.97.59-4.26,1.41-.99.63-1.98,1.63-2.62,2.63-.75,1.18-1.2,2.45-1.37,3.9-.04.39-.04,1.43.01,1.85.15,1.25.54,2.41,1.18,3.49.09.15.18.32.19.36.06.16.07.34.03.49-.02.08-.41.91-.86,1.86-.45.94-.86,1.8-.91,1.91l-.09.2.22-.1c.12-.06.98-.47,1.91-.91.93-.44,1.76-.82,1.83-.85.15-.04.33-.03.49.03.05.02.21.1.36.19,1.09.64,2.25,1.03,3.49,1.18.42.05,1.46.06,1.85.01,1.09-.13,2-.39,2.94-.83.9-.43,1.63-.94,2.35-1.65,1.47-1.44,2.36-3.25,2.61-5.32.06-.49.06-1.53,0-2.02-.31-2.47-1.52-4.58-3.48-6.07-1.23-.93-2.73-1.53-4.3-1.72-.32-.04-1.31-.07-1.58-.04M12.55,7.4c-.16.04-.25.1-.38.23-.14.14-.22.29-.25.48-.01.08-.02.67-.02,1.32v1.18s-1.28,0-1.28,0c-1.14,0-1.29.01-1.38.05-.16.07-.33.2-.43.35-.29.44-.12,1.04.37,1.27l.12.06h1.3s1.3.01,1.3.01v1.19c0,.76,0,1.25.03,1.34.04.19.13.35.28.49.16.15.34.22.56.22.37,0,.64-.16.82-.51l.06-.11v-1.31s.02-1.31.02-1.31h1.3c1.28-.02,1.3-.02,1.41-.08.34-.16.52-.44.52-.8,0-.35-.19-.66-.51-.81l-.15-.07h-1.29s-1.29-.01-1.29-.01v-1.3s-.01-1.3-.01-1.3l-.07-.13c-.19-.39-.62-.58-1.03-.47" fill-rule="evenodd"/>
</svg>