<?xml version="1.0" encoding="UTF-8"?>
<svg id="Lager_1" data-name="Lager 1" xmlns="http://www.w3.org/2000/svg" viewBox="0 0 24 24">
  <path d="M12.06.71c-1.06.08-1.79.23-2.69.52-.95.31-1.67.67-2.52,1.23-.69.46-1.14.83-1.75,1.45-1.81,1.86-2.86,4.27-2.99,6.9-.09,1.79.3,3.61,1.11,5.22l.21.42-1.34,2.83c-.74,1.56-1.35,2.88-1.37,2.95-.1.38.12.83.49.99.17.08.4.1.56.06.06-.02,1.39-.63,2.94-1.37l2.82-1.34.17.09c2.26,1.23,5.03,1.58,7.57.94,3.4-.85,6.17-3.32,7.39-6.6.34-.92.54-1.84.63-2.84.03-.37.03-1.37,0-1.74-.13-1.39-.48-2.66-1.09-3.87-1.68-3.35-4.99-5.56-8.73-5.83-.31-.02-1.16-.03-1.39,0M12.22,2.46c-.79.05-1.49.18-2.14.38-2.07.66-3.83,2.02-4.93,3.84-.66,1.08-1.06,2.23-1.23,3.5-.06.44-.06,1.76,0,2.2.18,1.3.52,2.28,1.19,3.46.17.3.22.48.17.71-.02.1-.29.69-.94,2.07-.5,1.06-.91,1.93-.91,1.94,0,0,.85-.4,1.89-.89,1.04-.49,1.94-.91,2-.93.25-.08.48-.04.79.15,1.93,1.15,4.17,1.54,6.35,1.1,3.82-.77,6.68-3.94,7.06-7.84.04-.41.05-1.22.01-1.6-.23-2.47-1.4-4.64-3.32-6.18-1.25-1.01-2.85-1.67-4.49-1.86-.3-.04-1.23-.06-1.5-.05M9.54,8.38c-.56.14-1.04.63-1.15,1.19-.05.23-.03.6.04.82.14.44.54.86.98,1.01.34.12.77.11,1.11-.02.15-.06.18-.06.18-.03.02.29-.14.73-.4,1.04-.14.17-.27.27-.55.43-.25.14-.36.25-.46.45-.07.14-.08.18-.08.36,0,.18.01.22.07.36.13.28.36.45.66.5.2.03.36,0,.66-.15.33-.17.61-.38.89-.67.9-.94,1.19-2.2.78-3.43-.25-.76-.74-1.36-1.37-1.67-.3-.15-.55-.21-.91-.21-.21,0-.37,0-.45.02M14.33,8.41c-.26.08-.44.19-.66.41-.16.16-.22.24-.29.4-.12.26-.16.41-.16.71,0,.46.13.76.46,1.09.34.34.64.46,1.12.46.23,0,.29,0,.47-.07.11-.04.22-.08.25-.09.04-.02.04,0,.04.1,0,.17-.06.41-.18.63-.13.27-.44.59-.72.74-.25.13-.35.22-.44.35-.35.53-.04,1.25.59,1.35.21.03.37,0,.64-.14,1.18-.59,1.96-1.92,1.86-3.21-.1-1.37-.86-2.43-1.96-2.72-.13-.04-.28-.05-.51-.06-.28,0-.35,0-.5.05" fill-rule="evenodd"/>
</svg>