<?xml version="1.0" encoding="UTF-8"?>
<svg id="Lager_1" data-name="Lager 1" xmlns="http://www.w3.org/2000/svg" viewBox="0 0 24 24">
  <path d="M15.65,23.31c-1.14,0-2.28-.17-3.39-.52-2.88-.91-5.24-2.88-6.63-5.55-1.4-2.68-1.67-5.74-.76-8.62C6.74,2.67,13.09-.66,19.04,1.21c.37.11.61.45.61.83s-.25.72-.61.83c-4,1.26-6.69,4.92-6.69,9.12s2.69,7.86,6.69,9.12c.36.12.61.45.61.83s-.25.72-.61.83c-1.11.35-2.25.52-3.39.52ZM15.66,2.44c-4.06,0-7.84,2.62-9.12,6.69-.77,2.43-.54,5.02.64,7.28,1.18,2.26,3.17,3.93,5.61,4.69,1,.31,2.04.46,3.06.44-3.23-2.03-5.25-5.59-5.25-9.56s2.03-7.52,5.25-9.55c-.06,0-.13,0-.19,0Z"/>
</svg>