<?xml version="1.0" encoding="UTF-8"?>
<svg id="Lager_1" data-name="Lager 1" xmlns="http://www.w3.org/2000/svg" viewBox="0 0 24 24">
  <path d="M2.66,5.62c-.25.1-.47.33-.54.57-.12.41.07.85.47,1.04l.16.08h18.51l.13-.06c.24-.11.44-.33.5-.58.05-.17.02-.44-.05-.6-.08-.17-.26-.34-.42-.42l-.13-.07h-9.25c-9,0-9.26,0-9.37.04M2.71,11.16c-.22.07-.45.27-.55.48-.05.11-.06.17-.06.36s0,.25.06.37c.12.26.37.45.66.5.19.03,18.16.03,18.35,0,.29-.05.54-.24.66-.5.06-.12.06-.17.06-.37s0-.25-.06-.36c-.08-.16-.25-.34-.42-.43l-.12-.06h-9.26c-5.1,0-9.29,0-9.32.01M2.8,16.71c-.26.04-.52.24-.64.5-.06.12-.06.17-.06.37s0,.25.06.36c.08.16.25.34.42.43l.12.06h18.6l.12-.06c.17-.09.34-.27.42-.43.05-.11.06-.17.06-.36s0-.25-.06-.37c-.12-.26-.37-.45-.66-.5-.17-.03-18.21-.03-18.38,0" fill-rule="evenodd"/>
</svg>