<?xml version="1.0" encoding="UTF-8"?>
<svg id="Lager_1" data-name="Lager 1" xmlns="http://www.w3.org/2000/svg" viewBox="0 0 24 24">
  <path d="M7.13,15.42h9.73c.48,0,.88-.39.88-.88s-.39-.88-.88-.88H7.13c-.48,0-.88.39-.88.88s.39.88.88.88Z"/>
  <path d="M7.13,12.12h9.73c.48,0,.88-.39.88-.88s-.39-.88-.88-.88H7.13c-.48,0-.88.39-.88.88s.39.88.88.88Z"/>
  <path d="M7.13,18.73h5.56c.48,0,.88-.39.88-.88s-.39-.88-.88-.88h-5.56c-.48,0-.88.39-.88.88s.39.88.88.88Z"/>
  <path d="M21.04,1.39H2.96C1.73,1.39.7,2.43.7,3.66v16.69c0,1.23,1.04,2.27,2.27,2.27h18.08c1.23,0,2.27-1.04,2.27-2.27V3.66c0-1.27-1-2.27-2.27-2.27ZM21.55,20.34c0,.26-.26.52-.52.52H2.96c-.26,0-.52-.26-.52-.52v-12.1h19.11v12.1ZM21.55,6.49H2.45v-2.83c0-.26.26-.52.52-.52h18.08c.35,0,.52.27.52.52v2.83Z"/>
  <path d="M5.16,3.87c-.1-.04-.22-.07-.34-.07s-.24.02-.34.07c-.42.14-.72.53-.72.99s.3.85.72.99c.1.04.22.07.34.07s.24-.02.34-.07c.41-.14.72-.53.72-.99s-.3-.85-.72-.99Z"/>
  <path d="M8.4,3.87c-.1-.04-.22-.07-.34-.07s-.24.02-.34.07c-.42.14-.72.53-.72.99s.3.85.72.99c.1.04.22.07.34.07s.24-.02.34-.07c.42-.14.72-.53.72-.99s-.3-.85-.72-.99Z"/>
</svg>