<?xml version="1.0" encoding="UTF-8"?>
<svg id="Lager_1" data-name="Lager 1" xmlns="http://www.w3.org/2000/svg" viewBox="0 0 24 24">
  <path d="M20.45,1.39H3.55C1.98,1.39.69,2.67.69,4.25v15.5c0,1.58,1.28,2.86,2.86,2.86h16.89c1.58,0,2.86-1.28,2.86-2.86V4.25c0-1.58-1.28-2.86-2.86-2.86ZM21.56,19.75c0,.61-.5,1.11-1.11,1.11H3.55c-.61,0-1.11-.5-1.11-1.11V4.25c0-.61.5-1.11,1.11-1.11h16.89c.61,0,1.11.5,1.11,1.11v15.5Z"/>
  <path d="M11.9,12.33c1.77,0,3.21-1.44,3.21-3.21s-1.44-3.21-3.21-3.21-3.21,1.44-3.21,3.21,1.44,3.21,3.21,3.21ZM11.9,7.66c.81,0,1.46.66,1.46,1.46s-.66,1.46-1.46,1.46-1.46-.66-1.46-1.46.66-1.46,1.46-1.46Z"/>
  <path d="M11.9,12.49c-2.59,0-4.7,2.1-4.7,4.68,0,.48.39.88.88.88s.88-.39.88-.88c0-1.62,1.32-2.93,2.95-2.93s2.95,1.31,2.95,2.98c0,.48.39.88.88.88s.88-.39.88-.88c0-2.65-2.07-4.73-4.7-4.73Z"/>
  <path d="M7.8,13.58c.47.12.95-.16,1.07-.62.12-.47-.16-.95-.62-1.07-.28-.07-.45-.11-.79-.11-2.03,0-3.62,1.57-3.62,3.57,0,.48.39.88.88.88s.88-.39.88-.88c0-1.18.96-1.82,1.87-1.82.15,0,.17,0,.35.05Z"/>
  <path d="M16.54,11.78c-.34,0-.51.03-.79.11-.47.12-.75.6-.62,1.07.12.47.6.75,1.07.62.18-.05.19-.05.35-.05.9,0,1.87.64,1.87,1.82,0,.48.39.88.88.88s.88-.39.88-.88c0-2-1.59-3.57-3.62-3.57Z"/>
  <path d="M6.93,11.53c.62,0,1.05-.22,1.32-.38.41-.25.54-.79.29-1.2-.25-.41-.79-.54-1.2-.29-.56.34-1.12-.05-1.12-.59,0-.39.32-.71.71-.71.15,0,.26.03.37.1.4.27.95.16,1.21-.24s.16-.95-.24-1.21c-.4-.26-.85-.4-1.34-.4-1.36,0-2.46,1.1-2.46,2.46s1.1,2.46,2.46,2.46Z"/>
  <path d="M16.61,9.65c-.41-.25-.95-.12-1.2.29-.25.41-.12.95.29,1.2.27.16.7.38,1.32.38,1.36,0,2.46-1.1,2.46-2.46s-1.1-2.46-2.46-2.46c-.5,0-.95.13-1.34.4-.4.27-.51.81-.24,1.21s.81.51,1.21.24c.11-.07.22-.1.37-.1.39,0,.71.32.71.71,0,.54-.56.92-1.12.59Z"/>
</svg>