<?xml version="1.0" encoding="UTF-8"?>
<svg id="Lager_1" data-name="Lager 1" xmlns="http://www.w3.org/2000/svg" viewBox="0 0 24 24">
  <path d="M18.67.71c-.81.08-1.54.37-2.22.88-.13.09-2.57,2.52-7.08,7.03-5.34,5.34-6.9,6.91-6.94,7-.03.06-.43,1.57-.88,3.35-.8,3.12-.83,3.25-.83,3.47,0,.2,0,.24.07.35.18.35.49.53.86.5.22-.02,6.59-1.66,6.76-1.74.1-.05,1.44-1.38,7-6.94,4.5-4.5,6.93-6.95,7.02-7.07.5-.66.78-1.38.87-2.15.18-1.65-.61-3.24-2.04-4.1-.65-.39-1.43-.6-2.2-.59-.16,0-.33,0-.37.01M18.65,2.48c-.36.06-.84.27-1.07.45l-.07.05,1.75,1.75,1.75,1.75.11-.16c.15-.23.22-.37.3-.63.09-.3.14-.62.12-.9-.09-1.3-1.11-2.29-2.4-2.33-.18,0-.36,0-.48.02M10.35,10.13l-5.9,5.9,1.76,1.75,1.76,1.75,5.9-5.9,5.9-5.9-1.75-1.75c-.96-.96-1.76-1.75-1.76-1.75s-2.67,2.66-5.92,5.9M3.24,19.45c-.24.94-.43,1.72-.43,1.73.01.01,1.52-.37,3.35-.84l.1-.03-1.29-1.29-1.29-1.29-.44,1.72" fill-rule="evenodd"/>
</svg>