<?xml version="1.0" encoding="UTF-8"?>
<svg id="Lager_1" data-name="Lager 1" xmlns="http://www.w3.org/2000/svg" viewBox="0 0 24 24">
  <path d="M4.69.71c-.4.05-.85.22-1.2.47-.19.13-1.2,1.13-1.42,1.4-.86,1.06-1.32,2.29-1.37,3.64-.03.94.17,1.93.57,2.76.18.38.25.5.63,1.05,3.17,4.63,7.3,8.76,11.96,11.99.56.39.87.58,1.18.72,1.88.87,4.09.71,5.83-.42.39-.25.71-.53,1.29-1.11.68-.68.84-.9,1.02-1.42.19-.55.15-1.27-.09-1.83-.18-.42-.23-.47-2-2.25-.91-.91-1.73-1.72-1.83-1.79-.47-.35-.96-.52-1.55-.52-.71,0-1.24.21-1.84.74-.22.2-.38.26-.63.24-.34-.02-.16.15-2.95-2.64-1.83-1.83-2.54-2.56-2.59-2.64-.12-.23-.12-.53,0-.75.03-.07.13-.2.22-.3.49-.55.71-1.17.68-1.87-.02-.48-.15-.89-.42-1.3-.11-.17-.39-.46-1.83-1.9-1.76-1.76-1.84-1.84-2.22-2.03-.42-.21-.96-.3-1.44-.24M4.86,2.46c-.24.04-.33.11-.87.65-.55.56-.71.74-.91,1.08-.57.94-.76,2.05-.53,3.11.13.6.35,1.08.83,1.76,2.64,3.83,5.97,7.34,9.69,10.2.81.63,2.01,1.48,2.39,1.7.62.37,1.36.57,2.13.57.71,0,1.3-.14,1.92-.45.49-.25.74-.44,1.4-1.1.41-.41.52-.53.57-.64.11-.24.11-.51-.02-.76-.03-.06-.61-.66-1.65-1.7-1.83-1.83-1.71-1.74-2.12-1.74-.28,0-.37.04-.63.27-.53.47-1.12.7-1.77.7-.61,0-1.17-.19-1.63-.57-.1-.08-1.32-1.29-2.71-2.68-2.69-2.69-2.68-2.68-2.87-3.1-.18-.4-.26-.89-.22-1.33.06-.59.28-1.06.69-1.52.09-.1.19-.23.22-.3.11-.24.1-.52-.03-.76-.08-.13-3.11-3.18-3.28-3.3-.19-.12-.38-.17-.6-.13" fill-rule="evenodd"/>
</svg>