<?xml version="1.0" encoding="UTF-8"?>
<svg id="Lager_1" data-name="Lager 1" xmlns="http://www.w3.org/2000/svg" viewBox="0 0 24 24">
  <path d="M16.02.7H7.98c-1.71,0-3.11,1.39-3.11,3.11v16.39c0,1.71,1.39,3.11,3.11,3.11h8.05c1.71,0,3.11-1.39,3.11-3.11V3.8c0-1.71-1.39-3.11-3.11-3.11ZM17.38,20.2c0,.75-.61,1.36-1.36,1.36H7.98c-.75,0-1.36-.61-1.36-1.36V3.8c0-.75.61-1.36,1.36-1.36h8.05c.75,0,1.36.61,1.36,1.36v16.39Z"/>
  <path d="M13.68,18.3h-3.36c-.48,0-.88.39-.88.88s.39.88.88.88h3.36c.48,0,.88-.39.88-.88s-.39-.88-.88-.88Z"/>
</svg>