<?xml version="1.0" encoding="UTF-8"?>
<svg id="Lager_1" data-name="Lager 1" xmlns="http://www.w3.org/2000/svg" viewBox="0 0 24 24">
  <path d="M19.91.62H4.09C2.18.62.62,2.18.62,4.09v15.83c0,1.91,1.55,3.46,3.46,3.46h15.83c1.91,0,3.46-1.55,3.46-3.46V4.09c0-1.91-1.55-3.46-3.46-3.46ZM21.62,19.91c0,.94-.77,1.71-1.71,1.71H4.09c-.94,0-1.71-.77-1.71-1.71V4.09c0-.94.77-1.71,1.71-1.71h15.83c.94,0,1.71.77,1.71,1.71v15.83Z"/>
  <path d="M8.23,10.91c.83,0,1.62-.33,2.21-.92.59-.59.92-1.38.92-2.21s-.33-1.62-.92-2.21c-.59-.59-1.38-.92-2.21-.92s-1.62.33-2.21.92c-.59.59-.92,1.38-.92,2.21s.33,1.62.92,2.21,1.38.92,2.21.92ZM7.26,6.8c.26-.26.61-.4.97-.4s.71.14.97.4.4.61.4.97-.14.71-.4.97-.61.4-.97.4-.71-.14-.97-.4-.4-.61-.4-.97.14-.71.4-.97Z"/>
  <path d="M15.57,12.1c-.17-.25-.4-.46-.67-.61-.27-.15-.57-.23-.88-.23s-.61.07-.88.21c-.27.14-.5.35-.68.6l-2.15,3.08-.94-.75c-.2-.16-.44-.28-.69-.35-.26-.07-.52-.08-.78-.04-.26.04-.51.13-.73.27-.22.14-.41.32-.55.54l-2.11,3.17c-.27.4-.16.94.24,1.21.4.27.94.16,1.21-.24l2.11-3.17s.02-.03.04-.04c.01-.02.03-.02.05-.02h.06s.05.03.05.03l1.67,1.34c.19.15.43.21.67.18.24-.03.45-.16.59-.36l2.69-3.85s.03-.03.05-.04c.02-.02.04-.02.06-.02s.04,0,.06.02.05.04.05.04l3.93,5.89c.26.4.81.51,1.21.24.4-.26.51-.81.24-1.21l-3.92-5.89Z"/>
</svg>