<?xml version="1.0" encoding="UTF-8"?>
<svg id="Lager_1" data-name="Lager 1" xmlns="http://www.w3.org/2000/svg" viewBox="0 0 24 24">
  <path d="M11.16.72c-2.74.22-5.23,1.36-7.15,3.28-1.79,1.79-2.91,4.09-3.23,6.59-.12.93-.12,1.88,0,2.81.31,2.5,1.44,4.8,3.23,6.59,1.75,1.75,3.98,2.86,6.41,3.2,2.72.38,5.48-.24,7.76-1.73,2.74-1.8,4.56-4.66,5.02-7.89.38-2.72-.24-5.48-1.73-7.76-1.84-2.8-4.76-4.63-8.06-5.04-.68-.08-1.61-.11-2.24-.06M11.42,2.46c-1.4.12-2.43.39-3.57.93-1.92.92-3.54,2.54-4.46,4.46-.48,1-.75,1.97-.89,3.11-.06.49-.06,1.58,0,2.06.14,1.15.42,2.11.89,3.11.92,1.92,2.54,3.54,4.46,4.46,1,.48,1.97.75,3.11.89.49.06,1.58.06,2.08,0,2.27-.27,4.24-1.23,5.8-2.84.9-.93,1.56-1.94,2.04-3.13.82-2.06.89-4.37.2-6.49-.67-2.07-2.06-3.87-3.9-5.06-1.24-.8-2.61-1.29-4.13-1.47-.31-.04-1.39-.07-1.63-.04M11.42,5.6c-.76.13-1.45.48-2.01,1.03-.69.69-1.09,1.63-1.06,2.54,0,.27.01.3.08.43.17.34.55.53.93.47.19-.03.32-.1.46-.23.16-.16.23-.3.26-.55.07-.6.13-.81.33-1.11.25-.39.63-.66,1.11-.8.22-.06.74-.06.96,0,.74.22,1.26.78,1.39,1.52.04.21.02.61-.03.81-.16.58-.58,1.05-1.15,1.28-.45.18-.68.33-.93.6-.29.3-.46.62-.56,1.01-.05.21-.06.3-.07.82-.02.86.02,1.04.27,1.29.19.19.31.24.61.24s.42-.05.61-.24c.24-.24.27-.39.27-1.16,0-.47,0-.52.05-.62.06-.13.15-.2.37-.28,1.21-.47,2.08-1.53,2.29-2.79.05-.32.07-.84.02-1.13-.11-.79-.48-1.52-1.03-2.07-.53-.53-1.13-.85-1.86-1.01-.29-.06-1.02-.08-1.31-.03M11.75,16.01c-.33.06-.69.34-.84.65-.28.57-.11,1.22.42,1.57.39.26.94.26,1.34,0,.52-.35.7-.99.43-1.55-.1-.21-.36-.47-.58-.57-.25-.12-.51-.15-.78-.1" fill-rule="evenodd"/>
</svg>