<?xml version="1.0" encoding="UTF-8"?>
<svg id="Lager_1" data-name="Lager 1" xmlns="http://www.w3.org/2000/svg" viewBox="0 0 24 24">
  <path d="M12,0C5.37,0,0,5.37,0,12s5.37,12,12,12,12-5.37,12-12S18.63,0,12,0ZM12,19c-.83,0-1.5-.67-1.5-1.5s.67-1.5,1.5-1.5,1.5.67,1.5,1.5-.67,1.5-1.5,1.5ZM13.6,12.92c-.37.16-.6.52-.6.92,0,.55-.45,1-1,1s-1-.45-1-1c0-1.19.71-2.27,1.8-2.75,1.01-.44,1.47-1.62,1.03-2.63-.44-1.01-1.62-1.47-2.63-1.03-.73.32-1.2,1.03-1.2,1.83,0,.55-.45,1-1,1s-1-.45-1-1c0-2.21,1.79-4,4-4s4,1.79,4,4c0,1.59-.94,3.03-2.4,3.66Z"/>
</svg>