<?xml version="1.0" encoding="UTF-8"?>
<svg id="Lager_1" data-name="Lager 1" xmlns="http://www.w3.org/2000/svg" viewBox="0 0 24 24">
  <path d="M18.54,3.93c-2.73,0-4.94,2.21-4.94,4.94s2.21,4.94,4.94,4.94c.37,0,.75-.05,1.11-.14.1-.02.2.02.26.1.06.06.09.15.07.23-1.19,2.14-3.43,3.49-5.88,3.52-.69,0-1.25.56-1.25,1.25s.56,1.25,1.25,1.25h0c5.34-.15,9.56-4.6,9.43-9.94v-1.21c-.03-2.73-2.26-4.93-4.99-4.94Z"/>
  <path d="M6.22,3.93c-2.73,0-4.94,2.21-4.94,4.94s2.21,4.94,4.94,4.94c.37,0,.75-.05,1.11-.14.1-.02.2.02.26.1.06.08.06.19,0,.27-1.19,2.14-3.43,3.48-5.88,3.52-.69,0-1.25.56-1.25,1.25s.56,1.25,1.25,1.25c5.34-.15,9.56-4.6,9.43-9.94v-1.25c-.03-2.71-2.21-4.9-4.92-4.94Z"/>
</svg>