<?xml version="1.0" encoding="UTF-8"?>
<svg id="Lager_1" data-name="Lager 1" xmlns="http://www.w3.org/2000/svg" viewBox="0 0 24 24">
  <path d="M6,3.26c-1.04.08-2.03.46-2.9,1.11-.29.22-.83.76-1.05,1.05-.46.61-.78,1.28-.96,2-.21.82-.21,1.85,0,2.67.5,1.97,2.04,3.51,3.99,4,.5.13.82.16,1.37.16.52,0,.84-.04,1.28-.14.56-.14,1.18-.4,1.66-.7.13-.08.23-.14.24-.14,0,0-.07.18-.16.4-1.34,3.11-4.4,5.2-7.77,5.32-.52.02-.66.04-.83.16-.3.2-.45.53-.39.88.05.29.21.5.48.63.15.07.18.08.47.09.62.02,1.51-.08,2.29-.26,1.27-.28,2.58-.86,3.67-1.63,2.32-1.62,3.9-4.07,4.4-6.85.14-.78.18-1.39.16-2.75-.01-1.19-.02-1.31-.17-1.9-.55-2.14-2.38-3.77-4.58-4.07-.32-.04-.88-.06-1.19-.04M17.59,3.26c-2.31.18-4.27,1.81-4.88,4.05-.25.91-.25,1.98,0,2.89.26.96.71,1.73,1.43,2.45.89.89,1.95,1.41,3.22,1.58.28.04,1.07.04,1.34,0,.84-.12,1.69-.43,2.3-.83.11-.07.2-.13.21-.13.02.02-.23.58-.4.92-.68,1.34-1.71,2.49-2.98,3.34-1.36.9-2.94,1.41-4.55,1.47-.61.02-.75.06-.96.27-.14.14-.2.25-.24.44-.09.44.18.89.61,1.02.26.07,1.39,0,2.16-.14,1.62-.3,3.15-.97,4.47-1.97.86-.65,1.69-1.51,2.3-2.38.85-1.21,1.44-2.6,1.72-4.04.16-.83.22-1.61.2-3.02,0-.74-.02-1.03-.05-1.22-.19-1.17-.69-2.19-1.48-3.01-.89-.92-1.96-1.48-3.22-1.66-.32-.05-.88-.06-1.2-.04M6.3,5c-.38.01-.83.1-1.17.23-1.22.46-2.09,1.48-2.37,2.76-.07.31-.09.91-.05,1.22.22,1.67,1.49,2.98,3.14,3.25.28.04.83.05,1.1.01.74-.11,1.4-.41,1.95-.89,1.15-1,1.57-2.59,1.09-4.03-.44-1.3-1.56-2.26-2.91-2.5-.17-.03-.6-.06-.78-.05M17.43,5.05c-1.01.16-1.96.77-2.53,1.63-.8,1.22-.83,2.82-.07,4.04.18.29.32.46.57.71.56.56,1.25.9,2.06,1.04.26.04.82.05,1.08,0,.83-.12,1.55-.48,2.15-1.08.57-.57.93-1.29,1.05-2.11.03-.23.04-.83,0-1.06-.25-1.65-1.52-2.93-3.16-3.18-.27-.04-.89-.04-1.16,0" fill-rule="evenodd"/>
</svg>