<?xml version="1.0" encoding="UTF-8"?>
<svg id="Lager_1" data-name="Lager 1" xmlns="http://www.w3.org/2000/svg" viewBox="0 0 24 24">
  <g id="Union">
    <path d="M15.71,20.67h-.88v-4.72h.88c1.05,0,2.02-.46,2.69-1.22h-5.79V3.33h11.4v9.04c0,4.57-3.72,8.29-8.29,8.29ZM16.58,17.62v1.23c3.2-.43,5.67-3.17,5.67-6.49v-7.29h-7.9v7.89h6.79l-.41,1.17c-.65,1.84-2.26,3.16-4.15,3.48ZM3.1,20.67h-.88v-4.72h.88c1.05,0,2.02-.46,2.69-1.22H0V3.33h11.4v9.04c0,4.57-3.72,8.29-8.29,8.29ZM3.98,17.62v1.23c3.2-.43,5.67-3.17,5.67-6.49v-7.29H1.75v7.89h6.79l-.41,1.17c-.65,1.84-2.26,3.16-4.15,3.48Z"/>
  </g>
</svg>