<?xml version="1.0" encoding="UTF-8"?>
<svg id="Lager_1" data-name="Lager 1" xmlns="http://www.w3.org/2000/svg" viewBox="0 0 24 24">
  <path d="M11.24,2.11c-3.49.29-6.55,2.35-8.11,5.47-.51,1.01-.85,2.17-.99,3.37-.06.5-.06,1.58,0,2.09.17,1.48.61,2.81,1.33,4.02l.19.31h-1.15s-1.15.01-1.15.01l-.14.06c-.47.22-.66.79-.41,1.24.08.13.26.3.4.37l.12.06h4.63l.16-.08c.17-.08.32-.23.4-.39.09-.18.1-.32.09-2.58v-2.18s-.08-.16-.08-.16c-.09-.2-.24-.35-.44-.44-.29-.13-.64-.09-.89.11-.12.09-.26.28-.3.4-.01.03-.03.53-.03,1.1v1.04s-.12-.22-.12-.22c-.45-.87-.72-1.78-.85-2.83-.06-.49-.05-1.39.01-1.89.18-1.32.61-2.47,1.32-3.55,1.12-1.68,2.82-2.87,4.8-3.37.69-.17,1.26-.24,2.04-.24,1.02,0,1.89.16,2.84.53.33.13.38.14.56.14.18,0,.22,0,.36-.07.57-.27.69-.99.24-1.43-.14-.13-.34-.22-.92-.42-.66-.22-1.32-.37-2.04-.46-.37-.04-1.49-.07-1.87-.03M18.24,4.87c-.19.01-.26.03-.37.08-.17.09-.33.26-.42.44l-.06.14v4.58l.07.15c.09.2.29.39.49.46.16.06.43.07.58.02.23-.07.44-.27.54-.5.05-.11.05-.14.07-1.16v-1.04s.16.29.16.29c.43.85.71,1.78.83,2.81.04.35.04,1.39,0,1.72-.24,1.89-.99,3.5-2.25,4.8-1.35,1.39-3.04,2.22-5.02,2.45-.39.05-1.46.04-1.84-.01-.72-.1-1.33-.25-1.94-.49-.32-.12-.36-.13-.55-.14-.18,0-.22,0-.36.07-.57.27-.69,1-.23,1.43.14.14.35.23.99.44.67.22,1.27.35,2.06.45.41.05,1.69.04,2.12-.01,3.14-.39,5.78-2.08,7.4-4.76.71-1.17,1.17-2.53,1.35-3.99.06-.49.06-1.71,0-2.21-.18-1.45-.62-2.78-1.33-3.97-.09-.16-.17-.29-.17-.29s.47-.01,1.05-.01c.61,0,1.11-.01,1.18-.02.18-.03.33-.11.46-.24.44-.44.29-1.19-.29-1.42l-.14-.06h-2.07c-1.14-.01-2.18,0-2.31,0" fill-rule="evenodd"/>
</svg>