<?xml version="1.0" encoding="UTF-8"?>
<svg id="Lager_1" data-name="Lager 1" xmlns="http://www.w3.org/2000/svg" viewBox="0 0 24 24">
  <path d="M7.91,2.85c-.23.04-.53.14-.7.23-.34.19-.42.27-3.08,3.15-1.44,1.56-2.66,2.89-2.72,2.97-.13.16-.33.56-.38.76-.14.55-.09,1.1.14,1.58.06.12.15.28.21.36.06.08,1.29,1.42,2.73,2.99,1.84,1.99,2.68,2.88,2.79,2.97.36.27.81.43,1.28.45.53.03,1.09-.16,1.52-.51.29-.23.57-.63.69-.99.12-.34.13-.5.13-1.59v-1.01h2.59c2.18.02,2.63.03,2.85.06.87.12,1.68.41,2.39.83,1.37.83,2.38,2.2,2.76,3.74.1.4.14.72.17,1.22.03.47.05.57.19.76.32.42.93.47,1.31.09.06-.06.14-.17.18-.25l.06-.13v-6.58l-.06-.35c-.14-.88-.35-1.56-.74-2.34-.4-.81-.82-1.4-1.49-2.07-.68-.68-1.24-1.08-2.09-1.5-.76-.37-1.42-.58-2.3-.72-.33-.05-.36-.05-3.08-.06h-2.74s0-1.12,0-1.12c0-1.07-.01-1.12-.06-1.3-.23-.81-.84-1.41-1.66-1.62-.24-.06-.67-.08-.92-.03M8.13,4.6c-.06.02-.14.07-.19.11-.24.23-5.14,5.56-5.18,5.63-.07.13-.06.33.01.46.05.08,4.42,4.84,5.02,5.47.18.19.23.23.34.26.17.05.35.01.48-.1.18-.16.17-.08.19-1.78v-1.52s.08-.14.08-.14c.08-.17.25-.35.41-.42.06-.03.18-.07.27-.08.1-.02,1.25-.02,3.21-.02,2.74,0,3.09.01,3.38.05.93.12,1.71.35,2.51.74.93.45,1.73,1.06,2.45,1.87l.2.22v-.48c0-.56-.03-.88-.11-1.3-.11-.57-.27-1.03-.53-1.55-.84-1.67-2.4-2.87-4.24-3.24-.52-.11-.65-.11-3.77-.11-1.77,0-3.03,0-3.12-.02-.28-.05-.54-.24-.66-.5l-.06-.14v-1.54c-.02-1.44-.03-1.54-.07-1.62-.07-.12-.18-.22-.31-.26-.14-.04-.16-.04-.3,0" fill-rule="evenodd"/>
</svg>