<?xml version="1.0" encoding="UTF-8"?>
<svg id="Lager_1" data-name="Lager 1" xmlns="http://www.w3.org/2000/svg" viewBox="0 0 24 24">
  <path d="M9.28.71c-.21.01-.71.08-.98.13-1.33.25-2.71.84-3.8,1.64-1.44,1.05-2.6,2.6-3.23,4.28-.56,1.51-.71,3.28-.42,4.85.32,1.78,1.21,3.52,2.45,4.78,1.87,1.91,4.28,2.9,6.92,2.84,1.15-.03,2.12-.22,3.19-.65.81-.32,1.75-.86,2.42-1.4l.08-.06,3.03,3.02c3.35,3.35,3.11,3.13,3.46,3.15.26.02.46-.06.66-.25.19-.18.28-.41.26-.68-.02-.35.2-.1-3.14-3.45-1.66-1.66-3.02-3.03-3.02-3.04s.06-.1.14-.19c.44-.54.9-1.32,1.21-2.01.88-2.02,1.01-4.41.34-6.49-.44-1.36-1.17-2.61-2.11-3.59-1.82-1.9-4.22-2.92-6.81-2.9-.28,0-.57,0-.64.01M9.31,2.47c-1.49.13-2.98.75-4.16,1.72-.45.37-.95.92-1.32,1.44-1.33,1.87-1.73,4.36-1.04,6.55.2.64.56,1.4.91,1.93.92,1.38,2.29,2.44,3.83,2.96,1.41.48,2.89.54,4.32.17.87-.22,1.85-.69,2.56-1.21,1.23-.9,2.21-2.23,2.69-3.67.71-2.11.46-4.38-.69-6.3-.52-.86-1.25-1.65-2.11-2.26-1.27-.9-2.81-1.38-4.38-1.37-.22,0-.5.01-.62.02" fill-rule="evenodd"/>
</svg>