<?xml version="1.0" encoding="UTF-8"?>
<svg id="Lager_1" data-name="Lager 1" xmlns="http://www.w3.org/2000/svg" viewBox="0 0 24 24">
  <path d="M20.07.74c-.26.06-.36.09-.61.22-.25.13-17.34,10.82-17.51,10.95-.65.5-1.02,1.38-.91,2.18.08.57.3,1.03.68,1.42.39.4.87.63,1.43.7.1.01,1.16.02,2.5.02h2.32s0,2.14,0,2.14c0,2.1,0,2.15.06,2.33.2.73.63,1.27,1.29,1.6.35.17.65.24,1.07.24.41,0,.72-.07,1.07-.24.14-.07.91-.58,2.26-1.51l.29-.2.69.93c.38.51.76.99.85,1.08.54.53,1.34.78,2.1.64.52-.09.96-.33,1.32-.71.3-.31.5-.67.6-1.05.02-.09.8-4.19,1.72-9.12l1.69-8.96v-.34c0-.28-.01-.37-.06-.57-.21-.8-.8-1.44-1.57-1.7-.35-.12-.9-.15-1.28-.07M11.25,8.16c-4.49,2.81-8.2,5.13-8.25,5.17-.2.16-.28.52-.16.77.07.14.25.31.38.35.12.04,2.72.06,5.59.03l1.95-.02,4.1-5.4c2.26-2.97,4.21-5.54,4.34-5.71.13-.17.23-.31.23-.31,0,0-3.68,2.3-8.17,5.11M16.7,9.53c-2.43,3.19-4.41,5.82-4.42,5.83,0,.02,4.36,5.87,4.47,5.99.19.2.52.26.78.13.15-.07.28-.22.33-.36.03-.1,3.27-17.35,3.26-17.37,0-.01-1.99,2.6-4.42,5.79M9.73,18.28c0,2.01,0,2.04.06,2.14.14.29.46.45.77.37.11-.03.33-.17,1.21-.77.59-.4,1.1-.75,1.13-.77l.05-.04-1.11-1.48-1.11-1.48h-1.01v2.03" fill-rule="evenodd"/>
</svg>