<?xml version="1.0" encoding="UTF-8"?>
<svg id="Lager_1" data-name="Lager 1" xmlns="http://www.w3.org/2000/svg" viewBox="0 0 24 24">
  <path d="M8.16.72c-.17.02-.54.11-.73.19-.6.24-1.1.7-1.39,1.28-.17.33-.24.57-.28.93-.02.16-.01.42.01,1.05l.04.83-.05.17c-.09.3-.33.53-.64.62-.14.04-.18.04-.99,0-.9-.04-1.08-.04-1.43.05-.78.2-1.47.79-1.79,1.55-.16.37-.21.6-.21,1.02,0,.47.06.79.24,1.17.19.41.36.61,1.08,1.27.61.56.67.62.75.79.06.13.07.17.07.37,0,.25-.03.37-.15.53-.03.05-.32.32-.63.61-.65.58-.75.69-.93.97-.36.55-.51,1.25-.4,1.89.15.9.71,1.62,1.53,2.01.51.24.77.27,1.85.22.58-.03.85-.03.94-.02.4.08.72.44.74.85,0,.09,0,.49-.03.88-.05.98-.02,1.28.22,1.79.15.31.28.5.51.74.41.43.94.7,1.58.79.59.09,1.31-.07,1.82-.41.25-.16.4-.31.94-.9.58-.64.58-.64.77-.73.14-.07.18-.07.4-.07.42,0,.45.03,1.25.91.26.29.53.56.65.65.3.24.71.43,1.13.52.2.04.57.06.81.04.75-.08,1.43-.46,1.88-1.06.18-.24.39-.66.45-.91.1-.38.1-.54.06-1.43-.04-.79-.04-.84,0-.98.07-.25.24-.47.49-.59.2-.1.29-.11,1.17-.06.94.05,1.13.04,1.52-.09.98-.31,1.68-1.12,1.86-2.14.12-.69-.07-1.46-.49-2.03-.14-.18-.38-.43-.98-.96-.59-.53-.64-.61-.64-1.01s.07-.49.63-1c.61-.55.86-.79.99-.97.43-.57.61-1.34.49-2.03-.18-1.04-.91-1.86-1.92-2.16-.38-.11-.57-.12-1.47-.07-.88.05-.96.04-1.18-.07-.14-.07-.35-.29-.41-.43-.09-.2-.09-.3-.05-1.16.04-.87.03-1.07-.05-1.41-.1-.37-.37-.86-.65-1.16-.38-.41-.99-.73-1.6-.82-.4-.06-.97.01-1.38.18-.46.19-.68.37-1.32,1.06-.64.7-.66.72-.84.81-.14.07-.18.07-.39.07s-.24,0-.38-.08c-.2-.1-.22-.11-.79-.74-.54-.6-.67-.72-.92-.89-.49-.32-1.16-.49-1.75-.43M8.28,2.48c-.29.05-.54.24-.68.51-.07.14-.07.14-.07.55,0,.22,0,.7.01,1.07.01.73,0,.8-.14,1.2-.29.81-.98,1.43-1.83,1.67-.3.08-.66.1-1.38.06-.95-.05-1.06-.04-1.31.12-.43.27-.54.88-.26,1.31.03.05.32.32.63.61.59.54.75.7.91.95.45.66.56,1.56.3,2.33-.19.57-.39.83-1.21,1.57-.25.22-.5.46-.57.54-.41.45-.27,1.16.28,1.44.22.11.27.11,1.16.07.67-.03.88-.04,1.06-.01.63.08,1.21.37,1.64.82.37.39.6.86.7,1.4.04.22.04.31,0,1.62-.02.51,0,.62.16.84.17.25.45.39.77.39.37,0,.49-.08,1.12-.78.53-.59.71-.76.96-.92.77-.52,1.84-.58,2.66-.17.4.2.58.36,1.23,1.06.55.61.59.64.77.72.13.06.17.07.38.07s.25,0,.4-.08c.29-.14.48-.4.52-.7.01-.09,0-.38-.01-.76-.04-.73-.03-1.23.04-1.48.28-1.08,1.1-1.84,2.17-2.03.26-.05.47-.05,1.31,0,.74.04.84.03,1.07-.09.48-.26.64-.89.33-1.35-.03-.05-.29-.3-.59-.56-.29-.26-.6-.56-.69-.65-.95-1-.95-2.62,0-3.64.09-.1.4-.39.69-.65.29-.26.56-.52.59-.56.22-.33.21-.79-.03-1.1-.17-.22-.43-.36-.71-.36-.09,0-.48.01-.89.03-.57.03-.78.03-.95,0-1.14-.14-2.07-.99-2.3-2.12-.06-.29-.07-.55-.03-1.32.04-.83.04-.93-.07-1.14-.18-.35-.63-.57-.99-.49-.3.06-.39.14-1.13.95-.2.23-.43.46-.49.51-.49.43-1.13.67-1.78.67-.54,0-1.05-.16-1.5-.46-.25-.17-.38-.3-.94-.92-.51-.56-.63-.67-.84-.73-.14-.04-.29-.05-.43-.03M11.3,7c-1.09.15-2.08.65-2.87,1.44-.54.54-.91,1.11-1.17,1.82-.41,1.09-.41,2.39,0,3.5.62,1.67,2.06,2.88,3.85,3.23.24.05.36.05.89.05s.65,0,.89-.05c1.59-.3,2.92-1.3,3.62-2.72.36-.73.53-1.43.53-2.26,0-1.37-.51-2.6-1.47-3.56-.76-.76-1.65-1.22-2.72-1.42-.32-.06-1.19-.07-1.54-.02M11.5,8.75c-.73.12-1.35.44-1.85.96-.31.32-.48.57-.65.95-.49,1.11-.34,2.4.4,3.35.13.17.47.5.64.63,1.17.87,2.8.86,3.96-.02.15-.12.49-.45.61-.61.64-.82.84-1.93.55-2.93-.16-.55-.45-1.03-.87-1.44-.51-.49-1.09-.78-1.8-.9-.26-.04-.75-.04-1,0" fill-rule="evenodd"/>
</svg>