<?xml version="1.0" encoding="UTF-8"?>
<svg id="Lager_1" data-name="Lager 1" xmlns="http://www.w3.org/2000/svg" viewBox="0 0 24 24">
  <path d="M7.57,4.13c-1.01.1-1.89.67-2.42,1.55-.12.2-.26.54-.32.75l-.03.1h-1.49s-1.49.01-1.49.01l-.13.06c-.17.08-.35.26-.43.43-.09.19-.1.48-.03.68.07.19.27.4.46.49l.15.07h1.52s1.52.02,1.52.02l.08.2c.39.97,1.32,1.71,2.37,1.9.29.05.8.05,1.09,0,.79-.14,1.54-.61,2.01-1.26.16-.22.36-.59.4-.74l.03-.1h5.65s5.65-.01,5.65-.01l.15-.07c.18-.08.37-.27.45-.44.04-.09.05-.16.05-.35,0-.21,0-.26-.06-.37-.08-.17-.26-.35-.43-.43l-.13-.06h-5.62c-4.45-.01-5.62-.02-5.63-.04-.17-.6-.44-1.06-.85-1.48-.65-.65-1.6-.99-2.52-.89M7.7,5.89c-.31.03-.56.16-.81.4-.29.29-.41.59-.41.99s.12.7.41.99c.29.29.57.41.97.41.42,0,.71-.12,1-.41.28-.28.41-.58.41-.98s-.12-.7-.41-.98c-.1-.1-.24-.21-.33-.26-.24-.13-.55-.18-.84-.15M15.77,13.59c-1.19.13-2.22.96-2.62,2.09l-.06.16h-5.53c-3.89,0-5.58,0-5.68.03-.08.01-.18.05-.24.07-.15.07-.31.24-.39.4-.06.13-.07.16-.07.38s0,.26.06.38c.08.17.25.34.43.42l.13.06h5.64s5.64.02,5.64.02l.09.23c.28.74.85,1.37,1.56,1.73.65.32,1.48.41,2.21.22.78-.2,1.46-.71,1.9-1.43.12-.19.17-.31.26-.56l.07-.18h1.51s1.51-.02,1.51-.02l.13-.06c.17-.08.35-.26.43-.43.05-.11.06-.16.06-.37s0-.25-.07-.38c-.08-.15-.24-.32-.39-.4-.18-.09-.33-.1-1.78-.1h-1.41s-.06-.17-.06-.17c-.1-.3-.26-.59-.5-.89-.67-.86-1.75-1.31-2.84-1.19M15.93,15.34c-.31.05-.55.17-.78.41-.29.29-.41.58-.41.99,0,.39.13.69.41.98.29.29.58.41,1,.41.4,0,.69-.12.98-.41.29-.28.41-.58.41-.97,0-.46-.16-.8-.53-1.11-.27-.23-.71-.35-1.08-.29" fill-rule="evenodd"/>
</svg>