<?xml version="1.0" encoding="UTF-8"?>
<svg id="Lager_1" data-name="Lager 1" xmlns="http://www.w3.org/2000/svg" viewBox="0 0 24 24">
  <path d="M16.5.83c-.56.12-1,.47-1.25.98-.13.27-.16.4-.18,1.01-.01.3-.03.55-.03.55,0,0-.25.01-.56.03-.34.02-.6.04-.69.06-.61.17-1.1.66-1.27,1.27-.07.24-.07.66-.01.9.09.35.28.65.53.88.09.08.34.26.57.4l.42.26-.17.31c-.35.66-.41.82-.44,1.17-.03.34.08.78.27,1.08.19.29.56.61.85.72.32.12.71.15,1.02.09.23-.05.37-.11.83-.35.22-.12.41-.21.41-.21s.12.17.25.38c.29.46.41.62.57.76.34.29.71.43,1.15.43.3,0,.53-.05.8-.18.27-.13.47-.29.63-.51.27-.36.36-.65.38-1.24,0-.22.02-.46.02-.53v-.13s.28,0,.28,0c.48,0,.86-.04,1.07-.11.48-.16.91-.56,1.1-1.01.16-.4.18-.88.04-1.26-.17-.48-.42-.76-1.05-1.14-.22-.14-.41-.26-.41-.27,0,0,.1-.22.23-.47.32-.62.35-.7.35-1.14,0-.27-.01-.38-.05-.49-.19-.61-.67-1.08-1.26-1.24-.26-.07-.65-.07-.91,0-.17.04-.45.17-1.01.47-.08.04-.15.07-.16.07,0,0-.13-.2-.27-.43-.16-.25-.32-.48-.42-.58-.16-.17-.41-.34-.63-.43-.3-.12-.71-.15-1.02-.08M16.84,2.58s-.02.31-.03.65c-.02.42-.04.67-.06.76-.14.51-.59.96-1.09,1.09-.12.03-.82.08-1.23.08-.16,0-.19,0-.18.04,0,.02.22.18.51.36.54.34.73.5.87.74.24.4.3.89.15,1.32-.03.08-.17.37-.31.64-.24.45-.29.58-.25.58,0,0,.25-.12.53-.28.63-.34.73-.37,1.05-.39.31-.02.54.03.81.17.31.15.47.34.85.94.17.28.32.51.34.51.04.01.06-.14.06-.47,0-.51.04-.86.1-1.05.16-.47.6-.88,1.08-1,.12-.03.92-.08,1.34-.08.04,0,.07-.01.07-.03,0-.02-.15-.13-.34-.24-.8-.49-.95-.63-1.12-.98-.13-.26-.18-.51-.16-.8.02-.3.07-.44.39-1.04.15-.28.27-.53.26-.55,0-.02-.1.02-.33.14-.87.47-1.01.52-1.42.5-.31-.01-.5-.07-.73-.2-.26-.15-.41-.33-.77-.9-.18-.29-.33-.52-.34-.52-.01,0-.02.01-.03.03M17.57,4.85c-.31.05-.69.31-.87.6-.15.24-.19.4-.19.73,0,.25,0,.31.06.44.24.64.89,1,1.56.85.34-.07.63-.28.84-.6.27-.41.27-1.02,0-1.43-.31-.47-.83-.69-1.39-.6M5.95,7.47c-.68.11-1.31.62-1.57,1.27-.13.32-.14.38-.15,1.17-.02,1.02.03.97-.81.93-.56-.03-.62-.03-.91.02-.41.07-.83.3-1.14.64-.18.19-.28.36-.4.62-.26.6-.19,1.35.17,1.91.14.22.26.34.7.73.24.21.37.35.39.4.04.11.03.26-.02.34-.02.04-.22.23-.43.42-.56.5-.77.8-.89,1.27-.07.27-.09.66-.03.92.17.83.73,1.42,1.57,1.65.1.03.32.04.85.05.78.01.81.02.89.14.04.06.04.15.06.81.01.67.02.76.07.93.17.57.56,1.05,1.07,1.31.71.36,1.56.28,2.19-.19.08-.06.32-.3.53-.52.21-.23.4-.43.42-.44.07-.05.26-.06.34,0,.04.02.25.23.46.46.41.44.6.61.9.74.67.3,1.42.24,2.05-.18.43-.28.76-.78.86-1.29.03-.14.04-.33.04-.83,0-.59,0-.65.05-.74.08-.17.07-.17.88-.18.75-.02.87-.03,1.16-.14.37-.14.82-.51,1-.82.24-.41.33-.76.31-1.22-.02-.34-.05-.5-.19-.79-.14-.31-.31-.5-.77-.92-.42-.38-.47-.44-.47-.59s.07-.24.39-.53c.55-.48.76-.73.9-1.07.12-.3.14-.42.14-.83,0-.35,0-.4-.07-.59-.2-.6-.59-1.04-1.16-1.3-.36-.16-.63-.19-1.36-.16-.52.03-.55.02-.63-.02-.17-.09-.18-.14-.18-.87s-.02-.89-.13-1.17c-.32-.8-1.08-1.33-1.92-1.33-.49,0-.94.15-1.32.45-.07.05-.28.27-.47.49-.43.48-.46.51-.63.49-.15-.01-.09.04-.74-.66-.42-.45-.71-.63-1.19-.73-.23-.05-.58-.06-.79-.02M6.15,9.24s-.1.08-.13.13c-.04.07-.05.12-.05.73,0,.71-.02.89-.13,1.18-.26.65-.78,1.11-1.46,1.28-.18.04-.28.05-.6.05-.21,0-.39,0-.4-.01-.01,0-.14-.01-.3-.01-.24,0-.29,0-.36.05-.1.06-.14.12-.15.25-.02.15.04.23.43.57.53.47.67.64.84,1.04.23.54.2,1.3-.08,1.81-.15.28-.32.47-.74.85-.44.4-.49.46-.46.63.02.11.12.22.22.25.05.01.36.02.72.02.67,0,.82.02,1.12.13.6.23,1.08.74,1.27,1.38.05.16.05.25.07.92.01.53.02.76.04.8.09.15.32.21.45.11.04-.03.23-.23.43-.44.44-.47.55-.57.86-.72.36-.18.48-.2.94-.2.44,0,.59.03.95.22.28.14.45.29.88.76.4.44.45.47.63.43.1-.03.21-.13.23-.22,0-.03.02-.37.02-.75,0-.67.01-.7.07-.91.22-.72.75-1.24,1.47-1.45.11-.03.3-.04.88-.05.66-.01.75-.02.81-.06.14-.09.2-.28.12-.42-.02-.04-.19-.21-.39-.39-.55-.5-.66-.63-.82-.99-.15-.32-.18-.46-.18-.89,0-.35,0-.4.07-.6.08-.27.23-.55.39-.75.07-.08.3-.31.52-.5.42-.37.46-.43.44-.6-.02-.11-.07-.19-.16-.24-.08-.04-.25-.04-.82-.01-.42.02-.71,0-.98-.09-.64-.22-1.12-.7-1.33-1.34-.08-.26-.1-.44-.1-1.09,0-.59,0-.63-.05-.71-.05-.1-.17-.17-.28-.17s-.23.09-.42.31c-.57.65-.84.87-1.23,1.01-.27.1-.45.13-.74.13-.37,0-.63-.06-.96-.23-.29-.15-.44-.28-.84-.73-.2-.22-.39-.42-.43-.44-.1-.06-.2-.05-.3,0M8.38,12.67c-1.08.13-1.97.93-2.24,2-.05.18-.05.28-.05.61,0,.35,0,.42.07.64.34,1.26,1.5,2.07,2.79,1.95,1.01-.09,1.89-.78,2.22-1.74.42-1.22-.1-2.57-1.23-3.17-.47-.25-1.04-.36-1.55-.3M8.55,14.43c-.36.05-.64.34-.7.71-.03.15-.02.19.01.34.07.29.25.49.53.6.19.08.49.07.67-.02.29-.14.47-.42.49-.74.03-.55-.45-.97-1-.88" fill-rule="evenodd"/>
</svg>