<?xml version="1.0" encoding="UTF-8"?>
<svg id="Lager_1" data-name="Lager 1" xmlns="http://www.w3.org/2000/svg" viewBox="0 0 24 24">
  <path d="M16.55.76c-.49.21-.7.74-.47,1.22.04.08.41.47,1.44,1.51l1.39,1.4h-2.93c-2.79,0-2.94,0-3.2.05-1.45.25-2.59,1.31-2.94,2.73-.11.43-.11.5-.11,2.56,0,1.81,0,1.96.04,2.08.09.25.31.47.55.55.17.06.43.05.61-.02.2-.07.41-.29.49-.49l.06-.14v-2.02c.03-1.8.03-2.03.07-2.15.1-.35.27-.61.55-.88.22-.2.45-.34.75-.44l.17-.06h2.95s2.95-.01,2.95-.01l-1.4,1.4c-.9.9-1.41,1.43-1.44,1.5-.11.23-.12.56,0,.78.07.14.25.32.39.39.23.12.54.12.79,0,.09-.04.62-.56,2.31-2.25,1.83-1.82,2.21-2.22,2.27-2.33.06-.12.07-.16.07-.37,0-.42.18-.22-2.32-2.71-2.47-2.46-2.3-2.32-2.68-2.33-.17,0-.23,0-.34.05M3.89,7.7c-.62.13-1.17.53-1.49,1.08-.1.16-.19.38-.25.61-.04.15-.04.41-.04,6.11v5.95l.07.21c.21.66.64,1.16,1.25,1.44.1.05.27.11.38.14l.2.05h13.22l.2-.05c.78-.21,1.37-.78,1.63-1.58l.07-.21v-7.59l-.08-.16c-.17-.35-.53-.53-.92-.47-.29.05-.52.22-.66.5l-.07.16v3.66c-.02,3.41-.03,3.67-.07,3.74-.06.1-.2.22-.31.25-.06.02-2.34.02-6.46.02h-6.37s-.1-.07-.1-.07c-.06-.04-.13-.11-.17-.17l-.07-.1v-5.68c-.01-4.04,0-5.7.01-5.77.03-.12.16-.25.28-.31.09-.04.18-.04,1.2-.04.69,0,1.16-.01,1.25-.03.59-.11.9-.76.62-1.28-.09-.16-.29-.34-.45-.4-.13-.05-.17-.05-1.42-.05-1.01,0-1.32,0-1.45.04" fill-rule="evenodd"/>
</svg>