<?xml version="1.0" encoding="UTF-8"?>
<svg id="Lager_1" data-name="Lager 1" xmlns="http://www.w3.org/2000/svg" viewBox="0 0 24 24">
  <path d="M19.38,9.1l-3.13-3.13c-.34-.34-.9-.34-1.24,0-.34.34-.34.9,0,1.24l1.48,1.48h-7.08c-2.78,0-5.04,2.26-5.04,5.04,0,2.51,2.04,4.55,4.55,4.55.48,0,.88-.39.88-.88s-.39-.88-.88-.88c-1.54,0-2.8-1.26-2.8-2.8,0-1.82,1.48-3.29,3.29-3.29h7.4l-1.79,1.79c-.34.34-.34.9,0,1.24.17.17.4.26.62.26s.45-.08.62-.26l3.13-3.13c.34-.34.34-.9,0-1.24Z"/>
  <path d="M12,0C5.37,0,0,5.37,0,12s5.37,12,12,12,12-5.37,12-12S18.63,0,12,0ZM12,22.25c-5.65,0-10.25-4.6-10.25-10.25S6.35,1.75,12,1.75s10.25,4.6,10.25,10.25-4.6,10.25-10.25,10.25Z"/>
</svg>