<?xml version="1.0" encoding="UTF-8"?>
<svg id="Lager_1" data-name="Lager 1" xmlns="http://www.w3.org/2000/svg" viewBox="0 0 24 24">
  <path d="M11.16.72c-2.74.22-5.23,1.36-7.15,3.28-1.79,1.79-2.91,4.09-3.23,6.59-.12.93-.12,1.88,0,2.81.31,2.5,1.44,4.8,3.23,6.59,1.75,1.75,3.98,2.86,6.41,3.2,2.72.38,5.48-.24,7.76-1.73,2.74-1.8,4.56-4.66,5.02-7.89.38-2.72-.24-5.48-1.73-7.76-1.84-2.8-4.76-4.63-8.06-5.04-.68-.08-1.61-.11-2.24-.06M11.42,2.46c-1.4.12-2.43.39-3.57.93-1.92.92-3.54,2.54-4.46,4.46-.48,1-.75,1.97-.89,3.11-.06.49-.06,1.58,0,2.06.14,1.15.42,2.11.89,3.11.92,1.92,2.54,3.54,4.46,4.46,1,.48,1.97.75,3.11.89.49.06,1.58.06,2.08,0,2.27-.27,4.24-1.23,5.8-2.84.9-.93,1.56-1.94,2.04-3.13.82-2.06.89-4.37.2-6.49-.67-2.07-2.06-3.87-3.9-5.06-1.24-.8-2.61-1.29-4.13-1.47-.31-.04-1.39-.07-1.63-.04M7.97,5.82s-.14.02-.24.04c-.77.11-1.58.49-2.17,1.03-.34.31-.7.79-.89,1.17-.09.18-.09.2-.09.41,0,.2,0,.25.06.36.16.35.53.56.89.51.16-.02.43-.15.52-.25.04-.04.12-.16.19-.28.3-.52.63-.82,1.14-1.04.45-.2.82-.25,1.29-.18.16.02.35.04.43.03.28-.03.56-.23.69-.5.05-.11.06-.16.06-.37,0-.28-.05-.4-.23-.6-.14-.15-.32-.23-.61-.29-.21-.04-.92-.07-1.04-.05M15.29,7.17s-.14.02-.24.03c-.21.03-.37.07-.47.13-.12.06-.29.25-.36.39-.06.12-.07.16-.07.38s0,.25.07.38c.08.17.26.34.44.42.16.08.35.08.75.03.9-.12,1.84.36,2.32,1.18.16.28.31.43.48.51.09.04.16.05.35.05.22,0,.25,0,.38-.07.18-.09.32-.23.41-.41.06-.13.07-.17.07-.37,0-.21,0-.24-.08-.4-.11-.23-.4-.65-.6-.88-.63-.72-1.59-1.22-2.55-1.35-.24-.03-.76-.04-.92-.02M8.38,10.85c-.58.09-1.04.62-1.04,1.21,0,.47.27.9.71,1.11l.19.09h.65l.19-.09c.22-.1.47-.34.57-.54.18-.34.18-.79,0-1.14-.08-.15-.29-.38-.45-.48-.22-.14-.56-.21-.84-.17M15.7,10.85c-.29.04-.5.16-.71.39-.22.24-.32.5-.32.82,0,.34.11.6.36.86.12.12.21.19.35.25l.19.09h.65l.19-.09c.34-.17.61-.5.68-.85.17-.84-.54-1.6-1.39-1.47M14.45,15.39c-.84.06-1.58.4-2.19,1-.37.37-.44.51-.44.83,0,.2,0,.23.08.38.09.19.24.34.43.42.12.05.17.06.35.06.31,0,.43-.06.74-.38.27-.27.45-.39.74-.49.17-.06.23-.06.53-.06.32,0,.34,0,.59.09.19.07.29.09.41.09.64,0,1.06-.68.78-1.26-.13-.26-.36-.42-.81-.55-.4-.12-.8-.16-1.21-.13" fill-rule="evenodd"/>
</svg>