<?xml version="1.0" encoding="UTF-8"?>
<svg id="Lager_1" data-name="Lager 1" xmlns="http://www.w3.org/2000/svg" viewBox="0 0 24 24">
  <path d="M11.16.73c-1.53.11-3.21.6-4.53,1.32-.31.17-.83.49-1.1.68-.12.08-.18.1-.34.13-.89.14-1.84.58-2.56,1.18-1.61,1.34-2.29,3.45-1.77,5.51.05.2.05.21.01.42-.25,1.34-.24,2.82.02,4.19.43,2.19,1.47,4.16,3.06,5.78,1.69,1.72,3.98,2.89,6.38,3.24,1,.15,2.32.15,3.32,0,1.84-.27,3.64-1.03,5.14-2.16,1.35-1.01,2.54-2.44,3.29-3.93,1.11-2.21,1.47-4.69,1.03-7.13-.04-.21-.04-.22.02-.46.12-.46.15-.73.15-1.31,0-.6-.03-.88-.16-1.36-.18-.71-.54-1.42-1-2.01-.32-.41-.89-.92-1.38-1.23-.53-.34-1.33-.64-1.96-.74-.18-.03-.21-.04-.47-.21-.81-.54-1.39-.84-2.21-1.16-1.08-.42-2.2-.67-3.35-.76-.39-.03-1.22-.03-1.62,0M11.42,2.47c-.97.07-1.89.27-2.76.59-.48.18-.47.14-.11.33,1.57.81,2.63,2.31,2.88,4.07.05.39.05,1.08,0,1.46-.19,1.32-.86,2.54-1.86,3.38-.79.67-1.75,1.09-2.76,1.23-.33.05-1.04.05-1.36.01-1.05-.13-2-.54-2.8-1.2l-.21-.17v.12c0,.17.06.82.11,1.1.37,2.43,1.6,4.56,3.52,6.1,1.27,1.02,2.96,1.74,4.6,1.97.86.12,1.81.12,2.66,0,2.03-.28,3.96-1.24,5.42-2.7,1.64-1.64,2.59-3.73,2.78-6.07.01-.17.02-.35.02-.4v-.1l-.21.17c-.8.66-1.76,1.07-2.8,1.2-.32.04-1.03.03-1.36-.01-1.75-.24-3.27-1.32-4.08-2.88-.27-.52-.46-1.13-.55-1.72-.06-.38-.06-1.07,0-1.46.25-1.76,1.3-3.26,2.88-4.07.26-.14.3-.16.26-.18-.11-.06-.73-.28-1.03-.36-.89-.26-1.59-.36-2.53-.37-.32,0-.65,0-.72,0M5.66,4.57c-1.37.15-2.56,1.12-3.01,2.42-.22.65-.26,1.29-.12,1.97.06.27.14.51.3.83.52,1.06,1.55,1.82,2.72,1.99.98.15,1.99-.12,2.77-.72.74-.57,1.23-1.41,1.37-2.32.04-.26.04-.82,0-1.05-.1-.63-.33-1.2-.69-1.68-.16-.21-.51-.57-.71-.72-.74-.56-1.7-.82-2.63-.71M17.42,4.58c-.82.12-1.5.46-2.08,1.03-.57.57-.92,1.26-1.04,2.08-.06.37-.02,1.03.08,1.41.3,1.14,1.18,2.11,2.28,2.5.43.15.79.22,1.24.22.99,0,1.88-.37,2.58-1.07.41-.41.69-.86.88-1.42.27-.82.25-1.68-.07-2.49-.45-1.15-1.51-2.02-2.72-2.24-.3-.05-.86-.07-1.14-.03M7.17,6.3c-.31.07-.65.36-.8.68-.08.17-.09.21-.1.44,0,.2,0,.29.03.4.17.6.79.99,1.4.87.27-.05.45-.15.64-.34.2-.2.29-.37.34-.64.12-.6-.26-1.22-.86-1.39-.14-.04-.5-.05-.66-.01M18.91,6.33c-.55.19-.9.76-.82,1.34.04.28.14.48.35.68.2.2.37.29.64.34.48.09.96-.11,1.25-.53.12-.17.18-.36.19-.59.02-.39-.09-.67-.35-.94-.25-.25-.51-.36-.88-.36-.16,0-.26.01-.38.06M10.44,12.54c-.17.03-.35.13-.46.26-.09.09-.2.29-.51.92-.24.48-.41.84-.42.91-.03.18,0,.41.09.58.09.18.22.3.42.39.34.16.77.06,1.03-.25.09-.11.82-1.58.87-1.74.12-.46-.2-.96-.68-1.06-.14-.03-.19-.03-.34,0M13.19,12.54c-.46.12-.76.6-.65,1.05.04.16.77,1.64.87,1.75.18.21.42.32.7.32.43,0,.8-.34.84-.77,0-.09,0-.21,0-.27-.01-.07-.18-.43-.43-.93-.38-.76-.42-.83-.54-.94-.21-.2-.53-.28-.8-.22M9.73,17.41c-.26.05-.54.29-.63.55-.08.2-.06.52.03.7.09.17.25.33.42.41l.14.06h4.63l.14-.06c.17-.08.33-.24.42-.41.09-.18.11-.5.03-.7-.07-.19-.27-.4-.46-.49l-.15-.07h-2.23c-1.23,0-2.28,0-2.33.01" fill-rule="evenodd"/>
</svg>