<?xml version="1.0" encoding="UTF-8"?>
<svg id="Lager_1" data-name="Lager 1" xmlns="http://www.w3.org/2000/svg" viewBox="0 0 24 24">
  <path d="M11.16.72c-2.74.22-5.23,1.36-7.15,3.28-1.79,1.79-2.91,4.09-3.23,6.59-.12.93-.12,1.88,0,2.81.31,2.5,1.44,4.8,3.23,6.59,1.75,1.75,3.98,2.86,6.41,3.2,2.72.38,5.48-.24,7.76-1.73,2.74-1.8,4.56-4.66,5.02-7.89.38-2.72-.24-5.48-1.73-7.76-1.84-2.8-4.76-4.63-8.06-5.04-.68-.08-1.61-.11-2.24-.06M11.42,2.46c-1.4.12-2.43.39-3.57.93-1.92.92-3.54,2.54-4.46,4.46-.48,1-.75,1.97-.89,3.11-.06.49-.06,1.58,0,2.06.14,1.15.42,2.11.89,3.11.92,1.92,2.54,3.54,4.46,4.46,1,.48,1.97.75,3.11.89.49.06,1.58.06,2.08,0,2.27-.27,4.24-1.23,5.8-2.84.9-.93,1.56-1.94,2.04-3.13.82-2.06.89-4.37.2-6.49-.67-2.07-2.06-3.87-3.9-5.06-1.24-.8-2.61-1.29-4.13-1.47-.31-.04-1.39-.07-1.63-.04M9,6.28c-.6.22-3.68,1.47-3.76,1.53-.43.29-.5.93-.14,1.32.2.21.53.32.81.25.14-.03,3.54-1.39,3.73-1.48.21-.11.38-.36.43-.63.07-.37-.14-.76-.49-.92-.12-.06-.19-.07-.35-.07-.11,0-.22,0-.24,0M14.52,6.3c-.36.14-.56.38-.61.75-.02.14.03.35.1.51.06.12.23.28.34.34.19.1,3.6,1.45,3.73,1.48.27.07.61-.04.81-.25.29-.32.32-.8.06-1.14-.05-.06-.13-.14-.19-.18-.06-.04-.93-.4-1.93-.8l-1.82-.73h-.2c-.13,0-.24,0-.29.02M6.29,10.39c-.27.04-.53.24-.65.5-.09.19-.1.47-.03.66.06.16.28.46.45.62.5.47,1.09.7,1.76.7.71,0,1.28-.23,1.78-.73.25-.25.41-.47.46-.63.07-.26,0-.61-.16-.8-.18-.21-.4-.32-.66-.32-.31,0-.52.1-.75.38-.23.28-.5.39-.79.34-.21-.04-.32-.11-.53-.34-.11-.12-.24-.24-.29-.27-.16-.09-.39-.13-.58-.1M14.65,10.39c-.28.04-.58.27-.68.54-.06.16-.07.42-.03.58.07.25.53.77.87.97.46.28.84.39,1.37.39.44,0,.77-.08,1.14-.27.37-.19.65-.42.88-.73.19-.25.24-.41.23-.65-.03-.63-.66-1.01-1.24-.75-.07.03-.19.14-.36.31-.29.3-.39.35-.68.34-.25,0-.43-.1-.63-.34-.26-.31-.53-.43-.87-.38M9.72,16.71c-.19.04-.31.11-.45.27-.17.19-.23.35-.22.63,0,.18.02.24.08.34.09.17.25.33.42.41l.14.06h4.63l.14-.06c.17-.08.33-.24.42-.41.05-.1.07-.17.08-.34.01-.28-.04-.43-.22-.63-.14-.15-.29-.24-.49-.27-.21-.04-4.35-.03-4.52,0" fill-rule="evenodd"/>
</svg>