<?xml version="1.0" encoding="UTF-8"?>
<svg id="Lager_1" data-name="Lager 1" xmlns="http://www.w3.org/2000/svg" viewBox="0 0 24 24">
  <path d="M11.16.72c-2.74.22-5.23,1.36-7.15,3.28-1.79,1.79-2.91,4.09-3.23,6.59-.12.93-.12,1.88,0,2.81.31,2.5,1.44,4.8,3.23,6.59,1.75,1.75,3.98,2.86,6.41,3.2,2.72.38,5.48-.24,7.76-1.73,2.74-1.8,4.56-4.66,5.02-7.89.38-2.72-.24-5.48-1.73-7.76-1.84-2.8-4.76-4.63-8.06-5.04-.68-.08-1.61-.11-2.24-.06M11.42,2.46c-1.4.12-2.43.39-3.57.93-1.92.92-3.54,2.54-4.46,4.46-.48,1-.75,1.97-.89,3.11-.06.49-.06,1.58,0,2.06.14,1.15.42,2.11.89,3.11.92,1.92,2.54,3.54,4.46,4.46,1,.48,1.97.75,3.11.89.49.06,1.58.06,2.08,0,2.27-.27,4.24-1.23,5.8-2.84.9-.93,1.56-1.94,2.04-3.13.82-2.06.89-4.37.2-6.49-.67-2.07-2.06-3.87-3.9-5.06-1.24-.8-2.61-1.29-4.13-1.47-.31-.04-1.39-.07-1.63-.04M5.85,7.66c-.54.07-.87.63-.69,1.17.31.93,1.19,1.7,2.18,1.9.3.06.79.07,1.08.03.8-.13,1.54-.61,1.98-1.28.29-.43.42-.82.37-1.09-.11-.6-.75-.91-1.28-.62-.19.1-.29.22-.43.51-.14.28-.25.43-.45.56-.21.14-.41.2-.66.2-.25,0-.37-.03-.57-.12-.24-.12-.42-.31-.56-.61-.07-.15-.16-.3-.23-.36-.19-.21-.46-.3-.76-.26M13.95,7.66c-.48.08-.82.54-.73,1.01.04.21.18.53.37.81.45.67,1.19,1.15,1.98,1.28.29.05.78.04,1.08-.03,1-.21,1.87-.97,2.18-1.9.08-.24.06-.48-.04-.7-.26-.54-1-.65-1.41-.21-.06.07-.15.21-.23.36-.14.3-.32.5-.56.61-.2.1-.32.12-.57.12-.34,0-.67-.15-.89-.4-.05-.06-.15-.22-.21-.35-.14-.29-.24-.41-.43-.51-.12-.06-.18-.08-.38-.11-.03,0-.1,0-.17.01M5.6,12.53c-.27.04-.53.24-.65.5-.06.13-.06.15-.06.58,0,2.36,1.35,4.65,3.48,5.92,1.61.96,3.59,1.24,5.44.76,1.22-.32,2.32-.95,3.23-1.86,1.13-1.13,1.83-2.54,2.04-4.15.02-.13.03-.43.03-.67,0-.43,0-.45-.06-.58-.12-.27-.38-.46-.66-.5-.39-.05-.75.14-.92.5-.06.14-.07.18-.09.54-.03.52-.06.77-.17,1.17-.18.69-.58,1.5-1.02,2.03-.16.19-.57.6-.76.77-.62.52-1.48.94-2.29,1.11-1.18.25-2.42.1-3.51-.43-1.07-.52-1.94-1.39-2.46-2.46-.23-.47-.38-.92-.47-1.4-.05-.28-.06-.37-.08-.79-.02-.36-.03-.4-.09-.54-.12-.25-.36-.45-.59-.48-.18-.03-.21-.03-.34-.01" fill-rule="evenodd"/>
</svg>