<?xml version="1.0" encoding="UTF-8"?>
<svg id="Lager_1" data-name="Lager 1" xmlns="http://www.w3.org/2000/svg" viewBox="0 0 24 24">
  <path d="M11.16.72c-2.74.22-5.23,1.36-7.15,3.28-1.79,1.79-2.91,4.09-3.23,6.59-.12.93-.12,1.88,0,2.81.31,2.5,1.44,4.8,3.23,6.59,1.75,1.75,3.98,2.86,6.41,3.2,2.72.38,5.48-.24,7.76-1.73,2.74-1.8,4.56-4.66,5.02-7.89.38-2.72-.24-5.48-1.73-7.76-1.84-2.8-4.76-4.63-8.06-5.04-.68-.08-1.61-.11-2.24-.06M11.42,2.46c-1.4.12-2.43.39-3.57.93-1.92.92-3.54,2.54-4.46,4.46-.48,1-.75,1.97-.89,3.11-.06.49-.06,1.58,0,2.06.14,1.15.42,2.11.89,3.11.92,1.92,2.54,3.54,4.46,4.46,1,.48,1.97.75,3.11.89.49.06,1.58.06,2.08,0,2.27-.27,4.24-1.23,5.8-2.84.9-.93,1.56-1.94,2.04-3.13.82-2.06.89-4.37.2-6.49-.67-2.07-2.06-3.87-3.9-5.06-1.24-.8-2.61-1.29-4.13-1.47-.31-.04-1.39-.07-1.63-.04M14.95,7.69c-1.02.18-1.87.9-2.25,1.88-.13.33-.07.68.16.93.15.16.31.25.52.28.29.05.58-.06.78-.29.05-.06.12-.16.14-.21.11-.26.19-.38.31-.51.23-.23.54-.36.85-.36.33,0,.59.11.84.34.12.11.17.19.29.42.16.32.26.43.49.55.13.07.18.08.34.08.6,0,1.02-.55.85-1.13-.2-.67-.79-1.36-1.51-1.72-.2-.1-.52-.21-.77-.25-.26-.05-.8-.05-1.05,0M8.23,8.03c-.08.02-.19.06-.26.1-.16.08-.45.37-.53.53-.27.54-.11,1.2.38,1.55.24.17.38.21.72.21.24,0,.31,0,.43-.06.3-.12.6-.42.71-.71.07-.19.09-.54.04-.75-.14-.53-.65-.92-1.21-.91-.07,0-.2.02-.27.04M5.6,12.53c-.27.04-.53.24-.65.5-.06.12-.07.17-.07.41-.03,1.07.31,2.39.89,3.43,1.09,1.94,2.97,3.24,5.2,3.58.3.05.44.05,1.03.05.76,0,1.08-.03,1.68-.18,2.57-.63,4.58-2.61,5.23-5.16.15-.57.23-1.22.21-1.72,0-.25-.02-.3-.07-.42-.12-.27-.38-.46-.66-.5-.39-.05-.75.14-.92.5-.06.14-.07.18-.09.55-.05.85-.21,1.49-.56,2.2-.28.56-.61,1.02-1.08,1.47-2.09,2.02-5.4,2.02-7.48,0-1.02-.99-1.55-2.19-1.63-3.67-.02-.37-.03-.41-.09-.55-.12-.25-.36-.45-.59-.48-.18-.03-.21-.03-.34-.01" fill-rule="evenodd"/>
</svg>