<?xml version="1.0" encoding="UTF-8"?>
<svg id="Lager_1" data-name="Lager 1" xmlns="http://www.w3.org/2000/svg" viewBox="0 0 24 24">
  <path d="M11.17.73c-1.35.11-2.52.4-3.77.95-.92.4-1.98,1.07-2.72,1.71l-.17.15-.22-.06c-.34-.09-.54-.12-.91-.1-.73.03-1.3.28-1.83.8-.39.38-.66.86-.8,1.45-.06.24-.07.81-.03,1.07.08.45.25.87.51,1.23l.14.19-.12.38c-.37,1.13-.52,2.07-.55,3.3-.02.91.05,1.63.23,2.51.97,4.67,4.79,8.24,9.52,8.89.56.08.86.1,1.56.09.94,0,1.6-.07,2.46-.26,2.86-.64,5.39-2.39,6.99-4.85.99-1.52,1.56-3.13,1.79-5.01.05-.45.06-1.76.01-2.22-.09-.89-.25-1.62-.51-2.45l-.12-.37.16-.23c.35-.52.52-1.06.52-1.66,0-1.03-.53-1.97-1.42-2.5-.36-.22-.79-.34-1.26-.36-.36-.01-.57,0-.91.1l-.22.06-.16-.14c-.65-.57-1.69-1.25-2.52-1.63-1.34-.61-2.55-.93-4.02-1.04-.35-.03-1.26-.03-1.61,0M11.42,2.47c-1.25.11-2.15.32-3.17.75-.29.12-.74.34-.61.3.27-.09.51-.14.81-.15.38-.02.59.01.94.12.74.23,1.37.78,1.72,1.51.19.4.27.77.27,1.23,0,.34-.02.52-.11.82-.13.46-.37.85-.78,1.29-.99,1.05-3.52,3.65-3.64,3.72-.45.3-1.01.32-1.51.06-.19-.1-.21-.12-1.7-1.66-.67-.69-.87-.89-.89-.86,0,.02-.05.19-.09.37-.6,2.74.06,5.65,1.79,7.88,1.15,1.47,2.72,2.59,4.51,3.19,2,.68,4.21.66,6.2-.05,1.17-.41,2.22-1.03,3.17-1.87,2.39-2.11,3.57-5.32,3.12-8.49-.05-.34-.18-.98-.21-1.04-.01-.02-.34.3-1.06,1.04-.57.59-1.1,1.14-1.18,1.22-.31.3-.61.43-1.01.43-.36,0-.65-.09-.9-.28-.13-.1-3.68-3.77-3.84-3.98-.24-.31-.43-.67-.54-1.09-.07-.27-.1-.83-.06-1.14.15-1.09.94-2.03,1.96-2.34.35-.11.56-.13.94-.12.3.01.54.06.81.15.13.04-.33-.18-.61-.3-.87-.37-1.74-.6-2.69-.71-.31-.04-1.39-.07-1.63-.04M6.47,4.22c-.16.11-.34.25-.41.3-.07.05-.13.1-.13.11-.01.01.1.13.12.12.02-.01.73-.74.72-.74,0,0-.14.09-.3.21M17.58,4.38c.2.2.37.37.37.38.03.01.13-.12.1-.13-.01,0-.12-.09-.23-.17-.11-.09-.29-.22-.41-.3l-.2-.14.36.37M3.25,5.14c-.26.07-.55.3-.68.55-.19.37-.16.84.06,1.17.04.05.75.8,1.58,1.66.83.86,1.58,1.64,1.67,1.73l.16.17,1.68-1.74c.92-.95,1.71-1.78,1.75-1.84.11-.17.16-.38.16-.61,0-.35-.12-.61-.39-.86-.17-.16-.35-.23-.6-.25-.22-.01-.46.05-.62.17-.06.04-.4.38-.75.74-.35.37-.69.7-.75.74-.16.1-.28.13-.49.13-.15,0-.21-.01-.34-.08-.14-.07-.22-.13-.65-.59-.87-.89-.93-.95-1.1-1.03-.13-.06-.19-.07-.36-.08-.11,0-.25,0-.3.02M15.11,5.16c-.18.06-.28.12-.42.27-.23.24-.32.47-.32.8,0,.24.06.45.18.62.05.07.83.9,1.75,1.84l1.66,1.72.11-.11c.42-.43,2.86-2.97,3.05-3.17.13-.13.26-.3.29-.37.29-.58.08-1.28-.49-1.56-.18-.09-.19-.09-.44-.09s-.26,0-.41.08c-.18.08-.25.15-1.12,1.05-.43.44-.5.51-.64.57-.13.06-.19.07-.34.08-.21,0-.33-.03-.49-.13-.06-.04-.39-.36-.74-.72-.35-.36-.68-.69-.75-.74-.23-.17-.6-.23-.89-.14M6.14,13.95c-.25.08-.42.22-.55.47-.06.11-.07.15-.07.37,0,.24,0,.24.11.47.96,1.94,2.89,3.38,5.05,3.78.4.07.81.11,1.31.11.82,0,1.44-.09,2.17-.32.82-.26,1.52-.64,2.25-1.2.3-.23.91-.83,1.14-1.12.24-.31.59-.84.76-1.17l.15-.3v-.23c0-.19,0-.25-.05-.35-.12-.26-.33-.44-.62-.51-.14-.03-.18-.04-.32-.01-.34.06-.52.21-.74.62-.56,1.04-1.34,1.79-2.4,2.3-.53.26-.93.39-1.51.48-.37.06-1.28.06-1.66,0-1.69-.28-3.13-1.3-3.92-2.79-.15-.28-.25-.4-.4-.49-.14-.08-.35-.15-.49-.15-.05,0-.14.02-.22.04" fill-rule="evenodd"/>
</svg>