<?xml version="1.0" encoding="UTF-8"?>
<svg id="Lager_1" data-name="Lager 1" xmlns="http://www.w3.org/2000/svg" viewBox="0 0 24 24">
  <path d="M11.16.72c-2.74.22-5.23,1.36-7.15,3.28-1.79,1.79-2.91,4.09-3.23,6.59-.12.93-.12,1.88,0,2.81.31,2.5,1.44,4.8,3.23,6.59,1.75,1.75,3.98,2.86,6.41,3.2,2.72.38,5.48-.24,7.76-1.73,2.74-1.8,4.56-4.66,5.02-7.89.38-2.72-.24-5.48-1.73-7.76-1.84-2.8-4.76-4.63-8.06-5.04-.68-.08-1.61-.11-2.24-.06M11.42,2.46c-1.4.12-2.43.39-3.57.93-1.92.92-3.54,2.54-4.46,4.46-.48,1-.75,1.97-.89,3.11-.06.49-.06,1.58,0,2.06.14,1.15.42,2.11.89,3.11.92,1.92,2.54,3.54,4.46,4.46,1,.48,1.97.75,3.11.89.49.06,1.58.06,2.08,0,2.27-.27,4.24-1.23,5.8-2.84.9-.93,1.56-1.94,2.04-3.13.82-2.06.89-4.37.2-6.49-.67-2.07-2.06-3.87-3.9-5.06-1.24-.8-2.61-1.29-4.13-1.47-.31-.04-1.39-.07-1.63-.04M7.51,7.34c-.31.08-.64.35-.79.66-.26.52-.09,1.18.39,1.52.25.18.38.22.72.21.24,0,.31,0,.43-.06.3-.12.6-.42.71-.71.07-.19.09-.54.04-.75-.17-.64-.85-1.04-1.5-.87M15.91,7.32c-.3.06-.65.32-.81.6-.16.29-.2.73-.08,1.04.11.29.42.6.71.71.2.08.65.08.85,0,.54-.2.87-.76.79-1.33-.04-.25-.14-.46-.32-.65-.31-.33-.72-.46-1.15-.37M18.39,14.41c-.26-.27-.66-.36-1-.22-3.47,1.38-7.29,1.38-10.76,0-.34-.14-.74-.05-1,.22s-.33.67-.17,1.01c1.16,2.53,3.68,4.15,6.43,4.15h.2c2.78,0,5.3-1.62,6.46-4.15.16-.34.09-.74-.17-1.01h.01Z" fill-rule="evenodd"/>
</svg>