<?xml version="1.0" encoding="UTF-8"?>
<svg id="Lager_1" data-name="Lager 1" xmlns="http://www.w3.org/2000/svg" viewBox="0 0 24 24">
  <path d="M11.16.72c-2.74.22-5.23,1.36-7.15,3.28-1.79,1.79-2.91,4.09-3.23,6.59-.12.93-.12,1.88,0,2.81.31,2.5,1.44,4.8,3.23,6.59,1.75,1.75,3.98,2.86,6.41,3.2,2.72.38,5.48-.24,7.76-1.73,2.74-1.8,4.56-4.66,5.02-7.89.38-2.72-.24-5.48-1.73-7.76-1.84-2.8-4.76-4.63-8.06-5.04-.68-.08-1.61-.11-2.24-.06M11.42,2.46c-1.4.12-2.43.39-3.57.93-1.92.92-3.54,2.54-4.46,4.46-.48,1-.75,1.97-.89,3.11-.06.49-.06,1.58,0,2.06.14,1.15.42,2.11.89,3.11.92,1.92,2.54,3.54,4.46,4.46,1,.48,1.97.75,3.11.89.49.06,1.58.06,2.08,0,2.27-.27,4.24-1.23,5.8-2.84.9-.93,1.56-1.94,2.04-3.13.82-2.06.89-4.37.2-6.49-.67-2.07-2.06-3.87-3.9-5.06-1.24-.8-2.61-1.29-4.13-1.47-.31-.04-1.39-.07-1.63-.04M8.23,8.03c-.08.02-.19.06-.26.1-.16.08-.45.37-.53.53-.27.54-.11,1.2.38,1.55.24.17.38.21.72.21.24,0,.31,0,.43-.06.3-.12.6-.42.71-.71.07-.19.09-.54.04-.75-.14-.53-.65-.92-1.21-.91-.07,0-.2.02-.27.04M15.22,8.02c-.3.06-.65.32-.81.6-.16.29-.2.73-.08,1.04.11.29.41.6.71.71.2.08.65.08.85,0,.28-.1.55-.35.69-.62.16-.32.16-.76-.01-1.09-.08-.16-.37-.45-.53-.53-.24-.12-.55-.16-.82-.11M6.14,13.94c-.25.08-.42.22-.55.47-.06.11-.07.15-.07.37,0,.24,0,.24.11.47.96,1.94,2.89,3.38,5.05,3.78.4.07.81.11,1.31.11.82,0,1.44-.09,2.17-.32.82-.26,1.52-.64,2.25-1.2.3-.23.91-.83,1.14-1.12.24-.31.59-.84.76-1.17l.15-.3v-.23c0-.19,0-.25-.05-.35-.12-.26-.33-.44-.62-.51-.14-.03-.18-.04-.32-.01-.34.06-.52.21-.74.62-.56,1.04-1.34,1.79-2.4,2.3-.53.26-.93.39-1.51.48-.37.06-1.28.06-1.66,0-1.69-.28-3.13-1.3-3.92-2.79-.15-.28-.25-.4-.4-.49-.14-.08-.35-.15-.49-.15-.05,0-.14.02-.22.04" fill-rule="evenodd"/>
</svg>