<?xml version="1.0" encoding="UTF-8"?>
<svg id="Lager_1" data-name="Lager 1" xmlns="http://www.w3.org/2000/svg" viewBox="0 0 24 24">
  <path d="M11.16.72c-2.74.22-5.23,1.36-7.15,3.28-1.79,1.79-2.91,4.09-3.23,6.59-.12.93-.12,1.88,0,2.81.31,2.5,1.44,4.8,3.23,6.59,1.75,1.75,3.98,2.86,6.41,3.2,2.72.38,5.48-.24,7.76-1.73,2.74-1.8,4.56-4.66,5.02-7.89.38-2.72-.24-5.48-1.73-7.76-1.84-2.8-4.76-4.63-8.06-5.04-.68-.08-1.61-.11-2.24-.06M11.42,2.46c-1.4.12-2.43.39-3.57.93-1.92.92-3.54,2.54-4.46,4.46-.48,1-.75,1.97-.89,3.11-.06.49-.06,1.58,0,2.06.14,1.15.42,2.11.89,3.11.92,1.92,2.54,3.54,4.46,4.46,1,.48,1.97.75,3.11.89.49.06,1.58.06,2.08,0,2.27-.27,4.24-1.23,5.8-2.84.9-.93,1.56-1.94,2.04-3.13.82-2.06.89-4.37.2-6.49-.67-2.07-2.06-3.87-3.9-5.06-1.24-.8-2.61-1.29-4.13-1.47-.31-.04-1.39-.07-1.63-.04M8.23,8.03c-.08.02-.19.06-.26.1-.16.08-.45.37-.53.53-.27.54-.11,1.2.38,1.55.24.17.38.21.72.21.24,0,.31,0,.43-.06.3-.12.6-.42.71-.71.07-.19.09-.54.04-.75-.14-.53-.65-.92-1.21-.91-.07,0-.2.02-.27.04M15.22,8.02c-.3.06-.65.32-.81.6-.16.29-.2.73-.08,1.04.11.29.41.6.71.71.2.08.65.08.85,0,.28-.1.55-.35.69-.62.16-.32.16-.76-.01-1.09-.08-.16-.37-.45-.53-.53-.24-.12-.55-.16-.82-.11M11.64,13.21c-1.41.09-2.49.46-3.62,1.21-1.01.67-1.81,1.57-2.35,2.64l-.13.25v.24c0,.21,0,.26.06.37.09.19.21.32.4.41.15.08.18.08.4.08s.25,0,.39-.08c.2-.11.29-.21.48-.54.58-1.05,1.33-1.76,2.39-2.29,1.3-.65,2.92-.72,4.3-.18,1.21.47,2.22,1.37,2.81,2.5.14.26.3.44.47.52.12.06.16.07.38.07.21,0,.25,0,.38-.07.18-.09.33-.24.42-.41.06-.13.07-.17.07-.37q0-.23-.12-.48c-.45-.9-1.15-1.75-1.97-2.38-1.04-.8-2.24-1.29-3.5-1.44-.3-.04-1.01-.06-1.24-.05" fill-rule="evenodd"/>
</svg>