<?xml version="1.0" encoding="UTF-8"?>
<svg id="Lager_1" data-name="Lager 1" xmlns="http://www.w3.org/2000/svg" viewBox="0 0 24 24">
  <path d="M2.59.72c-.5.06-.83.23-1.16.57-.42.44-.59,1.03-.47,1.62.03.13.45,1.76.95,3.63.5,1.87.9,3.43.9,3.46,0,.03-.04.2-.08.39-.42,1.69-.39,3.61.07,5.3.67,2.43,2.18,4.52,4.27,5.91,1.45.96,3.19,1.55,4.96,1.68.35.02,1.25.02,1.58-.01,1.87-.16,3.59-.8,5.14-1.89.58-.41,1.2-.95,1.64-1.43.31-.34.36-.44.38-.72.01-.27-.04-.43-.21-.62-.27-.29-.65-.38-1.01-.22-.1.05-.23.16-.58.5-.85.84-1.47,1.29-2.4,1.75-.92.46-1.72.71-2.74.85-.43.06-1.73.06-2.16,0-1.92-.27-3.53-1.05-4.87-2.36-1.44-1.41-2.32-3.21-2.56-5.26-.06-.49-.06-1.47,0-1.96.23-1.98,1.07-3.72,2.45-5.1,1.45-1.45,3.34-2.32,5.41-2.49.42-.03,1.34-.01,1.73.04,2.12.28,4.02,1.29,5.43,2.89.8.91,1.34,1.86,1.73,3.04.16.5.22.6.37.74.16.14.3.19.52.2.51.02.89-.31.91-.8.01-.22-.04-.43-.23-.97-.81-2.26-2.38-4.17-4.46-5.43-1.26-.76-2.65-1.24-4.16-1.42-.44-.05-1.88-.06-2.28-.01-.79.1-1.49.25-2.15.47-.2.07-.39.11-.41.11-.02,0-1.35-.54-2.95-1.19-1.6-.65-2.97-1.19-3.05-1.21-.16-.04-.41-.06-.53-.05M2.69,2.5s1.2,4.69,1.27,4.89c0,.02.1-.1.21-.27.73-1.08,1.66-2.03,2.67-2.73.12-.08.22-.16.22-.16,0,0-4.34-1.76-4.35-1.76,0,0-.02.01-.03.02M15.27,8.58c-.63.13-1.19.47-1.56.97-.18.25-.23.35-.24.56-.02.31.07.53.29.73.25.22.59.28.9.15.18-.07.28-.15.41-.34.19-.26.41-.37.71-.35.22.01.38.1.52.26.32.39.48.48.83.48.17,0,.21,0,.35-.08.32-.16.5-.45.5-.8,0-.21-.04-.33-.18-.53-.38-.56-.94-.93-1.63-1.06-.22-.04-.7-.04-.91,0M9.48,8.74c-.26.02-.4.05-.64.14-.39.14-.74.38-1,.68-.3.34-.39.52-.39.79,0,.48.33.85.8.88.31.02.54-.08.72-.29.3-.36.44-.45.74-.45s.41.06.74.46c.08.09.15.15.26.2.14.07.18.07.4.07.21,0,.25,0,.36-.06.33-.18.5-.44.5-.81,0-.26-.1-.45-.39-.79-.48-.56-1.32-.89-2.1-.82M19.86,11.45c-.89.09-1.66.7-1.96,1.57-.23.66-.14,1.41.21,1.94.23.34.48.51.78.54.76.06,1.23-.8.76-1.4-.15-.19-.16-.3-.08-.52.07-.18.14-.26.29-.32.11-.05.15-.05.39-.04.3.01.47.06.64.2.27.21.42.63.42,1.19,0,.47-.1.75-.36,1.01-.29.28-.67.42-1.31.46-.2.01-1.19.02-2.21.02h-1.85s0-.23,0-.23c0-.55-.2-1.03-.59-1.41-.23-.23-.49-.39-.8-.5l-.23-.08h-.85s-.85,0-.85,0l-.14.06c-.26.12-.45.38-.5.65-.07.45.23.9.67,1,.07.02.39.03.75.03h.63l.08.08c.09.09.1.16.03.27-.05.08-.07.09-.31.13-.2.03-.35.11-.5.25-.15.15-.22.3-.25.48-.04.3.05.57.26.76.15.14.27.2.48.23.22.03.28.06.33.16.04.09.03.17-.06.25l-.06.06h-.7s-.7.02-.7.02l-.14.07c-.17.08-.35.25-.43.4-.12.23-.12.53-.01.78.06.14.27.34.42.42l.12.06h.86c.84,0,.87,0,1.04-.06.87-.27,1.44-1.03,1.44-1.92v-.22h1.91c2.05,0,2.52-.02,2.97-.11,1.44-.29,2.35-1.19,2.57-2.56.05-.32.03-1.07-.04-1.4-.13-.63-.36-1.09-.74-1.48-.32-.33-.65-.55-1.07-.69-.38-.13-.92-.18-1.33-.14" fill-rule="evenodd"/>
</svg>