<?xml version="1.0" encoding="UTF-8"?>
<svg id="Lager_1" data-name="Lager 1" xmlns="http://www.w3.org/2000/svg" viewBox="0 0 24 24">
  <path d="M11.16.72c-2.74.22-5.23,1.36-7.15,3.28-1.79,1.79-2.91,4.09-3.23,6.59-.12.93-.12,1.88,0,2.81.31,2.5,1.44,4.8,3.23,6.59,1.75,1.75,3.98,2.86,6.41,3.2,2.72.38,5.48-.24,7.76-1.73,2.74-1.8,4.56-4.66,5.02-7.89.38-2.72-.24-5.48-1.73-7.76-1.84-2.8-4.76-4.63-8.06-5.04-.68-.08-1.61-.11-2.24-.06M11.42,2.46c-1.4.12-2.43.39-3.57.93-1.92.92-3.54,2.54-4.46,4.46-.48,1-.75,1.97-.89,3.11-.06.49-.06,1.58,0,2.06.14,1.15.42,2.11.89,3.11.92,1.92,2.54,3.54,4.46,4.46,1,.48,1.97.75,3.11.89.49.06,1.58.06,2.08,0,2.27-.27,4.24-1.23,5.8-2.84.9-.93,1.56-1.94,2.04-3.13.82-2.06.89-4.37.2-6.49-.67-2.07-2.06-3.87-3.9-5.06-1.24-.8-2.61-1.29-4.13-1.47-.31-.04-1.39-.07-1.63-.04M8.35,4.4s-.14.02-.24.04c-.39.06-.87.21-1.3.43-.77.39-1.46,1.07-1.84,1.84-.09.18-.09.19-.09.42,0,.22,0,.25.07.37.13.26.35.43.62.49.18.04.36.01.54-.07.18-.09.31-.21.43-.42.2-.37.44-.65.74-.86.17-.12.59-.33.78-.39.36-.11.75-.14,1.13-.07.29.05.48.03.67-.06.18-.09.33-.24.42-.43.05-.11.06-.17.06-.35,0-.18,0-.24-.06-.35-.2-.43-.54-.57-1.4-.58-.25,0-.48,0-.52,0M15.17,4.4c-.58.07-.71.1-.87.21-.39.26-.51.81-.24,1.21.15.23.44.4.69.4.05,0,.22-.02.37-.04.45-.06.84-.01,1.28.16.54.22.93.55,1.25,1.08.26.43.48.58.86.58.22,0,.35-.05.54-.19.23-.17.37-.53.32-.81-.05-.26-.31-.7-.64-1.1-.61-.73-1.54-1.26-2.51-1.44-.26-.05-.86-.08-1.05-.06M7.25,8.39c-1.43.24-2.57,1.27-2.95,2.65-.16.6-.16,1.31,0,1.91.32,1.15,1.15,2.06,2.29,2.48.39.14.77.21,1.23.21.48,0,.83-.06,1.27-.22,1.01-.36,1.85-1.23,2.2-2.26.11-.32.16-.56.18-.9.11-1.49-.68-2.87-2.04-3.56-.29-.14-.73-.28-1.1-.33-.23-.03-.86-.03-1.09.01M15.6,8.39c-1.17.2-2.14.9-2.68,1.94-.23.44-.36.9-.39,1.4-.11,1.49.68,2.87,2.04,3.56.29.14.73.28,1.1.33.24.04.82.03,1.06,0,1.03-.17,1.91-.73,2.48-1.59.82-1.22.82-2.83,0-4.05-.57-.85-1.45-1.42-2.48-1.59-.25-.04-.88-.04-1.13,0M7.4,10.14c-.09.02-.28.09-.42.16-.23.11-.28.15-.49.36-.21.21-.26.27-.35.47-.16.33-.2.48-.2.86s.03.53.2.86c.1.2.14.26.35.47.22.22.27.26.49.36.33.16.56.21.93.19.15,0,.34-.03.42-.05.6-.16,1.12-.68,1.31-1.28.05-.16.06-.23.06-.55s0-.4-.06-.55c-.19-.6-.7-1.11-1.28-1.27-.24-.07-.73-.09-.97-.03M15.86,10.12c-.71.12-1.3.64-1.52,1.33-.05.16-.06.23-.06.55s0,.4.06.55c.19.61.71,1.12,1.31,1.28.08.02.27.05.42.05.37.02.6-.03.93-.19.23-.11.28-.15.49-.36.21-.21.26-.28.35-.47.16-.33.2-.48.2-.86s-.03-.53-.2-.86c-.1-.2-.14-.26-.35-.47-.22-.22-.27-.26-.49-.36-.15-.07-.32-.14-.44-.16-.17-.03-.57-.05-.72-.02M7.51,10.81c-.42.11-.78.48-.88.9-.1.42.02.84.33,1.15.48.48,1.24.49,1.71.02.26-.25.37-.52.37-.88s-.12-.62-.37-.88c-.3-.3-.76-.42-1.16-.31M15.87,10.81c-.3.07-.64.33-.78.6-.14.25-.18.62-.1.91.11.42.5.79.92.87.69.14,1.37-.32,1.47-1.01.13-.86-.66-1.58-1.51-1.38M9.72,16.71c-.19.04-.31.11-.45.27-.17.19-.23.35-.22.63,0,.18.02.24.08.34.09.17.25.33.42.41l.14.06h4.63l.14-.06c.17-.08.33-.24.42-.41.05-.1.07-.17.08-.34.01-.28-.04-.43-.22-.63-.14-.15-.29-.24-.49-.27-.21-.04-4.35-.03-4.52,0" fill-rule="evenodd"/>
</svg>