<?xml version="1.0" encoding="UTF-8"?>
<svg id="Lager_1" data-name="Lager 1" xmlns="http://www.w3.org/2000/svg" viewBox="0 0 24 24">
  <path d="M11.68.73c-.43.09-.81.35-1.04.71-.05.08-.74,1.43-1.53,3-.79,1.57-1.44,2.86-1.44,2.86,0,0-1.24.13-2.75.28-1.51.15-2.79.28-2.84.29-.6.09-1.11.52-1.3,1.11-.06.19-.07.25-.07.5,0,.34.05.52.21.8.11.2.22.31,3.23,3.29l1.59,1.57-.83,3.02c-.46,1.66-.85,3.11-.87,3.22-.09.43.02.92.3,1.28.22.3.61.54.98.62.23.05.57.03.78-.03.07-.02,1.43-.68,3.01-1.47,1.58-.78,2.9-1.43,2.91-1.43s1.33.64,2.91,1.43c1.59.78,2.94,1.45,3.01,1.47.1.03.2.04.46.04.29,0,.34,0,.52-.07.69-.24,1.14-.89,1.11-1.62-.01-.21-.08-.48-.87-3.35l-.86-3.12,2.36-2.35c2.55-2.54,2.47-2.45,2.59-2.83.04-.14.05-.22.05-.49,0-.29,0-.34-.06-.5-.09-.26-.2-.42-.4-.63-.2-.2-.42-.34-.65-.41-.19-.06-.25-.06-3.3-.36-1.47-.14-2.51-.26-2.53-.27-.02-.01-.68-1.32-1.48-2.89-.8-1.58-1.48-2.92-1.53-2.99-.37-.53-1.04-.8-1.67-.67M10.49,5.6c-.82,1.64-1.53,3.02-1.58,3.08-.09.12-.27.24-.43.29-.06.02-1.39.16-2.96.31-1.57.15-2.86.29-2.87.3-.01,0,1.03,1.06,2.32,2.33,1.28,1.27,2.38,2.36,2.43,2.42.13.15.2.38.18.6,0,.1-.32,1.27-.89,3.33-.48,1.74-.87,3.17-.87,3.17,0,0,1.33-.65,2.94-1.45,2.4-1.19,2.97-1.46,3.09-1.48.3-.05.19-.1,3.39,1.48,1.62.8,2.94,1.45,2.94,1.45,0,0-.39-1.44-.87-3.19-.48-1.75-.88-3.23-.89-3.3-.02-.16.05-.4.15-.55.04-.07,1.14-1.17,2.44-2.46,2.23-2.2,2.36-2.34,2.3-2.36-.04,0-1.34-.14-2.89-.3-2.25-.22-2.85-.29-2.95-.32-.18-.07-.32-.18-.42-.34-.05-.07-.75-1.45-1.56-3.07-.81-1.61-1.48-2.93-1.49-2.93s-.69,1.34-1.51,2.98" fill-rule="evenodd"/>
</svg>