<?xml version="1.0" encoding="UTF-8"?>
<svg id="Lager_1" data-name="Lager 1" xmlns="http://www.w3.org/2000/svg" viewBox="0 0 24 24">
  <path d="M23.23,8.96c-.09-.26-.2-.42-.4-.63-.2-.2-.42-.34-.65-.41-.19-.06-.25-.06-3.3-.36-1.47-.14-2.51-.26-2.53-.27-.02-.01-.68-1.32-1.48-2.89s-1.48-2.92-1.53-2.99c-.37-.53-1.04-.8-1.67-.67-.43.09-.81.35-1.04.71-.05.08-.74,1.43-1.53,3-.79,1.57-1.44,2.86-1.44,2.86s-1.24.13-2.75.28c-1.51.15-2.79.28-2.84.29-.6.09-1.11.52-1.3,1.11-.06.19-.07.25-.07.5,0,.34.05.52.21.8.11.2.22.31,3.23,3.29l1.59,1.57-.83,3.02c-.46,1.66-.85,3.11-.87,3.22-.09.43.02.92.3,1.28.22.3.61.54.98.62.23.05.57.03.78-.03.07-.02,1.43-.68,3.01-1.47,1.58-.78,2.9-1.43,2.91-1.43s1.33.64,2.91,1.43,2.94,1.45,3.01,1.47c.1.03.2.04.46.04.29,0,.34,0,.52-.07.69-.24,1.14-.89,1.11-1.62-.01-.21-.08-.48-.87-3.35l-.86-3.12,2.36-2.35c2.55-2.54,2.47-2.45,2.59-2.83.04-.14.05-.22.05-.49,0-.29,0-.34-.06-.5Z" fill-rule="evenodd"/>
</svg>