<?xml version="1.0" encoding="UTF-8"?>
<svg id="Lager_1" data-name="Lager 1" xmlns="http://www.w3.org/2000/svg" viewBox="0 0 24 24">
  <path d="M19.97,12.04c-.48,0-.88.39-.88.88,0,4.37-3.56,7.93-7.93,7.93s-7.93-3.56-7.93-7.93,3.56-7.93,7.93-7.93c.48,0,.88-.39.88-.88s-.39-.88-.88-.88C5.83,3.24,1.48,7.58,1.48,12.92s4.34,9.68,9.68,9.68,9.68-4.34,9.68-9.68c0-.48-.39-.88-.88-.88Z"/>
  <path d="M5.83,15.98c1,2.11,3,3.37,5.33,3.37s4.33-1.26,5.33-3.37c.14-.3.1-.66-.11-.92-.21-.26-.56-.38-.88-.3-4.6,1.07-8.62.02-8.66,0-.33-.09-.68.02-.9.28-.22.26-.26.63-.12.94ZM13.57,16.86c-1.36.96-3.45.97-4.81,0,1.26.14,2.93.21,4.81,0Z"/>
  <path d="M21.52,4.75h-2.35v-2.35c0-.55-.45-1-1-1s-1,.45-1,1v2.35h-2.35c-.55,0-1,.45-1,1s.45,1,1,1h2.35v2.35c0,.55.45,1,1,1s1-.45,1-1v-2.35h2.35c.55,0,1-.45,1-1s-.45-1-1-1Z"/>
  <path d="M7.35,12.8c.1.04.22.07.34.07s.24-.02.34-.07c.5-.15.88-.6.88-1.15s-.38-1-.88-1.15c-.1-.04-.22-.07-.34-.07s-.24.02-.34.07c-.5.15-.88.6-.88,1.15s.38,1,.88,1.15Z"/>
  <path d="M14.3,12.8c.1.04.22.07.34.07s.24-.02.34-.07c.5-.15.88-.6.88-1.15s-.38-1-.88-1.15c-.1-.04-.22-.07-.34-.07s-.24.02-.34.07c-.5.15-.88.6-.88,1.15s.38,1,.88,1.15Z"/>
</svg>