<?xml version="1.0" encoding="UTF-8"?>
<svg id="Lager_1" data-name="Lager 1" xmlns="http://www.w3.org/2000/svg" viewBox="0 0 24 24">
  <path d="M12,4.87c-3.93,0-7.13,3.2-7.13,7.13s3.2,7.13,7.13,7.13,7.13-3.2,7.13-7.13-3.2-7.13-7.13-7.13ZM12,17.38c-2.97,0-5.38-2.42-5.38-5.38s2.42-5.38,5.38-5.38,5.38,2.42,5.38,5.38-2.42,5.38-5.38,5.38Z"/>
  <path d="M12,3.84c.48,0,.88-.39.88-.88v-1.39c0-.48-.39-.88-.88-.88s-.88.39-.88.88v1.39c0,.48.39.88.88.88Z"/>
  <path d="M18.39,6.48c.22,0,.45-.08.62-.26l.98-.98c.34-.34.34-.9,0-1.24-.34-.34-.9-.34-1.24,0l-.98.98c-.34.34-.34.9,0,1.24.17.17.4.26.62.26Z"/>
  <path d="M22.43,11.12h-1.39c-.48,0-.88.39-.88.88s.39.88.88.88h1.39c.48,0,.88-.39.88-.88s-.39-.88-.88-.88Z"/>
  <path d="M19.01,17.77c-.34-.34-.9-.34-1.24,0-.34.34-.34.9,0,1.24l.98.98c.17.17.4.26.62.26s.45-.08.62-.26c.34-.34.34-.9,0-1.24l-.98-.98Z"/>
  <path d="M12,20.16c-.48,0-.88.39-.88.88v1.39c0,.48.39.88.88.88s.88-.39.88-.88v-1.39c0-.48-.39-.88-.88-.88Z"/>
  <path d="M4.99,17.77l-.98.98c-.34.34-.34.9,0,1.24.17.17.4.26.62.26s.45-.08.62-.26l.98-.98c.34-.34.34-.9,0-1.24-.34-.34-.9-.34-1.24,0Z"/>
  <path d="M2.96,11.12h-1.39c-.48,0-.88.39-.88.88s.39.88.88.88h1.39c.48,0,.88-.39.88-.88s-.39-.88-.88-.88Z"/>
  <path d="M4.99,6.23c.17.17.4.26.62.26s.45-.08.62-.26c.34-.34.34-.9,0-1.24l-.98-.98c-.34-.34-.9-.34-1.24,0-.34.34-.34.9,0,1.24l.98.98Z"/>
</svg>