<?xml version="1.0" encoding="UTF-8"?>
<svg id="Lager_1" data-name="Lager 1" xmlns="http://www.w3.org/2000/svg" viewBox="0 0 24 24">
  <path d="M21.13,1.02c-.06-.01-1.55-.02-3.3-.02-3.39,0-3.35,0-3.81.11-.4.1-.85.31-1.22.57-.15.11-1.48,1.42-5.77,5.71C1.1,13.33,1.34,13.08,1.16,13.49c-.14.33-.17.5-.17.92,0,.33,0,.4.07.58.07.24.18.48.33.69.14.21,6.72,6.79,6.93,6.93.22.14.45.25.69.33.19.06.25.06.61.06s.41,0,.61-.06c.3-.09.54-.21.75-.38.22-.17,11.11-11.05,11.27-11.27.34-.45.57-.96.7-1.52l.06-.25v-3.31s0-3.31,0-3.31l-.05-.2c-.23-.86-.96-1.53-1.82-1.68M20.96,2.8l-.12-.06h-3.12c-2.93.01-3.13.02-3.26.06-.22.07-.43.17-.6.29-.08.06-2.61,2.57-5.61,5.57-5.81,5.81-5.52,5.51-5.52,5.72,0,.21-.11.09,3.34,3.54,3.46,3.46,3.33,3.34,3.54,3.34.21,0-.09.29,5.73-5.53,4.09-4.09,5.51-5.52,5.59-5.65.1-.16.18-.33.27-.6.02-.08.03-.75.04-3.2,0-2.8,0-3.12-.03-3.21-.06-.15-.12-.22-.26-.29M18.12,4.68s-.17-.01-.28,0c-.18,0-.23.01-.34.04-.31.09-.59.3-.76.56-.47.72-.16,1.67.64,2,.24.1.58.12.83.05.47-.12.84-.48.97-.96.04-.15.05-.44.02-.61-.06-.32-.23-.6-.49-.8-.17-.14-.4-.24-.6-.28" fill-rule="evenodd"/>
</svg>