<?xml version="1.0" encoding="UTF-8"?>
<svg id="Lager_1" data-name="Lager 1" xmlns="http://www.w3.org/2000/svg" viewBox="0 0 24 24">
  <path d="M18.72,3.19c.34,0,.67.03.98.08.31.05.57.23.77.51.21.29.31.79.31,1.49s-.1,1.18-.31,1.48c-.21.3-.47.48-.79.53-.32.06-.65.08-.99.08h-3.75v12.44c0,.4-.04.78-.11,1.15-.07.37-.28.67-.61.91-.33.23-.92.35-1.75.35s-1.37-.12-1.71-.37c-.34-.25-.55-.55-.61-.92-.06-.37-.1-.76-.1-1.15V7.37h-3.78c-.32,0-.65-.03-.96-.1-.32-.06-.58-.24-.79-.53-.21-.29-.31-.79-.31-1.49s.1-1.18.31-1.47.48-.46.8-.51c.33-.06.65-.08.98-.08h12.41Z"/>
</svg>