<?xml version="1.0" encoding="UTF-8"?>
<svg id="Lager_1" data-name="Lager 1" xmlns="http://www.w3.org/2000/svg" viewBox="0 0 24 24">
  <path d="M13.45,22.6c1.59.15,2.92-1.2,2.7-2.72-.01-.09-.21-.89-.45-1.76-.4-1.49-.42-1.61-.43-1.81,0-.19,0-.24.06-.35.09-.18.3-.41.47-.49l.13-.07h2.53c1.6-.02,2.58-.04,2.65-.05.57-.12.95-.31,1.29-.67.19-.2.28-.33.4-.58.3-.6.46-1.41.46-2.34,0-1.95-.74-4.41-1.95-6.52-1.14-1.98-2.54-3.29-3.96-3.71-.4-.12-.64-.14-1.45-.14-2.65,0-4.91.3-6.9.91-1.05.32-2.01.72-3.21,1.32l-.62.31v-.18c-.07-.71-.61-1.35-1.32-1.55-.17-.05-.26-.05-1.21-.06-.63,0-1.09,0-1.18.01-.31.05-.53.21-.66.48-.07.15-.08.18-.08.39,0,.2,0,.25.06.37.13.27.38.45.69.5.09.01.57.02,1.06.02h.89s0,5.47,0,5.47v5.47s-1.04.01-1.04.01h-1.03s-.13.07-.13.07c-.17.08-.35.26-.43.43-.05.11-.06.16-.06.37s0,.26.06.36c.08.16.24.33.38.4.2.11.34.12,1.49.11,1.15-.01,1.17-.01,1.5-.16.55-.26.95-.79,1.02-1.37l.02-.14h.8s.8.01.8.01l.16.07c.09.04.2.12.25.17s1.12,1.54,2.36,3.31c2.34,3.31,2.46,3.47,2.77,3.7.32.23.73.38,1.13.42M13.41,20.79c.31.16.77,0,.94-.33.1-.19.08-.25-.36-1.94-.23-.86-.43-1.65-.45-1.76-.11-.65.04-1.36.43-1.94.38-.57.95-.96,1.68-1.15.06-.02,1.04-.03,2.64-.04,1.86-.01,2.57-.02,2.63-.04.14-.05.26-.15.32-.26.17-.32.28-.93.28-1.56,0-2.06-1.11-5.07-2.56-6.91-.28-.36-.92-.99-1.21-1.19-.31-.22-.66-.39-.95-.47l-.24-.06h-.97c-3.63.06-6.05.6-8.82,1.96-.46.23-1.34.69-1.51.8l-.09.06v3.61s.01,3.61.01,3.61h.89c.51.02.94.04,1,.06.65.15,1.16.46,1.55.95.08.09,1.11,1.55,2.3,3.23s2.2,3.12,2.26,3.2c.07.09.14.16.23.2" fill-rule="evenodd"/>
</svg>