<?xml version="1.0" encoding="UTF-8"?>
<svg id="Lager_1" data-name="Lager 1" xmlns="http://www.w3.org/2000/svg" viewBox="0 0 24 24">
  <path d="M13.45,1.4c-.4.04-.8.19-1.13.42-.31.22-.43.38-2.77,3.7-1.25,1.77-2.31,3.26-2.36,3.31s-.17.13-.25.17l-.16.07h-.8s-.8.01-.8.01l-.02-.14c-.07-.58-.47-1.12-1.02-1.37-.32-.15-.34-.15-1.5-.16-1.14-.01-1.29,0-1.49.11-.14.08-.29.24-.38.4-.05.1-.06.15-.06.36s0,.26.06.37c.08.17.26.35.43.43l.13.06h1.03s1.03.02,1.03.02v5.47s.01,5.47.01,5.47h-.89c-.49,0-.97.01-1.06.02-.3.04-.56.23-.69.5-.06.12-.06.17-.06.37,0,.21,0,.24.08.39.13.27.36.43.66.48.1.02.55.02,1.18.01.95,0,1.04-.01,1.21-.06.72-.2,1.25-.83,1.31-1.55v-.18s.64.31.64.31c1.2.6,2.16.99,3.21,1.32,1.99.61,4.25.91,6.9.91.81,0,1.05-.02,1.45-.14,1.42-.42,2.82-1.73,3.96-3.71,1.21-2.1,1.94-4.56,1.95-6.52,0-.93-.16-1.73-.46-2.34-.12-.25-.22-.38-.4-.58-.34-.36-.71-.55-1.29-.67-.08-.02-1.05-.03-2.65-.04h-2.53s-.13-.08-.13-.08c-.17-.08-.39-.31-.47-.49-.06-.12-.06-.17-.06-.35,0-.2.03-.32.43-1.81.23-.88.43-1.67.45-1.76.22-1.53-1.11-2.87-2.7-2.72M13.41,3.21c-.09.04-.16.1-.23.2-.06.07-1.07,1.51-2.26,3.2s-2.22,3.14-2.3,3.23c-.39.48-.9.8-1.55.95-.07.02-.49.03-1,.04h-.89s0,3.62,0,3.62v3.61s.08.06.08.06c.16.1,1.04.57,1.51.8,2.77,1.36,5.19,1.9,8.82,1.95h.97s.24-.05.24-.05c.29-.07.64-.25.95-.47.29-.2.93-.84,1.21-1.19,1.44-1.83,2.56-4.84,2.56-6.91,0-.63-.11-1.23-.28-1.56-.06-.12-.18-.22-.32-.26-.06-.02-.77-.03-2.63-.04-1.6,0-2.58-.02-2.64-.04-.73-.19-1.3-.57-1.68-1.15-.38-.57-.54-1.28-.43-1.94.02-.11.22-.9.45-1.76.45-1.69.46-1.76.36-1.94-.17-.33-.62-.49-.94-.33" fill-rule="evenodd"/>
</svg>