<?xml version="1.0" encoding="UTF-8"?>
<svg id="Lager_1" data-name="Lager 1" xmlns="http://www.w3.org/2000/svg" viewBox="0 0 24 24">
  <path d="M23.76,11.81c.44,1.45-.38,2.99-1.83,3.43-.26.08-.53.12-.8.12h-5.58c-.44,0-.84.24-1.06.62-.23.36-.26.82-.07,1.21l1.43,3c.26.79.1,1.66-.42,2.31-.48.56-1.18.87-1.92.86-.79,0-1.53-.36-2-1l-4.9-6.97c-.23-.33-.6-.52-1-.53-.25,0-.46-.21-.46-.46,0,0,0,0,0-.01V3.08c0-.19.11-.36.28-.45C9.13.84,10.36.63,13.37.63h3c2.68,0,4.46,1.56,5.46,4.78,2.17,7.18,1.91,6.32,1.93,6.4Z"/>
  <path d="M3.63,14.86c-.12.73-.76,1.26-1.5,1.25H.63c-.28,0-.5-.22-.5-.5V1.61c0-.28.22-.5.5-.5h1.5c.83,0,1.5.67,1.5,1.5h0v12.25Z"/>
</svg>