<?xml version="1.0" encoding="UTF-8"?>
<svg id="Lager_1" data-name="Lager 1" xmlns="http://www.w3.org/2000/svg" viewBox="0 0 24 24">
  <path d="M14.15.85c-.11.05-4.09,2.46-4.38,2.66-.38.26-.47.84-.19,1.22.08.11,3.6,3,3.93,3.22.13.09.2.12.33.14.39.07.77-.13.95-.49.06-.13.07-.17.07-.36,0-.18,0-.24-.06-.35-.03-.07-.11-.18-.16-.24-.05-.06-.52-.45-1.04-.87-.52-.42-.94-.77-.94-.77.01-.01.6.07.85.12,1.34.26,2.59.83,3.63,1.66.3.24.89.81,1.14,1.1,1.08,1.27,1.74,2.82,1.92,4.51.06.51.04,1.49-.04,1.98-.28,1.82-1.07,3.41-2.33,4.67-1.61,1.61-3.83,2.49-6.06,2.41-1.64-.06-3.14-.55-4.45-1.45-.87-.6-1.56-1.31-2.21-2.26-.16-.24-.25-.33-.42-.41-.49-.25-1.09.03-1.23.58-.07.29-.02.51.23.88.62.93,1.44,1.78,2.33,2.45,1.54,1.14,3.3,1.8,5.26,1.95.44.04,1.39.02,1.82-.04,2.02-.24,3.8-1.01,5.33-2.29,1.56-1.31,2.71-3.14,3.23-5.13.43-1.67.43-3.42,0-5.05-.8-3.03-2.91-5.46-5.81-6.69-.63-.27-1.52-.53-2.14-.63-.14-.02-.26-.05-.26-.05,0,0,.35-.22.77-.48.9-.55.98-.62,1.07-.93.11-.37-.05-.77-.38-.98-.21-.14-.54-.17-.77-.08M6.97,4.61c-.28.08-1.14.71-1.77,1.28-.57.51-1.46,1.59-1.62,1.96-.18.41.01.9.44,1.13.11.06.15.07.36.07.2,0,.25,0,.37-.07.17-.08.31-.21.51-.51.57-.81,1.33-1.54,2.26-2.17.3-.2.39-.29.47-.45.23-.5,0-1.04-.5-1.22-.12-.04-.41-.05-.52-.02M11.85,8.95c-.24.08-.46.3-.54.54-.04.12-.04.28-.04,2.34v2.22s-1.32,1.32-1.32,1.32c-.72.73-1.33,1.35-1.36,1.39-.1.17-.14.47-.08.67.07.23.26.45.5.56.11.05.17.06.35.06.39,0,.29.08,2.01-1.64,1.59-1.59,1.58-1.58,1.63-1.85.04-.19.03-4.81,0-4.97-.06-.27-.22-.48-.47-.6-.2-.1-.47-.12-.67-.05M2.83,10.68c-.25.06-.52.29-.61.52-.05.14-.12.54-.17,1.02-.05.42-.04,1.68.01,2.1.09.71.22,1.36.31,1.54.16.31.53.51.88.47.19-.02.45-.16.57-.31.13-.16.2-.35.2-.53,0-.08-.03-.29-.07-.49-.22-1.08-.25-1.99-.09-3.04.06-.42.05-.59-.04-.79-.07-.16-.23-.33-.38-.4-.18-.09-.43-.13-.61-.08" fill-rule="evenodd"/>
</svg>