<?xml version="1.0" encoding="UTF-8"?>
<svg id="Lager_1" data-name="Lager 1" xmlns="http://www.w3.org/2000/svg" viewBox="0 0 24 24">
  <path d="M11.33,1.4c-.66.05-.98.1-1.45.19-2.75.55-5.18,2.2-6.74,4.55-.84,1.27-1.42,2.78-1.64,4.29-.08.55-.1.82-.1,1.56,0,.9.04,1.35.2,2.11.7,3.48,3.12,6.39,6.43,7.73,2.17.88,4.61,1.01,6.86.37,3.15-.89,5.72-3.2,6.95-6.24,1.03-2.54,1.03-5.41,0-7.94-1.08-2.67-3.2-4.79-5.87-5.87-1.03-.42-2.05-.65-3.2-.74-.29-.02-1.19-.03-1.43,0M11.45,3.15c-.05,0-.22.02-.37.04-1.54.15-3.15.77-4.4,1.73-1.99,1.5-3.21,3.66-3.5,6.18-.04.34-.04,1.45,0,1.8.19,1.65.78,3.16,1.73,4.42.62.82,1.44,1.58,2.26,2.11,1.19.76,2.48,1.22,3.92,1.39.34.04,1.46.04,1.8,0,1.66-.19,3.16-.78,4.42-1.73,1.99-1.5,3.21-3.66,3.5-6.18.05-.4.04-1.48-.01-1.91-.3-2.45-1.52-4.59-3.48-6.07-1.23-.93-2.71-1.52-4.3-1.72-.29-.04-1.34-.07-1.56-.04M11.73,7.68c-.13.04-.34.19-.44.32-.18.24-.17.12-.18,2.16,0,1.94,0,2.04.11,2.25.04.07.81.86,2.36,2.4,2.22,2.21,2.3,2.3,2.44,2.35.2.07.45.07.65,0,.2-.08.42-.29.49-.49.07-.19.07-.45,0-.65-.05-.14-.13-.22-2.16-2.26l-2.11-2.11v-1.55c0-.85-.01-1.62-.02-1.7-.03-.2-.11-.35-.25-.5-.18-.18-.32-.24-.58-.24-.12,0-.25,0-.3.02" fill-rule="evenodd"/>
</svg>