<?xml version="1.0" encoding="UTF-8"?>
<svg id="Lager_1" data-name="Lager 1" xmlns="http://www.w3.org/2000/svg" viewBox="0 0 24 24">
  <path d="M17.26,10.5H6.74c-.48,0-.88.39-.88.88s.39.88.88.88h10.52c.48,0,.88-.39.88-.88s-.39-.88-.88-.88Z"/>
  <path d="M17.26,15.53H6.74c-.48,0-.88.39-.88.88s.39.88.88.88h10.52c.48,0,.88-.39.88-.88s-.39-.88-.88-.88Z"/>
  <path d="M21.04,5.99h-2.51v-1.41c0-1.31-1.06-2.37-2.37-2.37H7.6c-1.31,0-2.37,1.06-2.37,2.37v1.41h-2.27c-1.66,0-2.27,1.36-2.27,2.28v11.24c0,1.67,1.35,2.28,2.27,2.28h18.08c1.66,0,2.27-1.36,2.27-2.28v-11.24c0-1.67-1.35-2.28-2.27-2.28ZM6.98,4.58c0-.34.28-.62.62-.62h8.56c.34,0,.62.28.62.62v1.41H6.98v-1.41ZM21.55,19.5c-.02.54-.37.54-.52.54H2.97c-.53-.02-.53-.38-.53-.53v-11.23c.02-.54.37-.54.52-.54h18.06c.53.02.53.38.53.53v11.23Z"/>
</svg>