<?xml version="1.0" encoding="UTF-8"?>
<svg id="Lager_1" data-name="Lager 1" xmlns="http://www.w3.org/2000/svg" viewBox="0 0 24 24">
  <path d="M1.31.73c-.27.08-.51.34-.59.61-.02.08-.03,1.01-.02,3.76v3.65s.07.13.07.13c.08.16.26.35.41.43.06.03.18.07.26.08.22.03,7.02.03,7.21,0,.19-.03.31-.09.46-.23.28-.27.35-.7.17-1.04-.09-.16-.29-.34-.46-.4l-.14-.06h-2.59c-1.42-.01-2.59-.02-2.59-.03,0-.06.38-.71.62-1.05,1.19-1.71,2.88-2.98,4.87-3.64,1.46-.48,3.04-.61,4.57-.35,4.59.77,7.96,4.75,7.97,9.38,0,1.54-.32,2.93-.99,4.28-.46.93-.98,1.66-1.7,2.4-1.11,1.14-2.36,1.92-3.84,2.42-.9.3-1.72.44-2.79.49-.43.02-.47.02-.59.09-.52.25-.66.9-.31,1.35.09.12.29.24.44.28.33.09,1.57,0,2.46-.18,3.82-.77,6.98-3.45,8.36-7.08.49-1.29.72-2.6.72-4.02,0-1.28-.17-2.36-.57-3.56-.45-1.36-1.14-2.58-2.09-3.73-.26-.31-1.02-1.08-1.33-1.33-2.12-1.75-4.62-2.67-7.3-2.67-2.38,0-4.6.71-6.58,2.1-1.04.73-2.09,1.81-2.8,2.88l-.17.25v-2.29s-.02-2.29-.02-2.29l-.06-.14c-.11-.24-.31-.41-.56-.49-.12-.04-.38-.04-.5,0" fill-rule="evenodd"/>
</svg>