<?xml version="1.0" encoding="UTF-8"?>
<svg id="Lager_1" data-name="Lager 1" xmlns="http://www.w3.org/2000/svg" viewBox="0 0 24 24">
  <path d="M7.2.74c-1.97.27-3.57,1.76-3.97,3.7-.17.82-.12,1.65.14,2.45.18.55.45,1.04.82,1.5.17.21.53.57.74.72.38.29.89.57,1.27.71l.19.07-.35.09c-1,.26-1.93.73-2.78,1.42-.25.2-.77.73-.97.98-.52.65-.99,1.51-1.25,2.28-.23.68-.37,1.58-.35,2.2,0,.22.02.28.07.39.08.17.26.35.43.43.19.09.48.1.68.03.19-.07.4-.27.48-.46.06-.13.07-.19.09-.53.05-.82.2-1.44.51-2.12.32-.68.84-1.36,1.43-1.85.53-.45,1.25-.83,1.91-1.02.6-.17,1.07-.23,1.72-.21.66.02,1.1.11,1.77.36.27.1.35.12.49.12.38,0,.7-.23.83-.6.12-.34,0-.74-.28-.96-.17-.13-.69-.33-1.24-.47l-.3-.08.26-.1c2.34-.94,3.53-3.49,2.74-5.87-.58-1.74-2.11-2.97-3.94-3.18-.3-.03-.84-.03-1.14.01M7.41,2.48c-.83.13-1.51.56-1.98,1.22-.44.62-.62,1.45-.49,2.21.16.92.78,1.72,1.61,2.12.43.21.81.29,1.28.29.79,0,1.5-.29,2.05-.83.25-.25.41-.46.56-.75.5-.99.44-2.09-.18-3.02-.11-.17-.45-.53-.63-.66-.28-.21-.68-.41-1.02-.51-.35-.1-.84-.13-1.2-.07M16.5,10.44c-1.27.07-2.47.51-3.51,1.28-.37.27-.99.89-1.26,1.26-.7.94-1.11,1.96-1.25,3.11-.05.37-.05,1.09-.01,1.46.15,1.46.81,2.83,1.86,3.86.36.36.58.53,1.01.82,1.1.74,2.4,1.1,3.76,1.05.68-.02,1.19-.11,1.82-.33,1.92-.64,3.42-2.14,4.06-4.06.21-.63.3-1.15.33-1.82.04-1.36-.32-2.66-1.05-3.76-.29-.43-.47-.65-.82-1.01-1.3-1.31-3.05-1.98-4.92-1.88M16.2,12.23c-1,.15-1.92.61-2.64,1.33-.73.73-1.19,1.64-1.33,2.66-.04.29-.05.91-.01,1.2.13,1.03.56,1.95,1.28,2.68.42.43.78.7,1.29.95,2.33,1.15,5.15.2,6.28-2.13.64-1.32.64-2.83-.01-4.14-.25-.51-.52-.87-.95-1.29-.74-.72-1.65-1.15-2.68-1.28-.28-.03-.95-.03-1.22.01M19.06,14.42c-.07.02-.17.08-.23.11-.07.05-.47.56-1.43,1.84l-1.33,1.77-.69-.68c-.81-.8-.8-.8-1.17-.8-.21,0-.26,0-.37.06-.17.08-.35.26-.43.43-.05.11-.06.16-.06.37,0,.37-.02.34.97,1.33.76.76.87.86,1.03.94.64.33,1.38.21,1.87-.3.15-.15,2.84-3.75,2.91-3.89.07-.14.1-.32.07-.49-.05-.3-.2-.52-.47-.65-.2-.1-.48-.12-.68-.05" fill-rule="evenodd"/>
</svg>