<?xml version="1.0" encoding="UTF-8"?>
<svg id="Lager_1" data-name="Lager 1" xmlns="http://www.w3.org/2000/svg" viewBox="0 0 24 24">
  <path d="M12,12.18c3.17,0,5.74-2.58,5.74-5.74S15.17.7,12,.7s-5.74,2.58-5.74,5.74,2.58,5.74,5.74,5.74ZM12,2.45c2.2,0,3.99,1.79,3.99,3.99s-1.79,3.99-3.99,3.99-3.99-1.79-3.99-3.99,1.79-3.99,3.99-3.99Z"/>
  <path d="M12,12.52c-5.47,0-9.91,4.45-9.91,9.91,0,.48.39.88.88.88s.88-.39.88-.88c0-4.5,3.66-8.16,8.16-8.16s8.16,3.66,8.16,8.16c0,.48.39.88.88.88s.88-.39.88-.88c0-5.47-4.45-9.91-9.91-9.91Z"/>
</svg>