<?xml version="1.0" encoding="UTF-8"?>
<svg id="Lager_1" data-name="Lager 1" xmlns="http://www.w3.org/2000/svg" viewBox="0 0 24 24">
  <circle cx="11.91" cy="7.5" r="4.53" transform="translate(-1.4 2.94) rotate(-13.28)"/>
  <path d="M5.26,10.57c.38,0,.74-.08,1.08-.2-.45-.86-.71-1.84-.71-2.88h.01c0-1.12.3-2.18.83-3.1-.37-.15-.78-.24-1.21-.24-1.77,0-3.21,1.44-3.21,3.21s1.44,3.21,3.21,3.21Z"/>
  <path d="M11.91,13.4h0c-4.21,0-7,4.21-7,6.99,0,.35.28.64.64.64h12.73c.35,0,.64-.28.64-.64,0-2.78-2.79-6.99-7-6.99Z"/>
  <path d="M17.51,10.34c.38.16.81.25,1.25.25,1.77,0,3.21-1.44,3.21-3.21s-1.44-3.21-3.21-3.21h0c-.49-.01-.94.11-1.36.3.5.9.79,1.93.79,3.04,0,1.02-.25,1.98-.68,2.83Z"/>
  <path d="M8.14,12.6c-.79-.63-1.76-1.05-2.88-1.05-2.99.01-4.97,2.99-4.97,4.96,0,.25.2.45.45.45h3.29c.84-1.73,2.25-3.37,4.11-4.36Z"/>
  <path d="M18.74,11.55h.01c-1.16.01-2.16.46-2.96,1.12,1.8,1,3.17,2.6,3.99,4.29h3.48c.25,0,.45-.2.45-.45,0-1.97-1.98-4.96-4.97-4.96Z"/>
</svg>