<?xml version="1.0" encoding="UTF-8"?>
<svg id="Lager_1" data-name="Lager 1" xmlns="http://www.w3.org/2000/svg" viewBox="0 0 24 24">
  <path d="M11.85,12.01c2.59,0,4.7-2.11,4.7-4.7s-2.11-4.7-4.7-4.7-4.7,2.11-4.7,4.7,2.11,4.7,4.7,4.7ZM11.85,4.36c1.63,0,2.95,1.32,2.95,2.95s-1.32,2.95-2.95,2.95-2.95-1.32-2.95-2.95,1.32-2.95,2.95-2.95Z"/>
  <path d="M11.85,13.38c-3.93,0-7.13,3.2-7.13,7.13,0,.48.39.88.88.88s.88-.39.88-.88c0-2.97,2.42-5.38,5.38-5.38s5.38,2.42,5.38,5.38c0,.48.39.88.88.88s.88-.39.88-.88c0-3.93-3.2-7.13-7.13-7.13Z"/>
  <path d="M20.37,8.67c-.57.37-1.32.37-1.89,0-.4-.26-.95-.15-1.21.26-.26.4-.15.95.26,1.21.58.38,1.24.56,1.9.56s1.32-.19,1.9-.56c1.61-1.05,2.07-3.21,1.02-4.81-1.05-1.61-3.21-2.07-4.81-1.02-.41.26-.52.81-.26,1.21.26.41.8.52,1.21.26.8-.52,1.87-.29,2.39.51.52.8.29,1.87-.51,2.39Z"/>
  <path d="M23.87,15.54c-.64-2.84-3.48-4.63-6.32-3.99-.47.11-.77.58-.66,1.05.11.47.58.76,1.05.66,1.9-.43,3.8.77,4.23,2.67.06.25.09.52.09.77,0,.48.39.88.88.88s.88-.39.88-.88c0-.39-.04-.78-.13-1.16Z"/>
  <path d="M2.58,10.14c.58.37,1.24.56,1.9.56s1.32-.19,1.9-.56c.41-.26.52-.81.26-1.21-.26-.4-.8-.52-1.21-.26-.57.37-1.32.37-1.89,0-.8-.52-1.03-1.59-.51-2.39.52-.8,1.59-1.03,2.39-.51.41.26.95.15,1.21-.26.26-.41.15-.95-.26-1.21-1.61-1.04-3.77-.59-4.81,1.02-1.05,1.61-.59,3.77,1.02,4.82Z"/>
  <path d="M6.07,13.26c.47.1.94-.19,1.05-.66.11-.47-.19-.94-.66-1.05-2.85-.64-5.68,1.15-6.32,3.99-.09.38-.13.77-.13,1.16,0,.48.39.88.88.88s.88-.39.88-.88c0-.26.03-.52.09-.78.43-1.9,2.32-3.09,4.23-2.67Z"/>
</svg>