<?xml version="1.0" encoding="UTF-8"?>
<svg id="Lager_1" data-name="Lager 1" xmlns="http://www.w3.org/2000/svg" viewBox="0 0 24 24">
  <path d="M21.87,10.81c-.32-.18-.76-.33-1.09-.36-.1,0-.22-.02-.26-.02s-.19,0-.31.01c-.49.04-.96.21-1.4.52-.28.19-7.49,7.4-7.58,7.58-.05.09-.14.51-.43,1.94-.24,1.2-.36,1.87-.36,1.97,0,.27.14.52.36.69.15.11.32.17.49.17.07,0,.94-.16,1.93-.36,1.34-.27,1.85-.38,1.94-.42.11-.05.62-.55,3.78-3.71,2.5-2.5,3.7-3.71,3.79-3.84,1.01-1.38.61-3.29-.87-4.16ZM20.49,12.2c.23,0,.27.01.42.08.2.1.44.32.53.52.09.19.13.45.09.66-.03.18.01.21-.49.74l-1.5-1.51c.41-.39.48-.42.6-.46.06-.02.19-.03.35-.03ZM13.39,21.12c-.52.1-.95.19-.96.18s.08-.44.18-.96l.19-.95.2-.2,1.53,1.54-.2.2-.95.19ZM17.85,17.4l-2.26,2.26-1.53-1.54,2.26-2.25c.94-.94,1.63-1.63,2.15-2.14l1.52,1.54c-.52.52-1.2,1.21-2.14,2.14Z"/>
  <path d="M12.38,14.06c.2.32.27.4.46.49.23.11.42.13.64.07.53-.16.78-.74.54-1.24-.1-.2-.46-.74-.67-1-.23-.28-.81-.87-1.11-1.1-.8-.63-1.79-1.12-2.74-1.35l-.23-.06.29-.12c2.33-.93,3.52-3.49,2.72-5.86-.58-1.74-2.11-2.97-3.94-3.18-.3-.03-.84-.03-1.14.01-1.97.27-3.57,1.76-3.97,3.7-.17.82-.12,1.65.14,2.45.18.55.45,1.04.82,1.5.17.21.53.57.74.72.38.29.89.57,1.27.71l.19.07-.36.09c-1.74.44-3.24,1.53-4.22,3.07-.21.33-.54.99-.67,1.33-.29.79-.43,1.55-.43,2.32,0,.41,0,.42.06.55.08.17.26.34.43.43.19.09.48.1.68.03.19-.07.4-.27.49-.46.06-.13.07-.19.09-.5.02-.41.06-.71.11-.94.37-1.78,1.59-3.24,3.26-3.91.31-.13.74-.25,1.08-.31.35-.06,1.08-.09,1.46-.05,1.68.18,3.13,1.1,4.03,2.55ZM7.82,8.33c-.48,0-.85-.09-1.28-.29-.83-.4-1.44-1.21-1.61-2.12-.13-.76.05-1.59.49-2.21.47-.67,1.16-1.09,1.98-1.22.36-.06.85-.03,1.2.07.34.09.74.29,1.02.51.18.14.52.5.63.66.62.94.68,2.04.18,3.02-.15.29-.31.51-.56.75-.55.54-1.26.83-2.05.83Z"/>
</svg>