<?xml version="1.0" encoding="UTF-8"?>
<svg id="Lager_1" data-name="Lager 1" xmlns="http://www.w3.org/2000/svg" viewBox="0 0 24 24">
  <path d="M7.83,12.1c2.59,0,4.7-2.11,4.7-4.7s-2.11-4.7-4.7-4.7S3.13,4.81,3.13,7.4s2.11,4.7,4.7,4.7ZM7.83,4.46c1.63,0,2.95,1.32,2.95,2.95s-1.32,2.95-2.95,2.95-2.95-1.32-2.95-2.95,1.32-2.95,2.95-2.95Z"/>
  <path d="M7.83,13.29c-3.93,0-7.13,3.2-7.13,7.13,0,.48.39.88.88.88s.88-.39.88-.88c0-2.97,2.41-5.38,5.38-5.38s5.38,2.42,5.38,5.38c0,.48.39.88.88.88s.88-.39.88-.88c0-3.93-3.2-7.13-7.13-7.13Z"/>
  <path d="M17.78,9.88c-.98.63-2.24.63-3.22,0-.4-.26-.95-.15-1.21.25-.26.4-.15.95.26,1.21.78.51,1.67.76,2.57.76s1.78-.25,2.56-.76c1.05-.68,1.78-1.74,2.04-2.96.26-1.23.03-2.48-.66-3.54-1.41-2.17-4.33-2.79-6.5-1.38-.41.26-.52.81-.26,1.21.26.41.8.52,1.21.26,1.36-.89,3.19-.5,4.08.87.43.66.58,1.45.41,2.22s-.62,1.43-1.28,1.86Z"/>
  <path d="M23.13,18.85c-.42-1.86-1.54-3.44-3.16-4.46-1.61-1.02-3.52-1.34-5.39-.92-.47.11-.77.58-.66,1.05s.57.77,1.05.66c1.41-.32,2.85-.07,4.07.7,1.22.77,2.06,1.96,2.38,3.37.09.39.13.79.13,1.18,0,.48.39.88.88.88s.88-.39.88-.88c0-.53-.06-1.06-.18-1.57Z"/>
</svg>