<?xml version="1.0" encoding="UTF-8"?>
<svg id="Lager_1" data-name="Lager 1" xmlns="http://www.w3.org/2000/svg" viewBox="0 0 24 24">
  <path d="M7.2.74c-1.97.27-3.57,1.76-3.97,3.7-.17.82-.12,1.65.14,2.45.18.55.45,1.04.82,1.5.17.21.53.57.74.72.38.29.89.57,1.27.71l.19.07-.35.09c-1,.26-1.93.73-2.78,1.42-.25.2-.77.73-.97.98-.52.65-.99,1.51-1.25,2.28-.23.68-.37,1.58-.35,2.2,0,.22.02.28.07.39.08.17.26.35.43.43.19.09.48.1.68.03.19-.07.4-.27.48-.46.06-.13.07-.19.09-.53.05-.82.2-1.44.51-2.12.32-.68.84-1.36,1.43-1.85.53-.45,1.25-.83,1.91-1.02.6-.17,1.07-.23,1.72-.21.66.02,1.1.11,1.77.36.27.1.35.12.49.12.38,0,.7-.23.83-.6.12-.34,0-.74-.28-.96-.17-.13-.69-.33-1.24-.47l-.3-.08.26-.1c2.34-.94,3.53-3.49,2.74-5.87-.58-1.74-2.11-2.97-3.94-3.18-.3-.03-.84-.03-1.14.01M7.4,2.48c-.83.13-1.51.56-1.98,1.22-.44.62-.62,1.45-.49,2.21.16.92.78,1.72,1.61,2.12.43.21.81.29,1.28.29.79,0,1.5-.29,2.05-.83.25-.25.41-.46.56-.75.5-.99.44-2.09-.18-3.02-.11-.17-.45-.53-.63-.66-.28-.21-.68-.41-1.02-.51-.35-.1-.84-.13-1.2-.07M16.66,9.05c-.73.07-1.4.55-1.7,1.21-.04.08-.17.48-.29.88-.12.4-.23.74-.24.75-.01.01-.31-.05-.78-.15-.61-.14-.81-.18-1.02-.19-1.17-.05-2.18.91-2.18,2.08,0,.49.11.86.36,1.23.05.07.33.4.63.72.33.36.54.6.52.61,0,.02-.25.28-.53.58-.28.31-.57.64-.64.74-.23.33-.34.73-.34,1.18,0,.43.11.79.34,1.15.43.65,1.17,1.01,1.95.94.11,0,.53-.09.93-.19.41-.09.75-.17.75-.16,0,0,.11.35.24.75.29.95.38,1.14.68,1.45.27.28.65.51,1.01.6.22.05.62.07.84.04.43-.07.84-.27,1.15-.58.35-.34.43-.51.73-1.49.13-.42.24-.76.25-.77,0,0,.33.06.72.15.77.18,1.08.23,1.31.2.92-.1,1.61-.66,1.88-1.54.06-.19.06-.25.06-.56,0-.4-.05-.62-.19-.92-.12-.25-.23-.39-.81-1.02-.29-.31-.52-.57-.52-.58s.24-.28.53-.59c.68-.73.79-.9.92-1.34.37-1.29-.54-2.59-1.89-2.69-.27-.02-.45,0-1.29.2-.39.09-.72.16-.72.15,0,0-.12-.36-.25-.77-.13-.42-.26-.81-.29-.88-.16-.35-.47-.69-.83-.91-.37-.23-.83-.33-1.29-.29M16.69,10.85s-.09.07-.11.1c-.02.03-.13.38-.25.77-.12.39-.24.77-.27.84-.21.57-.82,1.02-1.46,1.1-.28.03-.44,0-1.3-.19-.4-.09-.74-.17-.76-.17s-.08.02-.14.05c-.17.08-.25.29-.17.46.02.04.24.3.49.57.55.59.69.75.8.96.14.25.19.49.19.83,0,.33-.04.5-.16.77-.11.24-.18.32-.76.95-.28.3-.53.58-.55.62-.12.22.05.52.3.52.05,0,.42-.08.82-.17.71-.17.73-.17,1.05-.17.38,0,.54.04.85.2.34.19.6.45.76.78.04.08.18.49.3.9.13.41.25.78.27.81.08.11.17.16.3.16.13,0,.22-.05.29-.17.02-.04.14-.41.27-.83.25-.81.32-.98.53-1.23.24-.28.67-.54,1.05-.61.31-.06.51-.03,1.35.16.41.1.79.17.84.17.13,0,.24-.07.3-.2.08-.16.06-.26-.09-.43-.06-.07-.32-.35-.57-.62-.25-.27-.5-.56-.55-.65-.21-.32-.29-.67-.27-1.08.02-.27.06-.45.16-.66.11-.22.22-.36.78-.96.56-.61.62-.69.57-.86-.04-.13-.13-.22-.26-.26-.08-.02-.17,0-.81.14-.4.09-.8.18-.9.19-.56.09-1.23-.18-1.59-.62-.21-.26-.27-.41-.53-1.26-.24-.78-.25-.81-.34-.89-.08-.08-.11-.09-.21-.09-.07,0-.14.02-.19.05M16.62,13.92c-.89.1-1.66.73-1.92,1.59-.33,1.07.17,2.21,1.17,2.7.31.15.52.2.88.22.35.02.56-.01.85-.11.64-.22,1.18-.74,1.39-1.36.11-.31.14-.54.13-.88-.02-.37-.07-.57-.22-.89-.41-.85-1.34-1.37-2.28-1.26M16.64,15.71c-.29.16-.37.52-.18.77.08.11.21.18.34.19.41.04.69-.36.51-.73-.09-.18-.21-.26-.43-.27-.12,0-.19,0-.24.03" fill-rule="evenodd"/>
</svg>