<?xml version="1.0" encoding="UTF-8"?>
<svg id="Lager_1" data-name="Lager 1" xmlns="http://www.w3.org/2000/svg" viewBox="0 0 24 24">
  <path d="M7.21.73c-1.97.27-3.57,1.76-3.97,3.7-.17.82-.12,1.65.14,2.45.18.55.45,1.04.82,1.5.17.21.53.57.74.72.38.29.89.57,1.27.71l.19.07-.35.09c-1,.26-1.93.73-2.78,1.42-.25.2-.77.73-.97.98-.52.65-.99,1.51-1.25,2.28-.23.68-.37,1.58-.35,2.2,0,.22.02.28.07.39.08.17.26.35.43.43.19.09.48.1.68.03.19-.07.4-.27.48-.46.06-.13.07-.19.09-.53.05-.82.2-1.44.51-2.12.32-.68.84-1.36,1.43-1.85.53-.45,1.25-.83,1.91-1.02.6-.17,1.07-.23,1.72-.21.66.02,1.1.11,1.77.36.27.1.35.12.49.12.38,0,.7-.23.83-.6.12-.34,0-.74-.28-.96-.17-.13-.69-.33-1.24-.47l-.3-.08.26-.1c2.34-.94,3.53-3.49,2.74-5.87-.58-1.74-2.11-2.97-3.94-3.18-.3-.03-.84-.03-1.14.01M7.41,2.48c-.83.13-1.51.56-1.98,1.22-.44.62-.62,1.45-.49,2.21.16.92.78,1.72,1.61,2.12.43.21.81.29,1.28.29.79,0,1.5-.29,2.05-.83.25-.25.41-.46.56-.75.5-.99.44-2.09-.18-3.02-.11-.17-.45-.53-.63-.66-.28-.21-.68-.41-1.02-.51-.35-.1-.84-.13-1.2-.07M16.48,10.44c-1.31.07-2.61.58-3.63,1.4-.27.22-.72.67-.95.94-.96,1.18-1.46,2.55-1.46,4.07,0,1.1.22,2.01.71,2.96.81,1.58,2.27,2.77,3.97,3.25,1.19.34,2.53.31,3.71-.06,1.74-.56,3.17-1.84,3.94-3.53.22-.48.42-1.19.5-1.8.05-.32.04-1.37-.01-1.7-.18-1.19-.62-2.21-1.35-3.14-.1-.13-.33-.37-.51-.55-1.3-1.29-3.06-1.95-4.91-1.85M16.28,12.22c-.51.07-1,.22-1.5.47-1.38.69-2.33,2-2.54,3.54-.04.29-.05.91-.01,1.2.11.87.46,1.71,1,2.38.19.23.62.65.85.82.69.51,1.5.82,2.35.91,2.05.21,4.03-.99,4.8-2.92.5-1.25.45-2.62-.15-3.82-.25-.5-.51-.86-.93-1.27-.71-.7-1.6-1.14-2.62-1.29-.28-.04-.97-.05-1.24-.01M13.91,16.01c-.15.03-.32.12-.44.24-.42.42-.3,1.13.23,1.39l.16.08h6.03l.13-.06c.17-.08.35-.26.43-.43.05-.11.06-.17.06-.36s0-.25-.06-.36c-.13-.27-.35-.45-.63-.5-.17-.03-5.75-.03-5.91,0" fill-rule="evenodd"/>
</svg>