<?xml version="1.0" encoding="UTF-8"?>
<svg id="Lager_1" data-name="Lager 1" xmlns="http://www.w3.org/2000/svg" viewBox="0 0 24 24">
  <path d="M20.51,2.84c-.08.03-.17.09-.22.12-.04.04-.83.79-1.75,1.67-.92.88-1.74,1.67-1.84,1.76l-.17.16-.26-.11c-1.1-.46-2.23-.74-3.44-.84-.58-.05-1.65-.04-2.11.02-2.08.28-4.15,1.16-6.27,2.66-.97.69-1.8,1.4-2.68,2.3-.55.57-.68.73-.85,1.06-.18.36-.22.57-.22,1.04s.04.68.22,1.04c.15.31.24.42.74.96.91.97,2.13,2.01,3.34,2.82l.06.04-.1.09c-.05.05-.53.51-1.06,1.01-1.07,1.02-1.18,1.14-1.26,1.29-.11.22-.11.57,0,.77.08.16.24.31.4.39.15.07.18.08.39.08.32,0,.42-.05.76-.38.14-.14.81-.77,1.47-1.41.67-.64,1.26-1.2,1.33-1.24.06-.04.16-.13.21-.2.12-.15,2.27-2.22,2.5-2.41.09-.07.17-.15.18-.17,0-.02,1.09-1.07,2.42-2.34,1.32-1.27,2.52-2.42,2.67-2.56.15-.14,1.63-1.57,3.3-3.17,1.67-1.6,3.09-2.97,3.16-3.04.15-.16.22-.3.25-.48.06-.38-.13-.75-.48-.92-.14-.07-.19-.08-.36-.09-.17,0-.23,0-.34.05M11.18,7.35c-1.23.13-2.37.48-3.67,1.14-1.11.56-2.2,1.29-3.23,2.17-.69.59-1.66,1.55-1.77,1.76-.06.12-.08.31-.05.44.04.15.13.27.56.71.73.76,1.58,1.5,2.37,2.08.32.23.94.65.97.65.02,0,1.11-1.03,1.64-1.55l.08-.08-.09-.21c-.23-.56-.33-1.07-.33-1.69,0-.58.08-1.05.28-1.57.69-1.83,2.52-3.01,4.46-2.87.56.04.97.14,1.49.37l.28.12.14-.13c.31-.29.83-.79.82-.8-.02-.02-.39-.14-.62-.2-.49-.14-1.04-.25-1.63-.32-.3-.03-1.44-.05-1.7-.02M18.95,8.27c-.16.05-.28.13-.39.24-.23.24-.3.56-.2.89.05.15.08.2.2.32.08.08.32.28.53.44.66.5,1.38,1.14,1.96,1.76.35.37.44.49.48.63.03.13.01.32-.05.44-.11.21-1.05,1.15-1.79,1.78-1.04.89-2.18,1.65-3.31,2.2-1.2.59-2.23.91-3.4,1.06-.34.04-1.58.04-1.93,0-.43-.05-.89-.14-1.32-.26-.49-.13-.66-.14-.88-.03-.32.16-.48.4-.5.75-.01.26.05.44.21.62.16.17.29.24.71.35.63.17,1.26.28,1.94.34.53.04,1.68.02,2.15-.05,2.5-.34,5.08-1.62,7.6-3.77.47-.4,1.67-1.59,1.86-1.84.17-.22.35-.6.42-.85.08-.3.08-.91,0-1.2-.09-.36-.29-.71-.57-1.03-.23-.26-1.04-1.07-1.36-1.35-.67-.61-1.6-1.33-1.8-1.42-.14-.06-.44-.07-.56-.03M11.87,10.09c-.55.05-1.1.28-1.5.63-.45.4-.71.83-.87,1.41-.04.17-.05.26-.05.65,0,.28,0,.47.03.5.02.04.23-.15,1.67-1.54.97-.94,1.63-1.59,1.62-1.6-.09-.05-.6-.09-.89-.06M15.33,11.84c-.25.04-.52.23-.63.46-.06.13-.11.34-.11.52s-.06.52-.14.73c-.21.61-.65,1.13-1.23,1.45-.31.17-.8.3-1.11.3-.18,0-.39.04-.52.11-.15.08-.34.29-.41.46-.06.17-.07.43-.01.6.08.25.35.5.6.56.17.04.76.01,1.07-.05,1.73-.36,3.06-1.68,3.43-3.42.06-.3.09-.91.05-1.08-.06-.25-.32-.52-.55-.6-.15-.05-.3-.06-.44-.04" fill-rule="evenodd"/>
</svg>