<?xml version="1.0" encoding="UTF-8"?>
<svg id="Lager_1" data-name="Lager 1" xmlns="http://www.w3.org/2000/svg" viewBox="0 0 24 24">
  <path d="M11.18,4.88c-1.5.13-2.8.51-4.33,1.27-1.9.94-3.68,2.27-5.28,3.95-.36.37-.52.59-.65.87-.17.35-.21.56-.21,1.03,0,.36,0,.42.06.63.08.27.23.58.41.82.16.21,1.02,1.09,1.45,1.48,2.17,1.96,4.53,3.32,6.77,3.89.9.23,1.4.29,2.4.31,1.11.02,1.8-.06,2.76-.3,2.12-.53,4.3-1.73,6.41-3.53.49-.42,1.68-1.6,1.87-1.85.31-.42.44-.8.47-1.31.03-.59-.12-1.11-.45-1.55-.27-.36-1.18-1.26-1.86-1.85-1.25-1.07-2.49-1.91-3.84-2.57-1.36-.67-2.5-1.03-3.82-1.22-.29-.04-.51-.05-1.2-.06-.46,0-.89,0-.95,0M11.32,6.64s-.19.02-.32.03c-2.05.21-4.51,1.41-6.68,3.25-.71.6-1.65,1.53-1.78,1.77-.1.17-.11.35-.04.54.05.12.11.2.43.54.9.95,2.05,1.91,3.17,2.63,1.69,1.1,3.29,1.73,4.92,1.93.34.04,1.63.04,1.97,0,2.03-.26,4.13-1.22,6.18-2.83.9-.71,2.11-1.86,2.3-2.19.06-.11.07-.15.07-.3,0-.26-.05-.34-.51-.82-1.08-1.11-2.37-2.15-3.63-2.9-1.5-.89-2.9-1.41-4.29-1.6-.26-.04-1.57-.07-1.78-.04M11.35,7.69c-1.15.18-2.19.81-2.87,1.75-.37.5-.61,1.06-.76,1.72-.05.22-.05.32-.05.84,0,.65.02.82.18,1.32.46,1.44,1.65,2.55,3.13,2.92.45.11,1.16.14,1.64.07,1.82-.27,3.26-1.62,3.65-3.46.07-.34.09-1.1.04-1.45-.12-.76-.37-1.38-.79-1.96-.69-.95-1.71-1.57-2.89-1.75-.3-.05-.99-.05-1.28,0M11.48,9.45c-1.22.26-2.08,1.3-2.08,2.54,0,1.1.7,2.09,1.73,2.45,1.23.42,2.57-.11,3.17-1.27.34-.65.37-1.48.09-2.16-.33-.8-1.04-1.39-1.89-1.56-.31-.06-.72-.06-1.02,0" fill-rule="evenodd"/>
</svg>