<?xml version="1.0" encoding="UTF-8"?>
<svg id="Lager_1" data-name="Lager 1" xmlns="http://www.w3.org/2000/svg" viewBox="0 0 24 24">
  <path d="M14.73.9c-1.21.4-2.26,1.21-2.98,2.3-.97,1.47-1.2,3.35-.62,5.02.34.97.98,1.91,1.74,2.52l.21.17-.26.14c-1.13.59-2.18,1.47-2.97,2.45-.27.33-.65.9-.84,1.23l-.12.21h-.83v-.37c-.01-.34-.02-.38-.08-.5-.08-.16-.25-.34-.41-.42-.06-.03-.19-.07-.28-.08-.1-.01-1.13-.02-2.55-.02h-2.38s-.16.08-.16.08c-.19.09-.36.26-.45.44l-.06.13v8.33l.08.16c.09.19.24.34.43.42l.14.06h5.06l.14-.06c.16-.08.34-.24.41-.37.09-.18.11-.28.11-.62v-.33h1.16l.34.15c1.15.52,2.5.92,3.76,1.09,1.11.16,2.32.19,2.74.08.43-.11.81-.34,1.09-.64.21-.22,3.04-4.17,3.17-4.43.19-.37.29-.87.24-1.28-.03-.25-.33-1.49-.42-1.74-.19-.5-.54-.91-1.05-1.2l-.19-.11v-1.08s0-1.08,0-1.08l.26-.13c1.1-.54,2.07-1.53,2.6-2.67.37-.8.53-1.53.53-2.44,0-.48-.02-.75-.11-1.16-.33-1.62-1.37-3.04-2.83-3.84-.45-.25-1.03-.47-1.27-.5-.39-.03-.75.2-.89.57-.04.11-.04.24-.04,2.51,0,1.43,0,2.45-.02,2.54-.09.55-.79.69-1.07.21l-.07-.12v-2.52c-.02-2.01-.03-2.54-.06-2.61-.09-.25-.35-.5-.6-.56-.2-.05-.35-.04-.61.05M14.14,3.16c-.47.35-.88.86-1.16,1.41-.47.93-.54,2.1-.18,3.09.36,1,1.04,1.76,2.02,2.26.33.17.48.29.58.49l.07.14v1.49s.01,1.49.01,1.49h1.68v-1.37c0-.86,0-1.41.02-1.46.04-.15.2-.37.34-.46.07-.05.22-.12.34-.16.12-.04.34-.13.49-.2,1.14-.55,1.98-1.7,2.17-2.97.07-.46.03-1.18-.1-1.63-.22-.79-.74-1.57-1.4-2.09l-.11-.09v1.79c-.02,1.91-.02,1.88-.14,2.24-.27.78-.97,1.38-1.77,1.54-.21.04-.67.04-.86,0-.9-.18-1.59-.82-1.84-1.69-.05-.19-.05-.21-.07-2.03v-1.84s-.1.06-.1.06M13.45,12.7c-1.34.74-2.4,1.87-3.12,3.28-.21.42-.34.56-.58.66-.13.05-.17.06-.91.06h-.77v3.34h.8s.8.01.8.01l.41.19c1.66.76,3.14,1.11,5.01,1.18.52.02.66,0,.8-.14.09-.09,2.83-3.91,2.9-4.05.08-.15.06-.29-.1-.93-.08-.32-.16-.62-.18-.67-.04-.1-.11-.18-.23-.25l-.08-.05h-1.88s-1.88-.02-1.88-.02l-.14-.06c-.08-.04-.17-.09-.22-.13-.1-.07-.24-.28-.28-.4-.02-.06-.03-.4-.04-1.12v-1.04s-.28.15-.28.15M3.43,18.37v3.06h2.88v-6.12h-2.88v3.06" fill-rule="evenodd"/>
</svg>