<?xml version="1.0" encoding="UTF-8"?>
<svg id="Lager_1" data-name="Lager 1" xmlns="http://www.w3.org/2000/svg" viewBox="0 0 24 24">
  <path d="M15.27.73c-1.78.2-3.3.93-4.54,2.2-1.27,1.31-1.99,3.02-2.04,4.86-.03.92.1,1.79.37,2.58l.07.2-3.95,3.96c-2.51,2.51-3.99,4.02-4.06,4.12-.15.21-.27.46-.35.71-.06.19-.06.25-.06.62,0,.46.03.62.19.96.16.35.29.5.97,1.19.69.69.84.81,1.19.97.34.16.5.19.96.19.38,0,.43,0,.62-.07.29-.09.59-.25.82-.43.11-.09,1.94-1.9,4.08-4.04l3.88-3.89.2.07c.31.11.89.25,1.26.31.87.13,1.73.11,2.56-.06,2.9-.59,5.16-2.86,5.73-5.76.12-.62.16-1.49.1-2.12-.08-.82-.27-1.53-.59-2.26-.2-.44-.3-.58-.56-.71-.11-.06-.15-.07-.37-.07-.42,0-.27-.12-2.27,1.87-1.86,1.86-1.8,1.8-2.03,1.8-.18,0-.29-.08-.74-.54-.35-.35-.44-.46-.46-.53-.04-.13-.03-.26.01-.37.03-.06.57-.62,1.79-1.84,1.07-1.07,1.77-1.79,1.81-1.86.09-.16.13-.4.09-.58-.08-.39-.26-.55-.94-.86-.61-.28-1.26-.47-1.98-.57-.43-.06-1.33-.08-1.75-.04M15.43,2.49c-1.01.12-1.93.47-2.71,1.05-.47.34-.93.81-1.26,1.28-.5.71-.8,1.45-.96,2.41-.06.36-.06,1.23,0,1.6.09.53.21.94.44,1.49.11.25.11.27.11.48,0,.4.41-.05-4.33,4.7-4.55,4.56-4.27,4.26-4.27,4.52,0,.19.09.3.68.89.59.58.68.65.87.65.25,0-.04.28,4.5-4.26,4.48-4.47,4.27-4.27,4.56-4.33.17-.04.33-.01.57.09.87.36,1.4.48,2.21.51.38.01.56,0,.8-.03,1.48-.19,2.77-.91,3.69-2.05.58-.72.98-1.63,1.13-2.53.11-.69.11-1.24-.01-1.94l-.05-.28-1.24,1.23c-1.42,1.41-1.49,1.47-2.02,1.64-.69.22-1.44.09-2.04-.35-.2-.14-1.08-1.03-1.21-1.22-.21-.29-.35-.64-.4-.96-.03-.22-.01-.75.04-.94.06-.22.19-.51.31-.69.08-.13.45-.51,1.4-1.46l1.28-1.29-.09-.02c-.22-.06-.45-.1-.67-.14-.34-.05-1-.06-1.33-.02" fill-rule="evenodd"/>
</svg>