
<?xml version="1.0" encoding="utf-8"?>
<svg xmlns="http://www.w3.org/2000/svg">
  <defs>
    <symbol id="folder-add" viewBox="0 0 24 24">
    <path d="m9.5,8v-2.5h10v13H4.5v-10h4.5c.28,0,.5-.22.5-.5Z" style="fill:rgb(51, 47, 30); stroke: #000; stroke-linejoin: round;"/>
    <path d="m15,12v4m-2-2h4" style="fill: none; stroke: #000; stroke-linecap: round;"/>
    </symbol>
   <symbol id="thumbs_up_filled" viewBox="0 0 24 24">
   <path d="M22.01,8.7c-.26-.08-.54-.12-.81-.12h-5.61c-.7,0-1.26-.57-1.26-1.27,0-.19,.04-.37,.12-.54l1.45-3c.42-1.31-.31-2.71-1.62-3.13-1.03-.33-2.15,.05-2.78,.93l-4.94,7c-.23,.32-.6,.52-1,.53-.26,0-.47,.21-.47,.47v11.42c0,.2,.11,.38,.29,.46,3.74,1.81,5,2,8,2l3.07,.02c2.7,0,4.51-1.57,5.51-4.83l1.92-6.44h0c.46-1.46-.34-3.02-1.8-3.48-.02,0-.05-.01-.07-.02Z"/>
   <path d="M2.01,7.82H.5c-.28,0-.5,.21-.51,.49h0v14.16c0,.28,.22,.51,.5,.52,.01,0,.02,0,.03,0h1.49c.84,0,1.52-.68,1.52-1.52h0V9.08h0c-.12-.74-.77-1.28-1.52-1.26Z"/>
   </symbol>
  </defs>
</svg>